<svg width="39" height="39" viewBox="0 0 39 39" fill="none" xmlns="http://www.w3.org/2000/svg">
<g id="vuesax/bold/award">
<path id="Vector" d="M28.7419 8.90059V10.0672L23.1609 6.83531C21.0483 5.62137 18.1002 5.62137 16.0033 6.83531L10.4224 10.083V8.90059C10.4224 5.35336 12.3615 3.39844 15.9088 3.39844H23.2555C26.8027 3.39844 28.7419 5.35336 28.7419 8.90059Z" fill="url(#paint0_linear_3183_25622)"/>
<path id="Vector_2" d="M28.7881 12.8096L28.5674 12.6993L26.4233 11.4696L21.9774 8.8998C20.6216 8.11153 18.5405 8.11153 17.1847 8.8998L12.7388 11.4538L10.5947 12.715L10.3109 12.8569C7.55198 14.7173 7.36279 15.0641 7.36279 18.0438V25.1698C7.36279 28.1495 7.55198 28.4963 10.374 30.4039L17.1847 34.3295C17.8626 34.7394 18.7139 34.9128 19.581 34.9128C20.4324 34.9128 21.2995 34.7237 21.9774 34.3295L28.8511 30.3566C31.6259 28.4963 31.7993 28.1652 31.7993 25.1698V18.0438C31.7993 15.0641 31.6101 14.7173 28.7881 12.8096ZM23.9796 21.528L23.0179 22.7104C22.8603 22.8838 22.7499 23.2149 22.7657 23.4513L22.8603 24.9648C22.9233 25.895 22.2612 26.368 21.3941 26.0369L19.9909 25.4693C19.7702 25.3905 19.4076 25.3905 19.1869 25.4693L17.7838 26.0211C16.9167 26.368 16.2545 25.8792 16.3176 24.9491L16.4122 23.4356C16.4279 23.1991 16.3176 22.868 16.1599 22.6946L15.1825 21.528C14.5834 20.8185 14.8514 20.0302 15.75 19.7937L17.2162 19.4154C17.4527 19.3523 17.7207 19.1316 17.8468 18.9424L18.6666 17.6812C19.1711 16.8929 19.9752 16.8929 20.4954 17.6812L21.3152 18.9424C21.4414 19.1474 21.7251 19.3523 21.9459 19.4154L23.4121 19.7937C24.3107 20.0302 24.5787 20.8185 23.9796 21.528Z" fill="url(#paint1_linear_3183_25622)"/>
</g>
<defs>
<linearGradient id="paint0_linear_3183_25622" x1="19.5821" y1="3.39844" x2="19.5821" y2="10.083" gradientUnits="userSpaceOnUse">
<stop stop-color="#FFF1A9"/>
<stop offset="0.213582" stop-color="#FCAF07"/>
<stop offset="0.619832" stop-color="#FCAF07"/>
<stop offset="0.817749" stop-color="#FFF0AA"/>
<stop offset="1" stop-color="#FFAF00"/>
</linearGradient>
<linearGradient id="paint1_linear_3183_25622" x1="19.581" y1="8.30859" x2="19.581" y2="34.9128" gradientUnits="userSpaceOnUse">
<stop stop-color="#FFF1A9"/>
<stop offset="0.213582" stop-color="#FCAF07"/>
<stop offset="0.619832" stop-color="#FCAF07"/>
<stop offset="0.817749" stop-color="#FFF0AA"/>
<stop offset="1" stop-color="#FFAF00"/>
</linearGradient>
</defs>
</svg>
