<svg width="18" height="19" viewBox="0 0 18 19" fill="none" xmlns="http://www.w3.org/2000/svg">
<g id="vuesax/outline/message-question">
<g id="message-question">
<path id="Vector" d="M6 17.24C5.79 17.24 5.57249 17.1876 5.37749 17.0826C4.94999 16.8576 4.6875 16.4075 4.6875 15.9275V14.8626C2.4225 14.6301 0.9375 12.965 0.9375 10.58V6.08008C0.9375 3.50008 2.67 1.76758 5.25 1.76758H12.75C15.33 1.76758 17.0625 3.50008 17.0625 6.08008V10.58C17.0625 13.16 15.33 14.8925 12.75 14.8925H9.92249L6.72748 17.0226C6.50998 17.1651 6.255 17.24 6 17.24ZM5.25 2.88507C3.315 2.88507 2.0625 4.13757 2.0625 6.07257V10.5726C2.0625 12.5076 3.315 13.7601 5.25 13.7601C5.5575 13.7601 5.8125 14.0151 5.8125 14.3226V15.9201C5.8125 16.0176 5.8725 16.0626 5.91 16.0851C5.9475 16.1076 6.02251 16.1301 6.10501 16.0776L9.44252 13.8576C9.53252 13.7976 9.64501 13.7601 9.75751 13.7601H12.7575C14.6925 13.7601 15.945 12.5076 15.945 10.5726V6.07257C15.945 4.13757 14.6925 2.88507 12.7575 2.88507H5.25Z" fill="#111111"/>
<path id="Vector_2" d="M8.99986 9.58203C8.69236 9.58203 8.43736 9.32703 8.43736 9.01953V8.86206C8.43736 7.99206 9.07485 7.56455 9.31485 7.39955C9.59235 7.21205 9.68234 7.08456 9.68234 6.88956C9.68234 6.51456 9.37486 6.20703 8.99986 6.20703C8.62486 6.20703 8.31738 6.51456 8.31738 6.88956C8.31738 7.19706 8.06238 7.45206 7.75488 7.45206C7.44738 7.45206 7.19238 7.19706 7.19238 6.88956C7.19238 5.89206 8.00236 5.08203 8.99986 5.08203C9.99736 5.08203 10.8073 5.89206 10.8073 6.88956C10.8073 7.74456 10.1774 8.17204 9.94487 8.32954C9.65237 8.52454 9.56236 8.65206 9.56236 8.86206V9.01953C9.56236 9.33453 9.30736 9.58203 8.99986 9.58203Z" fill="#111111"/>
<path id="Vector_3" d="M9 11.4492C8.685 11.4492 8.4375 11.1942 8.4375 10.8867C8.4375 10.5792 8.6925 10.3242 9 10.3242C9.3075 10.3242 9.5625 10.5792 9.5625 10.8867C9.5625 11.1942 9.315 11.4492 9 11.4492Z" fill="#111111"/>
</g>
</g>
</svg>
