<svg width="18" height="19" viewBox="0 0 18 19" fill="none" xmlns="http://www.w3.org/2000/svg">
<g id="vuesax/outline/save-2">
<g id="save-2">
<path id="Vector" d="M2.47517 17.5623C2.20517 17.5623 1.94267 17.4949 1.71767 17.3599C1.21517 17.0674 0.930176 16.4823 0.930176 15.7548V7.23486C0.930176 5.63736 2.22766 4.33984 3.82516 4.33984H9.66019C11.2577 4.33984 12.5552 5.63736 12.5552 7.23486V15.7548C12.5552 16.4823 12.2702 17.0599 11.7677 17.3599C11.2652 17.6524 10.6202 17.6223 9.98268 17.2698L7.03519 15.6274C6.89269 15.5449 6.59266 15.5449 6.45016 15.6274L3.50267 17.2698C3.15767 17.4648 2.80517 17.5623 2.47517 17.5623ZM3.83267 5.47235C2.85767 5.47235 2.06268 6.26734 2.06268 7.24234V15.7624C2.06268 16.0699 2.15268 16.3098 2.29518 16.3923C2.43768 16.4748 2.69269 16.4373 2.96269 16.2873L5.91019 14.6448C6.39019 14.3823 7.11018 14.3823 7.59018 14.6448L10.5377 16.2873C10.8077 16.4373 11.0552 16.4748 11.2052 16.3923C11.3477 16.3098 11.4377 16.0699 11.4377 15.7624V7.24234C11.4377 6.26734 10.6427 5.47235 9.66769 5.47235H3.83267Z" fill="#111111"/>
<path id="Vector_2" d="M11.0175 17.563C10.6875 17.563 10.3425 17.4655 9.99001 17.278L7.04251 15.6355C6.90001 15.5605 6.59248 15.5605 6.44998 15.6355L3.50999 17.278C2.87249 17.6305 2.21999 17.6605 1.72499 17.368C1.22249 17.0755 0.9375 16.4904 0.9375 15.7704V7.25046C0.9375 5.65296 2.23499 4.35547 3.83249 4.35547H9.66751C11.265 4.35547 12.5625 5.65296 12.5625 7.25046V15.7704C12.5625 16.4904 12.2775 17.0755 11.775 17.368C11.55 17.4955 11.295 17.563 11.0175 17.563ZM6.75 14.4505C7.05 14.4505 7.3425 14.518 7.59 14.653L10.5375 16.2955C10.8075 16.4455 11.0625 16.483 11.205 16.393C11.3475 16.3105 11.4375 16.0705 11.4375 15.763V7.24295C11.4375 6.26795 10.6425 5.47296 9.66751 5.47296H3.83249C2.85749 5.47296 2.0625 6.26795 2.0625 7.24295V15.763C2.0625 16.0705 2.1525 16.3105 2.295 16.393C2.4375 16.4755 2.69251 16.4379 2.96251 16.2879L5.91 14.6454C6.15 14.5179 6.45 14.4505 6.75 14.4505Z" fill="#111111"/>
<path id="Vector_3" d="M15.5175 14.6528C15.1875 14.6528 14.8425 14.5553 14.49 14.3678L11.7225 12.8228C11.5425 12.7253 11.4375 12.5378 11.4375 12.3353V7.25031C11.4375 6.27531 10.6425 5.48032 9.66751 5.48032H6C5.6925 5.48032 5.4375 5.22532 5.4375 4.91782V4.3403C5.4375 2.7428 6.73499 1.44531 8.33249 1.44531H14.1675C15.765 1.44531 17.0625 2.7428 17.0625 4.3403V12.8603C17.0625 13.5803 16.7775 14.1653 16.275 14.4578C16.05 14.5853 15.795 14.6528 15.5175 14.6528ZM12.5625 11.9978L15.0375 13.3853C15.3075 13.5353 15.555 13.5728 15.705 13.4828C15.855 13.3928 15.9375 13.1603 15.9375 12.8528V4.33279C15.9375 3.35779 15.1425 2.56281 14.1675 2.56281H8.33249C7.35749 2.56281 6.5625 3.35779 6.5625 4.33279V4.34781H9.66751C11.265 4.34781 12.5625 5.6453 12.5625 7.2428V11.9978Z" fill="#111111"/>
</g>
</g>
</svg>
