<svg width="25" height="26" viewBox="0 0 25 26" fill="none" xmlns="http://www.w3.org/2000/svg">
<g id="vuesax/bold/user-cirlce-add">
<g id="user-cirlce-add">
<path id="Vector" d="M22.8854 2.50846C22.1354 1.6543 21.0208 1.12305 19.7917 1.12305C18.625 1.12305 17.5625 1.60221 16.8021 2.38346C16.3646 2.83138 16.0312 3.37305 15.8333 3.97721C15.6979 4.39388 15.625 4.83138 15.625 5.28971C15.625 6.07096 15.8437 6.81055 16.2292 7.43555C16.4375 7.78971 16.7083 8.11263 17.0208 8.38346C17.75 9.05013 18.7188 9.45638 19.7917 9.45638C20.25 9.45638 20.6875 9.38346 21.0938 9.23763C22.0521 8.93555 22.8542 8.2793 23.3542 7.43555C23.5729 7.08138 23.7396 6.67513 23.8333 6.25846C23.9167 5.94596 23.9583 5.62305 23.9583 5.28971C23.9583 4.22721 23.5521 3.24805 22.8854 2.50846ZM21.3438 6.05013H20.5729V6.86263C20.5729 7.28971 20.2188 7.64388 19.7917 7.64388C19.3646 7.64388 19.0104 7.28971 19.0104 6.86263V6.05013H18.2396C17.8125 6.05013 17.4583 5.69596 17.4583 5.26888C17.4583 4.8418 17.8125 4.48763 18.2396 4.48763H19.0104V3.74805C19.0104 3.32096 19.3646 2.9668 19.7917 2.9668C20.2188 2.9668 20.5729 3.32096 20.5729 3.74805V4.48763H21.3438C21.7708 4.48763 22.125 4.8418 22.125 5.26888C22.125 5.69596 21.7812 6.05013 21.3438 6.05013Z" fill="white"/>
<path id="Vector_2" d="M22.9168 12.5827C22.9168 11.2181 22.6564 9.9056 22.1668 8.70768C21.8439 8.93685 21.4793 9.11393 21.0939 9.23893C20.9793 9.2806 20.8647 9.31185 20.7397 9.3431C21.1356 10.3431 21.3543 11.4368 21.3543 12.5827C21.3543 14.9993 20.3752 17.1973 18.7918 18.8014C18.4897 18.416 18.1043 18.0618 17.646 17.7598C14.8231 15.8639 10.1981 15.8639 7.35433 17.7598C6.896 18.0618 6.521 18.416 6.2085 18.8014C4.62516 17.1973 3.646 14.9993 3.646 12.5827C3.646 7.69727 7.61475 3.72852 12.5002 3.72852C13.6356 3.72852 14.7293 3.94727 15.7293 4.3431C15.7606 4.2181 15.7918 4.10352 15.8335 3.97852C15.9585 3.5931 16.1356 3.23893 16.3752 2.91602C15.1772 2.42643 13.8647 2.16602 12.5002 2.16602C6.76058 2.16602 2.0835 6.8431 2.0835 12.5827C2.0835 15.6035 3.38558 18.3223 5.44808 20.2285C5.44808 20.2389 5.44808 20.2389 5.43766 20.2493C5.54183 20.3535 5.66683 20.4368 5.771 20.5306C5.8335 20.5827 5.88558 20.6348 5.94808 20.6764C6.13558 20.8327 6.34391 20.9785 6.54183 21.1243C6.61475 21.1764 6.67725 21.2181 6.75016 21.2702C6.94808 21.4056 7.15641 21.5306 7.37516 21.6452C7.44808 21.6868 7.53141 21.7389 7.60433 21.7806C7.81266 21.8952 8.03141 21.9993 8.26058 22.0931C8.34391 22.1348 8.42725 22.1764 8.51058 22.2077C8.73975 22.3014 8.96891 22.3848 9.19808 22.4577C9.28141 22.4889 9.36475 22.5202 9.44808 22.541C9.69808 22.6139 9.94808 22.6764 10.1981 22.7389C10.271 22.7598 10.3439 22.7806 10.4272 22.791C10.7189 22.8535 11.0106 22.8952 11.3127 22.9264C11.3543 22.9264 11.396 22.9368 11.4377 22.9473C11.7918 22.9785 12.146 22.9993 12.5002 22.9993C12.8543 22.9993 13.2085 22.9785 13.5522 22.9473C13.5939 22.9473 13.6356 22.9368 13.6772 22.9264C13.9793 22.8952 14.271 22.8535 14.5627 22.791C14.6356 22.7806 14.7085 22.7493 14.7918 22.7389C15.0418 22.6764 15.3022 22.6243 15.5418 22.541C15.6252 22.5098 15.7085 22.4785 15.7918 22.4577C16.021 22.3743 16.2606 22.3014 16.4793 22.2077C16.5627 22.1764 16.646 22.1348 16.7293 22.0931C16.9481 21.9993 17.1668 21.8952 17.3856 21.7806C17.4689 21.7389 17.5418 21.6868 17.6147 21.6452C17.8231 21.5202 18.0314 21.4056 18.2397 21.2702C18.3127 21.2285 18.3752 21.1764 18.4481 21.1243C18.6564 20.9785 18.8543 20.8327 19.0418 20.6764C19.1043 20.6243 19.1564 20.5723 19.2189 20.5306C19.3335 20.4368 19.4481 20.3431 19.5522 20.2493C19.5522 20.2389 19.5522 20.2389 19.5418 20.2285C21.6147 18.3223 22.9168 15.6035 22.9168 12.5827Z" fill="white"/>
<path id="Vector_3" d="M12.5 7.30078C10.3438 7.30078 8.59375 9.05078 8.59375 11.207C8.59375 13.3216 10.25 15.0404 12.4479 15.1029C12.4792 15.1029 12.5208 15.1029 12.5417 15.1029C12.5625 15.1029 12.5937 15.1029 12.6146 15.1029C12.625 15.1029 12.6354 15.1029 12.6354 15.1029C14.7396 15.0299 16.3958 13.3216 16.4062 11.207C16.4062 9.05078 14.6562 7.30078 12.5 7.30078Z" fill="white"/>
</g>
</g>
</svg>
