<svg width="17" height="17" viewBox="0 0 17 17" fill="none" xmlns="http://www.w3.org/2000/svg">
<path id="Vector" d="M2.60367 0.852865C2.60367 0.714731 2.65854 0.582255 2.75622 0.48458C2.85389 0.386905 2.98637 0.332031 3.1245 0.332031L13.5412 0.332031C13.6793 0.332031 13.8118 0.386905 13.9095 0.48458C14.0071 0.582255 14.062 0.714731 14.062 0.852865C14.062 1.41328 14.0495 1.94661 14.0266 2.45286C14.4382 2.52102 14.832 2.67091 15.1847 2.89368C15.5375 3.11645 15.842 3.4076 16.0805 3.74996C16.3189 4.09231 16.4863 4.47895 16.573 4.88706C16.6596 5.29517 16.6636 5.71649 16.5848 6.12618C16.506 6.53587 16.3459 6.92564 16.1141 7.27249C15.8823 7.61934 15.5833 7.91625 15.2349 8.14572C14.8865 8.37519 14.4956 8.53257 14.0854 8.60858C13.6752 8.68459 13.2539 8.67769 12.8464 8.58828C12.0235 10.531 10.8901 11.481 9.89533 11.7247V13.9883L11.3797 14.3591C11.5818 14.4091 11.7724 14.4997 11.9391 14.6247L13.8537 16.0612C13.9411 16.1268 14.0057 16.2182 14.0383 16.3226C14.0709 16.4269 14.0698 16.5389 14.0353 16.6426C14.0007 16.7463 13.9344 16.8365 13.8457 16.9004C13.757 16.9643 13.6505 16.9987 13.5412 16.9987H3.1245C3.01519 16.9987 2.90864 16.9643 2.81996 16.9004C2.73128 16.8365 2.66496 16.7463 2.63039 16.6426C2.59583 16.5389 2.59476 16.4269 2.62736 16.3226C2.65995 16.2182 2.72455 16.1268 2.812 16.0612L4.72658 14.6247C4.89325 14.4997 5.08387 14.4091 5.28596 14.3591L6.77033 13.9883V11.7247C5.77554 11.481 4.64221 10.531 3.81929 8.58724C3.41157 8.67713 2.98997 8.68441 2.57939 8.60864C2.16881 8.53287 1.77757 8.3756 1.42878 8.14611C1.08 7.91661 0.780738 7.61956 0.548673 7.27248C0.316609 6.9254 0.156447 6.53534 0.0776474 6.12533C-0.00115254 5.71532 0.00300707 5.29367 0.0898805 4.8853C0.176754 4.47692 0.34458 4.09009 0.583446 3.74766C0.822313 3.40523 1.12738 3.11413 1.48062 2.89157C1.83387 2.669 2.22813 2.51947 2.64013 2.45182C2.6156 1.91919 2.60345 1.38606 2.60367 0.852865ZM2.70679 3.4987C2.16324 3.59815 1.68145 3.90946 1.36743 4.36414C1.0534 4.81882 0.932856 5.37962 1.03231 5.92318C1.13177 6.46673 1.44308 6.94852 1.89776 7.26254C2.35243 7.57657 2.91324 7.69711 3.45679 7.59766C3.10992 6.50391 2.84429 5.15391 2.70679 3.4987ZM13.2099 7.59766C13.7535 7.69711 14.3143 7.57657 14.769 7.26254C15.2236 6.94852 15.5349 6.46673 15.6344 5.92318C15.7339 5.37962 15.6133 4.81882 15.2993 4.36414C14.9853 3.90946 14.5035 3.59815 13.9599 3.4987C13.8214 5.15495 13.5557 6.50391 13.2099 7.59766Z" fill="#FFAA04"/>
</svg>
