<svg width="61" height="61" viewBox="0 0 61 61" fill="none" xmlns="http://www.w3.org/2000/svg">
<g id="vuesax/bold/award">
<path id="Vector" d="M45.0246 14.225V16.075L36.1746 10.95C32.8246 9.025 28.1496 9.025 24.8246 10.95L15.9746 16.1V14.225C15.9746 8.6 19.0496 5.5 24.6746 5.5H36.3246C41.9496 5.5 45.0246 8.6 45.0246 14.225Z" fill="url(#paint0_linear_3304_22181)"/>
<path id="Vector_2" d="M45.1 20.4266L44.75 20.2516L41.35 18.3016L34.3 14.2266C32.15 12.9766 28.85 12.9766 26.7 14.2266L19.65 18.2766L16.25 20.2766L15.8 20.5016C11.425 23.4516 11.125 24.0016 11.125 28.7266V40.0266C11.125 44.7516 11.425 45.3016 15.9 48.3266L26.7 54.5516C27.775 55.2016 29.125 55.4766 30.5 55.4766C31.85 55.4766 33.225 55.1766 34.3 54.5516L45.2 48.2516C49.6 45.3016 49.875 44.7766 49.875 40.0266V28.7266C49.875 24.0016 49.575 23.4516 45.1 20.4266ZM37.475 34.2516L35.95 36.1266C35.7 36.4016 35.525 36.9266 35.55 37.3016L35.7 39.7016C35.8 41.1766 34.75 41.9266 33.375 41.4016L31.15 40.5016C30.8 40.3766 30.225 40.3766 29.875 40.5016L27.65 41.3766C26.275 41.9266 25.225 41.1516 25.325 39.6766L25.475 37.2766C25.5 36.9016 25.325 36.3766 25.075 36.1016L23.525 34.2516C22.575 33.1266 23 31.8766 24.425 31.5016L26.75 30.9016C27.125 30.8016 27.55 30.4516 27.75 30.1516L29.05 28.1516C29.85 26.9016 31.125 26.9016 31.95 28.1516L33.25 30.1516C33.45 30.4766 33.9 30.8016 34.25 30.9016L36.575 31.5016C38 31.8766 38.425 33.1266 37.475 34.2516Z" fill="url(#paint1_linear_3304_22181)"/>
</g>
<defs>
<linearGradient id="paint0_linear_3304_22181" x1="30.4996" y1="5.5" x2="30.4996" y2="16.1" gradientUnits="userSpaceOnUse">
<stop stop-color="#FFF1A9"/>
<stop offset="0.213582" stop-color="#FCAF07"/>
<stop offset="0.619832" stop-color="#FCAF07"/>
<stop offset="0.817749" stop-color="#FFF0AA"/>
<stop offset="1" stop-color="#FFAF00"/>
</linearGradient>
<linearGradient id="paint1_linear_3304_22181" x1="30.5" y1="13.2891" x2="30.5" y2="55.4766" gradientUnits="userSpaceOnUse">
<stop stop-color="#FFF1A9"/>
<stop offset="0.213582" stop-color="#FCAF07"/>
<stop offset="0.619832" stop-color="#FCAF07"/>
<stop offset="0.817749" stop-color="#FFF0AA"/>
<stop offset="1" stop-color="#FFAF00"/>
</linearGradient>
</defs>
</svg>
