<svg width="56" height="57" viewBox="0 0 56 57" fill="none" xmlns="http://www.w3.org/2000/svg">
<g id="vuesax/bold/chart">
<g id="chart">
<path id="Vector" d="M28.0003 5.28516C15.1203 5.28516 4.66699 15.7385 4.66699 28.6185C4.66699 41.4985 15.1203 51.9518 28.0003 51.9518C40.8803 51.9518 51.3337 41.4985 51.3337 28.6185C51.3337 15.7385 40.8803 5.28516 28.0003 5.28516ZM28.0003 21.0352C27.0437 21.0352 26.2503 20.2418 26.2503 19.2852C26.2503 18.3285 27.0437 17.5352 28.0003 17.5352C34.1137 17.5352 39.0837 22.5052 39.0837 28.6185C39.0837 34.7318 34.1137 39.7018 28.0003 39.7018C27.0437 39.7018 26.2503 38.9085 26.2503 37.9518C26.2503 36.9952 27.0437 36.2018 28.0003 36.2018C32.177 36.2018 35.5837 32.7952 35.5837 28.6185C35.5837 24.4418 32.177 21.0352 28.0003 21.0352ZM28.0003 46.7018C18.037 46.7018 9.91699 38.5818 9.91699 28.6185C9.91699 27.6618 10.7103 26.8685 11.667 26.8685C12.6237 26.8685 13.417 27.6618 13.417 28.6185C13.417 36.6685 19.9503 43.2018 28.0003 43.2018C36.0503 43.2018 42.5837 36.6685 42.5837 28.6185C42.5837 20.5685 36.0503 14.0352 28.0003 14.0352C27.0437 14.0352 26.2503 13.2418 26.2503 12.2852C26.2503 11.3285 27.0437 10.5352 28.0003 10.5352C37.9637 10.5352 46.0837 18.6552 46.0837 28.6185C46.0837 38.5818 37.9637 46.7018 28.0003 46.7018Z" fill="url(#paint0_linear_3633_7692)"/>
</g>
</g>
<defs>
<linearGradient id="paint0_linear_3633_7692" x1="28.0003" y1="5.28516" x2="28.0003" y2="51.9518" gradientUnits="userSpaceOnUse">
<stop stop-color="#FD9841"/>
<stop offset="0.213582" stop-color="#FBBC05"/>
<stop offset="0.666707" stop-color="#A20C0B"/>
<stop offset="0.963582" stop-color="#AE0C0C"/>
</linearGradient>
</defs>
</svg>
