<svg width="56" height="56" viewBox="0 0 56 56" fill="none" xmlns="http://www.w3.org/2000/svg">
<g id="vuesax/bold/clipboard-text">
<g id="clipboard-text">
<path id="Vector" d="M33.4841 4.66797H22.5174C20.0908 4.66797 18.1074 6.62797 18.1074 9.05464V11.248C18.1074 13.6746 20.0674 15.6346 22.4941 15.6346H33.4841C35.9108 15.6346 37.8708 13.6746 37.8708 11.248V9.05464C37.8941 6.62797 35.9108 4.66797 33.4841 4.66797Z" fill="url(#paint0_linear_3353_15229)"/>
<path id="Vector_2" d="M40.2258 11.2481C40.2258 14.9581 37.1925 17.9914 33.4825 17.9914H22.5158C18.8058 17.9914 15.7724 14.9581 15.7724 11.2481C15.7724 9.94142 14.3724 9.12475 13.2058 9.73142C9.91578 11.4814 7.67578 14.9581 7.67578 18.9481V40.9048C7.67578 46.6448 12.3658 51.3347 18.1058 51.3347H37.8925C43.6325 51.3347 48.3224 46.6448 48.3224 40.9048V18.9481C48.3224 14.9581 46.0825 11.4814 42.7924 9.73142C41.6258 9.12475 40.2258 9.94142 40.2258 11.2481ZM28.8858 39.5514H18.6658C17.7091 39.5514 16.9158 38.7581 16.9158 37.8014C16.9158 36.8448 17.7091 36.0514 18.6658 36.0514H28.8858C29.8424 36.0514 30.6358 36.8448 30.6358 37.8014C30.6358 38.7581 29.8424 39.5514 28.8858 39.5514ZM34.9991 30.2181H18.6658C17.7091 30.2181 16.9158 29.4247 16.9158 28.4681C16.9158 27.5114 17.7091 26.7181 18.6658 26.7181H34.9991C35.9558 26.7181 36.7491 27.5114 36.7491 28.4681C36.7491 29.4247 35.9558 30.2181 34.9991 30.2181Z" fill="url(#paint1_linear_3353_15229)"/>
</g>
</g>
<defs>
<linearGradient id="paint0_linear_3353_15229" x1="27.9892" y1="4.66797" x2="27.9892" y2="15.6346" gradientUnits="userSpaceOnUse">
<stop stop-color="#292D32"/>
<stop offset="0.526082" stop-color="#292D32" stop-opacity="0.44"/>
<stop offset="0.979207" stop-color="#292D32"/>
</linearGradient>
<linearGradient id="paint1_linear_3353_15229" x1="27.9991" y1="9.52734" x2="27.9991" y2="51.3347" gradientUnits="userSpaceOnUse">
<stop stop-color="#292D32"/>
<stop offset="0.526082" stop-color="#292D32" stop-opacity="0.44"/>
<stop offset="0.979207" stop-color="#292D32"/>
</linearGradient>
</defs>
</svg>
