<svg width="56" height="56" viewBox="0 0 56 56" fill="none" xmlns="http://www.w3.org/2000/svg">
<g id="vuesax/bold/enjin-coin-(enj)">
<g id="enjin-coin-(enj)">
<path id="Vector" d="M27.9993 4.66797C15.1193 4.66797 4.66602 15.1213 4.66602 28.0013C4.66602 40.8813 15.1193 51.3346 27.9993 51.3346C40.8793 51.3346 51.3327 40.8813 51.3327 28.0013C51.3327 15.1213 40.8793 4.66797 27.9993 4.66797ZM36.7493 26.2513C37.706 26.2513 38.4993 27.0446 38.4993 28.0013C38.4993 28.958 37.706 29.7513 36.7493 29.7513H19.8327V30.3346C19.8327 33.228 22.1893 35.5846 25.0827 35.5846H36.7493C37.706 35.5846 38.4993 36.378 38.4993 37.3346C38.4993 38.2913 37.706 39.0846 36.7493 39.0846H25.0827C20.2527 39.0846 16.3327 35.1646 16.3327 30.3346V25.668C16.3327 20.838 20.2527 16.918 25.0827 16.918H36.7493C37.706 16.918 38.4993 17.7113 38.4993 18.668C38.4993 19.6246 37.706 20.418 36.7493 20.418H25.0827C22.1893 20.418 19.8327 22.7746 19.8327 25.668V26.2513H36.7493Z" fill="url(#paint0_linear_3353_8625)"/>
</g>
</g>
<defs>
<linearGradient id="paint0_linear_3353_8625" x1="27.9993" y1="4.66797" x2="27.9993" y2="51.3346" gradientUnits="userSpaceOnUse">
<stop stop-color="#95ECFB"/>
<stop offset="0.132812" stop-color="#1935CA"/>
<stop offset="0.476562" stop-color="#70CCFF"/>
<stop offset="0.820312" stop-color="#1935CA"/>
<stop offset="1" stop-color="#70CCFF"/>
</linearGradient>
</defs>
</svg>
