<svg width="30" height="30" viewBox="0 0 30 30" fill="#1935CA" xmlns="http://www.w3.org/2000/svg">
<g id="vuesax/bold/lock">
<path id="Vector" d="M15.0004 21.6883C16.1257 21.6883 17.0379 20.7761 17.0379 19.6508C17.0379 18.5255 16.1257 17.6133 15.0004 17.6133C13.8751 17.6133 12.9629 18.5255 12.9629 19.6508C12.9629 20.7761 13.8751 21.6883 15.0004 21.6883Z" fill="#1935CA"/>
<path id="Vector_2" d="M22.85 11.9125V10.35C22.85 6.975 22.0375 2.5 15 2.5C7.9625 2.5 7.15 6.975 7.15 10.35V11.9125C3.65 12.35 2.5 14.125 2.5 18.4875V20.8125C2.5 25.9375 4.0625 27.5 9.1875 27.5H20.8125C25.9375 27.5 27.5 25.9375 27.5 20.8125V18.4875C27.5 14.125 26.35 12.35 22.85 11.9125ZM15 23.425C12.9125 23.425 11.225 21.725 11.225 19.65C11.225 17.5625 12.925 15.875 15 15.875C17.075 15.875 18.775 17.575 18.775 19.65C18.775 21.7375 17.0875 23.425 15 23.425ZM9.1875 11.8C9.0875 11.8 9 11.8 8.9 11.8V10.35C8.9 6.6875 9.9375 4.25 15 4.25C20.0625 4.25 21.1 6.6875 21.1 10.35V11.8125C21 11.8125 20.9125 11.8125 20.8125 11.8125H9.1875V11.8Z" fill="#1935CA" stroke="black"/>
</g>
</svg>
