<svg width="40" height="40" viewBox="0 0 40 40" fill="none" xmlns="http://www.w3.org/2000/svg">
<g id="Mask group">
<mask id="mask0_799_142335" style="mask-type:luminance" maskUnits="userSpaceOnUse" x="0" y="0" width="40" height="40">
<g id="Group">
<path id="Vector" d="M40 0H0V40H40V0Z" fill="white"/>
</g>
</mask>
<g mask="url(#mask0_799_142335)">
<g id="Group_2">
<g id="Group_3">
<path id="Vector_2" d="M19.9986 5.14062C15.5803 5.14062 11.9986 8.72234 11.9986 13.1406V14.0215C11.1879 14.1575 10.57 14.8626 10.57 15.7121V17.7121C10.57 18.5766 11.21 19.2918 12.0422 19.4093C12.3375 22.2388 14.1076 24.6295 16.57 25.7993V28.4263H15.9986C10.318 28.4263 5.71289 33.0315 5.71289 38.7121V39.9978H34.2843V38.7121C34.2843 33.0315 29.6792 28.4263 23.9986 28.4263H23.4272V25.7993C25.8896 24.6295 27.6597 22.2388 27.955 19.4093C28.7872 19.2918 29.4272 18.5766 29.4272 17.7121V15.7121C29.4272 14.8626 28.8093 14.1575 27.9986 14.0215V13.1406C27.9986 8.72234 24.4169 5.14062 19.9986 5.14062Z" fill="#FD9841"/>
<path id="Vector_3" d="M16.5703 25.8008V26.9436C17.6417 27.4521 18.813 27.7152 19.9989 27.7135C21.1848 27.7152 22.3561 27.4521 23.4275 26.9436V25.8008C22.3561 26.3093 21.1848 26.5723 19.9989 26.5706C18.813 26.5723 17.6417 26.3093 16.5703 25.8008Z" fill="black" fill-opacity="0.1"/>
</g>
<g id="Group_4">
<path id="Vector_4" d="M15.4806 28.4486C15.7492 28.0395 16.1205 27.6729 16.57 27.3672V29.5538C16.57 30.3856 17.1383 31.1218 18.0097 31.5706L17.9986 31.5795L18.1285 31.9888C18.6825 32.2736 19.32 32.4359 19.9986 32.4359C20.6772 32.4359 21.3147 32.2736 21.8687 31.9888L21.9986 31.5795L21.9875 31.5706C22.8589 31.1218 23.4272 30.3856 23.4272 29.5538V27.4683C23.8106 27.751 24.1305 28.0798 24.3696 28.4425C29.8785 28.6378 34.2843 33.1652 34.2843 38.7216V39.9999H5.71289V38.7216C5.71289 33.2146 10.0406 28.7183 15.4806 28.4486Z" fill="#E5E5E5"/>
<path id="Vector_5" d="M16.5695 27.3675C15.6028 28.0249 14.998 28.9629 14.998 30.004C14.998 31.0609 15.6212 32.0115 16.6135 32.6703L17.4868 31.9823L18.1409 32.0298L17.998 31.5796L18.0092 31.5708C17.1378 31.1219 16.5695 30.3858 16.5695 29.5539V27.3672V27.3675ZM23.4266 29.5539C23.4266 30.3858 22.8583 31.1219 21.9869 31.5708L21.998 31.5796L21.8552 32.0296L22.5093 31.9825L23.3165 32.6182C24.2642 31.9619 24.8552 31.0335 24.8552 30.0039C24.8552 29.0152 24.3098 28.1193 23.4266 27.4685V29.5539Z" fill="white" fill-opacity="0.75"/>
</g>
<g id="Group_5">
<path id="Vector_6" fill-rule="evenodd" clip-rule="evenodd" d="M17.3019 21.3007C17.453 22.6567 18.603 23.7109 19.9993 23.7109C21.3999 23.7109 22.5527 22.6501 22.6982 21.2881C22.7099 21.1785 22.5874 20.9967 22.4339 20.9967H17.5833C17.429 20.9967 17.2869 21.1649 17.3019 21.3007Z" fill="black" fill-opacity="0.7"/>
<path id="Vector_7" d="M22.2266 20.9978H17.7734C17.96 21.6573 18.5663 22.1406 19.2857 22.1406C19.5429 22.1406 19.7857 22.0788 20 21.9692C20.2143 22.0788 20.4572 22.1406 20.7143 22.1406C21.4336 22.1406 22.04 21.6573 22.2266 20.9978Z" fill="#FF4F6D"/>
<path id="Vector_8" d="M21.7943 23.0324C21.7239 23.0092 21.6486 22.9966 21.5704 22.9966H18.5704C18.4592 22.9965 18.3494 23.0224 18.25 23.0724C18.739 23.4856 19.3588 23.7119 19.999 23.7109C20.6873 23.7109 21.3159 23.4546 21.7943 23.0324Z" fill="white"/>
</g>
<g id="Group_6">
<path id="Vector_9" fill-rule="evenodd" clip-rule="evenodd" d="M18.2852 18.5703C18.2852 19.2015 19.0527 19.7132 19.9994 19.7132C20.9462 19.7132 21.7137 19.2015 21.7137 18.5703" fill="black" fill-opacity="0.16"/>
</g>
<g id="Group_7">
<path id="Vector_10" d="M18.2852 16C18.2852 17.1046 17.3897 18 16.2852 18C15.1806 18 14.2852 17.1046 14.2852 16C14.2852 14.8954 15.1806 14 16.2852 14C17.3897 14 18.2852 14.8954 18.2852 16ZM25.7137 16C25.7137 17.1046 24.8183 18 23.7137 18C22.6092 18 21.7137 17.1046 21.7137 16C21.7137 14.8954 22.6092 14 23.7137 14C24.8183 14 25.7137 14.8954 25.7137 16Z" fill="white"/>
<path id="Vector_11" d="M17.142 15.9978C17.142 16.2251 17.0517 16.4431 16.891 16.6039C16.7302 16.7646 16.5122 16.8549 16.2849 16.8549C16.0575 16.8549 15.8395 16.7646 15.6788 16.6039C15.518 16.4431 15.4277 16.2251 15.4277 15.9978C15.4277 15.7704 15.518 15.5524 15.6788 15.3917C15.8395 15.2309 16.0575 15.1406 16.2849 15.1406C16.5122 15.1406 16.7302 15.2309 16.891 15.3917C17.0517 15.5524 17.142 15.7704 17.142 15.9978ZM24.5706 15.9978C24.5706 16.2251 24.4803 16.4431 24.3195 16.6039C24.1588 16.7646 23.9408 16.8549 23.7134 16.8549C23.4861 16.8549 23.2681 16.7646 23.1074 16.6039C22.9466 16.4431 22.8563 16.2251 22.8563 15.9978C22.8563 15.7704 22.9466 15.5524 23.1074 15.3917C23.2681 15.2309 23.4861 15.1406 23.7134 15.1406C23.9408 15.1406 24.1588 15.2309 24.3195 15.3917C24.4803 15.5524 24.5706 15.7704 24.5706 15.9978Z" fill="black" fill-opacity="0.7"/>
</g>
<g id="Group_8">
<path id="Vector_12" fill-rule="evenodd" clip-rule="evenodd" d="M17.1943 12.6971C16.9129 13.1121 16.402 13.36 15.946 13.5091C15.3827 13.6934 13.2957 13.992 13.7872 15.1303C13.7887 15.1341 13.7914 15.1374 13.7948 15.1398C13.7983 15.1421 13.8023 15.1434 13.8065 15.1434C13.8107 15.1435 13.8147 15.1423 13.8182 15.14C13.8217 15.1377 13.8244 15.1344 13.826 15.1306C13.9907 14.7527 16.321 14.3987 16.5365 14.3157C17.1715 14.0716 17.7355 13.5314 17.8453 12.8096C17.8956 12.4786 17.7543 11.9454 17.6242 11.731C17.6085 11.7053 17.5707 11.7116 17.5627 11.7408C17.5113 11.931 17.3615 12.451 17.1943 12.6971ZM22.8029 12.6971C23.0843 13.1121 23.5952 13.36 24.0512 13.5091C24.6144 13.6934 26.7013 13.9918 26.21 15.1303C26.2085 15.1341 26.2058 15.1374 26.2024 15.1398C26.1989 15.1421 26.1949 15.1434 26.1907 15.1434C26.1865 15.1435 26.1824 15.1423 26.179 15.14C26.1755 15.1377 26.1728 15.1344 26.1712 15.1306C26.0065 14.7527 23.6762 14.3987 23.4607 14.3157C22.8257 14.0716 22.2617 13.5314 22.1519 12.8096C22.1016 12.4786 22.2429 11.9454 22.373 11.731C22.3887 11.7053 22.4265 11.7116 22.4345 11.7408C22.4859 11.931 22.6357 12.451 22.8029 12.6971Z" fill="black" fill-opacity="0.6"/>
</g>
<g id="Group_9">
<path id="Vector_13" d="M27.9015 19.8227C33.5553 18.4647 37.4275 15.6953 37.4275 12.4994C37.4275 9.14158 33.1526 6.2543 27.028 4.98058L26.9832 4.77601C26.4085 2.15373 24.0859 0.285156 21.4015 0.285156H18.7392C16.0547 0.285156 13.7322 2.15373 13.1575 4.77601L13.1193 4.94987C6.91488 6.20744 2.57031 9.1143 2.57031 12.4994C2.57031 15.6953 6.44246 18.4647 12.0963 19.8227C12.0673 19.638 12.0448 19.4524 12.0287 19.2662C11.2032 19.1426 10.5703 18.4307 10.5703 17.5709V15.7137C10.5703 14.8643 11.1882 14.1592 11.9989 14.0232V13.1423C11.9974 12.0351 12.2266 10.9398 12.6717 9.92601C13.9007 7.68558 25.9182 7.57087 27.3363 9.9493C27.7748 10.9566 28.0003 12.0437 27.9989 13.1423V14.0232C28.8096 14.1592 29.4275 14.8643 29.4275 15.7137V17.5709C29.4275 18.4307 28.7945 19.1426 27.969 19.2662C27.953 19.4524 27.9305 19.638 27.9015 19.8227Z" fill="#B1E2FF"/>
<path id="Vector_14" d="M27.9997 13.2468C28.5493 12.7818 28.8569 12.2615 28.8569 11.7121C28.8569 10.8436 28.0883 10.0478 26.8104 9.42862C27.0456 9.58605 27.2247 9.75905 27.3372 9.94763C27.7756 10.955 28.0012 12.042 27.9997 13.1406V13.2468ZM23.4659 8.42448C22.4013 8.24162 21.2299 8.14062 19.9997 8.14062C18.7167 8.14062 17.4974 8.25062 16.3967 8.44848C18.5632 8.13348 21.2703 8.11948 23.4659 8.42448ZM13.0977 9.47363C11.8746 10.0861 11.1426 10.8646 11.1426 11.7121C11.1426 12.2615 11.4501 12.7818 11.9997 13.2468V13.1406C11.9982 12.0334 12.2274 10.9381 12.6726 9.92434C12.7611 9.76291 12.9054 9.61277 13.0977 9.47363Z" fill="black" fill-opacity="0.5"/>
</g>
</g>
</g>
</g>
</svg>
