<svg width="61" height="61" viewBox="0 0 61 61" fill="none" xmlns="http://www.w3.org/2000/svg">
<g id="vuesax/bold/medal-star">
<g id="medal-star">
<path id="Vector" d="M53.6246 46.6753L49.4996 47.6503C48.5746 47.8753 47.8496 48.5753 47.6496 49.5003L46.7746 53.1753C46.2996 55.1753 43.7496 55.8003 42.4246 54.2253L34.9496 45.6253C34.3496 44.9253 34.6746 43.8253 35.5746 43.6003C39.9996 42.5253 43.9746 40.0503 46.8996 36.5253C47.3746 35.9503 48.2246 35.8753 48.7496 36.4003L54.2996 41.9503C56.1996 43.8503 55.5246 46.2253 53.6246 46.6753Z" fill="url(#paint0_linear_3304_11135)"/>
<path id="Vector_2" d="M7.24992 46.6753L11.3749 47.6503C12.2999 47.8753 13.0249 48.5753 13.2249 49.5003L14.0999 53.1753C14.5749 55.1753 17.1249 55.8003 18.4499 54.2253L25.9249 45.6253C26.5249 44.9253 26.1999 43.8253 25.2999 43.6003C20.8749 42.5253 16.8999 40.0503 13.9749 36.5253C13.4999 35.9503 12.6499 35.8753 12.1249 36.4003L6.57492 41.9503C4.67492 43.8503 5.34992 46.2253 7.24992 46.6753Z" fill="url(#paint1_linear_3304_11135)"/>
<path id="Vector_3" d="M30.5 5.5C20.825 5.5 13 13.325 13 23C13 26.625 14.075 29.95 15.925 32.725C18.625 36.725 22.9 39.55 27.875 40.275C28.725 40.425 29.6 40.5 30.5 40.5C31.4 40.5 32.275 40.425 33.125 40.275C38.1 39.55 42.375 36.725 45.075 32.725C46.925 29.95 48 26.625 48 23C48 13.325 40.175 5.5 30.5 5.5ZM38.15 22.45L36.075 24.525C35.725 24.875 35.525 25.55 35.65 26.05L36.25 28.625C36.725 30.65 35.65 31.45 33.85 30.375L31.35 28.9C30.9 28.625 30.15 28.625 29.7 28.9L27.2 30.375C25.4 31.425 24.325 30.65 24.8 28.625L25.4 26.05C25.5 25.575 25.325 24.875 24.975 24.525L22.85 22.45C21.625 21.225 22.025 20 23.725 19.725L26.4 19.275C26.85 19.2 27.375 18.8 27.575 18.4L29.05 15.45C29.85 13.85 31.15 13.85 31.95 15.45L33.425 18.4C33.625 18.8 34.15 19.2 34.625 19.275L37.3 19.725C38.975 20 39.375 21.225 38.15 22.45Z" fill="url(#paint2_linear_3304_11135)"/>
</g>
</g>
<defs>
<linearGradient id="paint0_linear_3304_11135" x1="45.0379" y1="36.0469" x2="45.0379" y2="55.1132" gradientUnits="userSpaceOnUse">
<stop stop-color="#34A853"/>
<stop offset="1" stop-color="#18DF4D"/>
</linearGradient>
<linearGradient id="paint1_linear_3304_11135" x1="15.8367" y1="36.0469" x2="15.8367" y2="55.1132" gradientUnits="userSpaceOnUse">
<stop stop-color="#34A853"/>
<stop offset="1" stop-color="#18DF4D"/>
</linearGradient>
<linearGradient id="paint2_linear_3304_11135" x1="30.5" y1="5.5" x2="30.5" y2="40.5" gradientUnits="userSpaceOnUse">
<stop stop-color="#34A853"/>
<stop offset="1" stop-color="#18DF4D"/>
</linearGradient>
</defs>
</svg>
