<svg width="60" height="61" viewBox="0 0 60 61" fill="none" xmlns="http://www.w3.org/2000/svg">
<g id="vuesax/bold/ranking">
<g id="ranking">
<path id="Vector" d="M33.249 20.7758L36.549 27.3758C36.999 28.2758 38.199 29.1758 39.199 29.3258L45.174 30.3258C48.999 30.9758 49.899 33.7258 47.149 36.4758L42.499 41.1508C41.724 41.9258 41.274 43.4508 41.524 44.5508L42.849 50.3258C43.899 54.8758 41.474 56.6508 37.449 54.2758L31.849 50.9508C30.824 50.3508 29.174 50.3508 28.149 50.9508L22.524 54.2508C18.499 56.6258 16.074 54.8508 17.124 50.3008L18.449 44.5258C18.699 43.4508 18.249 41.9258 17.474 41.1258L12.849 36.5008C10.099 33.7508 10.999 30.9758 14.824 30.3508L20.799 29.3508C21.799 29.1758 22.999 28.3008 23.449 27.4008L26.749 20.8008C28.524 17.2008 31.474 17.2008 33.249 20.7758Z" fill="url(#paint0_linear_799_142376)"/>
<path id="Vector_2" d="M15 24.875C13.975 24.875 13.125 24.025 13.125 23V5.5C13.125 4.475 13.975 3.625 15 3.625C16.025 3.625 16.875 4.475 16.875 5.5V23C16.875 24.025 16.025 24.875 15 24.875Z" fill="url(#paint1_linear_799_142376)"/>
<path id="Vector_3" d="M45 24.875C43.975 24.875 43.125 24.025 43.125 23V5.5C43.125 4.475 43.975 3.625 45 3.625C46.025 3.625 46.875 4.475 46.875 5.5V23C46.875 24.025 46.025 24.875 45 24.875Z" fill="url(#paint2_linear_799_142376)"/>
<path id="Vector_4" d="M30 12.375C28.975 12.375 28.125 11.525 28.125 10.5V5.5C28.125 4.475 28.975 3.625 30 3.625C31.025 3.625 31.875 4.475 31.875 5.5V10.5C31.875 11.525 31.025 12.375 30 12.375Z" fill="url(#paint3_linear_799_142376)"/>
</g>
</g>
<defs>
<linearGradient id="paint0_linear_799_142376" x1="29.999" y1="18.0977" x2="29.999" y2="55.3299" gradientUnits="userSpaceOnUse">
<stop stop-color="#7622B2"/>
<stop offset="1" stop-color="#75A4FE"/>
</linearGradient>
<linearGradient id="paint1_linear_799_142376" x1="15" y1="3.625" x2="15" y2="24.875" gradientUnits="userSpaceOnUse">
<stop stop-color="#7622B2"/>
<stop offset="1" stop-color="#75A4FE"/>
</linearGradient>
<linearGradient id="paint2_linear_799_142376" x1="45" y1="3.625" x2="45" y2="24.875" gradientUnits="userSpaceOnUse">
<stop stop-color="#7622B2"/>
<stop offset="1" stop-color="#75A4FE"/>
</linearGradient>
<linearGradient id="paint3_linear_799_142376" x1="30" y1="3.625" x2="30" y2="12.375" gradientUnits="userSpaceOnUse">
<stop stop-color="#7622B2"/>
<stop offset="1" stop-color="#75A4FE"/>
</linearGradient>
</defs>
</svg>
