<svg width="56" height="56" viewBox="0 0 56 56" fill="none" xmlns="http://www.w3.org/2000/svg">
<g id="vuesax/bold/status-up">
<g id="status-up">
<path id="Vector" d="M37.776 4.66797H18.2227C9.72935 4.66797 4.66602 9.7313 4.66602 18.2246V37.7546C4.66602 46.2713 9.72935 51.3346 18.2227 51.3346H37.7527C46.246 51.3346 51.3093 46.2713 51.3093 37.778V18.2246C51.3327 9.7313 46.2693 4.66797 37.776 4.66797ZM17.8027 42.3513C17.8027 43.308 17.0093 44.1013 16.0527 44.1013C15.096 44.1013 14.3027 43.308 14.3027 42.3513V37.5213C14.3027 36.5646 15.096 35.7713 16.0527 35.7713C17.0093 35.7713 17.8027 36.5646 17.8027 37.5213V42.3513ZM29.7493 42.3513C29.7493 43.308 28.956 44.1013 27.9993 44.1013C27.0427 44.1013 26.2493 43.308 26.2493 42.3513V32.668C26.2493 31.7113 27.0427 30.918 27.9993 30.918C28.956 30.918 29.7493 31.7113 29.7493 32.668V42.3513ZM41.696 42.3513C41.696 43.308 40.9027 44.1013 39.946 44.1013C38.9893 44.1013 38.196 43.308 38.196 42.3513V27.838C38.196 26.8813 38.9893 26.088 39.946 26.088C40.9027 26.088 41.696 26.8813 41.696 27.838V42.3513ZM41.696 20.4646C41.696 21.4213 40.9027 22.2146 39.946 22.2146C38.9893 22.2146 38.196 21.4213 38.196 20.4646V18.2013C32.246 24.3146 24.8027 28.6313 16.4727 30.708C16.3327 30.7546 16.1927 30.7546 16.0527 30.7546C15.2593 30.7546 14.5593 30.218 14.3493 29.4246C14.116 28.4913 14.676 27.5346 15.6327 27.3013C23.496 25.3413 30.496 21.2113 36.0493 15.378H33.1327C32.176 15.378 31.3827 14.5846 31.3827 13.628C31.3827 12.6713 32.176 11.878 33.1327 11.878H39.9693C40.0627 11.878 40.1327 11.9246 40.226 11.9246C40.3427 11.948 40.4593 11.948 40.576 11.9946C40.6927 12.0413 40.786 12.1113 40.9027 12.1813C40.9727 12.228 41.0427 12.2513 41.1127 12.298C41.136 12.3213 41.136 12.3446 41.1593 12.3446C41.2527 12.438 41.3227 12.5313 41.3927 12.6246C41.4627 12.718 41.5327 12.788 41.556 12.8813C41.6027 12.9746 41.6027 13.068 41.626 13.1846C41.6493 13.3013 41.696 13.418 41.696 13.558C41.696 13.5813 41.7193 13.6046 41.7193 13.628V20.4646H41.696Z" fill="url(#paint0_linear_3353_8607)"/>
</g>
</g>
<defs>
<linearGradient id="paint0_linear_3353_8607" x1="27.9877" y1="4.66797" x2="27.9877" y2="51.3346" gradientUnits="userSpaceOnUse">
<stop stop-color="#1D19CA"/>
<stop offset="0.333374" stop-color="#1935CA" stop-opacity="0.42"/>
<stop offset="0.979207" stop-color="#4719CA"/>
</linearGradient>
</defs>
</svg>
