<svg width="160" height="160" viewBox="0 0 160 160" fill="none" xmlns="http://www.w3.org/2000/svg">
<g id="vuesax/bold/award">
<path id="Vector" d="M118.734 36.6002V41.5335L95.1342 27.8668C86.2009 22.7335 73.7342 22.7335 64.8676 27.8668L41.2676 41.6002V36.6002C41.2676 21.6002 49.4676 13.3335 64.4676 13.3335H95.5342C110.534 13.3335 118.734 21.6002 118.734 36.6002Z" fill="url(#paint0_linear_3420_27611)"/>
<path id="Vector_2" d="M118.934 53.1334L118.001 52.6668L108.934 47.4668L90.134 36.6001C84.4007 33.2668 75.6007 33.2668 69.8673 36.6001L51.0673 47.4001L42.0007 52.7334L40.8007 53.3334C29.134 61.2001 28.334 62.6668 28.334 75.2668V105.4C28.334 118 29.134 119.467 41.0673 127.533L69.8673 144.133C72.734 145.867 76.334 146.6 80.0007 146.6C83.6007 146.6 87.2673 145.8 90.134 144.133L119.201 127.333C130.934 119.467 131.667 118.067 131.667 105.4V75.2668C131.667 62.6668 130.867 61.2001 118.934 53.1334ZM98.6007 90.0001L94.534 95.0001C93.8673 95.7334 93.4007 97.1334 93.4673 98.1334L93.8673 104.533C94.134 108.467 91.334 110.467 87.6673 109.067L81.734 106.667C80.8007 106.333 79.2673 106.333 78.334 106.667L72.4007 109C68.734 110.467 65.934 108.4 66.2007 104.467L66.6007 98.0668C66.6673 97.0668 66.2007 95.6668 65.534 94.9334L61.4007 90.0001C58.8673 87.0001 60.0007 83.6668 63.8007 82.6668L70.0007 81.0668C71.0007 80.8001 72.134 79.8668 72.6673 79.0668L76.134 73.7334C78.2673 70.4001 81.6673 70.4001 83.8673 73.7334L87.334 79.0668C87.8673 79.9334 89.0673 80.8001 90.0007 81.0668L96.2007 82.6668C100.001 83.6668 101.134 87.0001 98.6007 90.0001Z" fill="url(#paint1_linear_3420_27611)"/>
</g>
<defs>
<linearGradient id="paint0_linear_3420_27611" x1="80.0009" y1="13.3335" x2="80.0009" y2="41.6002" gradientUnits="userSpaceOnUse">
<stop stop-color="#FFF1A9"/>
<stop offset="0.213582" stop-color="#FCAF07"/>
<stop offset="0.619832" stop-color="#FCAF07"/>
<stop offset="0.817749" stop-color="#FFF0AA"/>
<stop offset="1" stop-color="#FFAF00"/>
</linearGradient>
<linearGradient id="paint1_linear_3420_27611" x1="80.0007" y1="34.1001" x2="80.0007" y2="146.6" gradientUnits="userSpaceOnUse">
<stop stop-color="#FFF1A9"/>
<stop offset="0.213582" stop-color="#FCAF07"/>
<stop offset="0.619832" stop-color="#FCAF07"/>
<stop offset="0.817749" stop-color="#FFF0AA"/>
<stop offset="1" stop-color="#FFAF00"/>
</linearGradient>
</defs>
</svg>
