<svg width="202" height="121" viewBox="0 0 202 121" fill="none" xmlns="http://www.w3.org/2000/svg">
<g filter="url(#filter0_di_799_142238)">
<path d="M32.2198 66.2347C31.9436 64.3872 33.5161 62.7907 35.3677 63.0388L99.6825 71.6587C101.169 71.8579 102.236 73.1905 102.105 74.6844L100.882 88.6616C100.742 90.2594 99.2941 91.4151 97.7051 91.1969L36.7392 82.8236C35.5048 82.6541 34.53 81.6908 34.3458 80.4585L32.2198 66.2347Z" fill="#8B80E8"/>
</g>
<g filter="url(#filter1_di_799_142238)">
<path d="M19.0284 51.9261C18.7522 50.0786 20.3247 48.4821 22.1762 48.7302L86.491 57.3501C87.9773 57.5493 89.0443 58.8819 88.9136 60.3758L87.6908 74.353C87.551 75.9508 86.1027 77.1065 84.5137 76.8883L23.5478 68.515C22.3134 68.3455 21.3386 67.3822 21.1544 66.1499L19.0284 51.9261Z" fill="#A3A2FE"/>
</g>
<g filter="url(#filter2_di_799_142238)">
<path d="M6.19243 33.5355C5.91628 31.6879 7.48878 30.0915 9.34031 30.3396L73.6551 38.9595C75.1414 39.1587 76.2084 40.4913 76.0777 41.9851L74.8548 55.9623C74.715 57.5601 73.2667 58.7159 71.6777 58.4976L10.7118 50.1244C9.47742 49.9548 8.50266 48.9916 8.31847 47.7593L6.19243 33.5355Z" fill="#C4C5FF"/>
</g>
<g filter="url(#filter3_di_799_142238)">
<path d="M169.78 65.6527C170.056 63.8051 168.484 62.2086 166.632 62.4568L102.318 71.0767C100.831 71.2759 99.7643 72.6085 99.895 74.1023L101.118 88.0795C101.258 89.6773 102.706 90.8331 104.295 90.6148L165.261 82.2416C166.495 82.072 167.47 81.1088 167.654 79.8765L169.78 65.6527Z" fill="#8B80E8"/>
</g>
<g filter="url(#filter4_di_799_142238)">
<path d="M182.972 51.3441C183.248 49.4965 181.675 47.9 179.824 48.1482L115.509 56.7681C114.023 56.9673 112.956 58.2999 113.086 59.7937L114.309 73.7709C114.449 75.3687 115.897 76.5245 117.486 76.3062L178.452 67.933C179.687 67.7634 180.661 66.8002 180.846 65.5679L182.972 51.3441Z" fill="#A3A2FE"/>
</g>
<g filter="url(#filter5_di_799_142238)">
<path d="M195.808 32.9535C196.084 31.1059 194.511 29.5094 192.66 29.7576L128.345 38.3775C126.859 38.5767 125.792 39.9093 125.922 41.4031L127.145 55.3803C127.285 56.9781 128.733 58.1339 130.322 57.9156L191.288 49.5423C192.523 49.3728 193.497 48.4096 193.682 47.1773L195.808 32.9535Z" fill="#C4C5FF"/>
</g>
<g filter="url(#filter6_d_799_142238)">
<mask id="mask0_799_142238" style="mask-type:alpha" maskUnits="userSpaceOnUse" x="77" y="12" width="48" height="48">
<path d="M98.8949 12.9841C99.9907 11.8883 101.767 11.8883 102.863 12.9841L113.305 23.4258L123.747 33.8676C124.842 34.9634 124.842 36.74 123.747 37.8358L113.305 48.2775L102.863 58.7192C101.767 59.815 99.9907 59.815 98.8949 58.7192L88.4532 48.2775L78.0115 37.8358C76.9157 36.74 76.9157 34.9634 78.0115 33.8676L88.4532 23.4258L98.8949 12.9841Z" fill="#C4C4C4"/>
</mask>
<g mask="url(#mask0_799_142238)">
<path d="M100.879 60.7034V11L76.0275 35.8517L100.879 60.7034Z" fill="#7EF7FF"/>
<path d="M100.879 11V60.7034L125.731 35.8517L100.879 11Z" fill="#38C9D1"/>
<path d="M150.583 60.7034L125.731 35.8517L100.879 60.7034H150.583Z" fill="#7EF7FF"/>
<path d="M51.1758 60.7034H100.879L76.0275 35.8517L51.1758 60.7034Z" fill="#7EF7FF"/>
</g>
</g>
<g filter="url(#filter7_d_799_142238)">
<mask id="mask1_799_142238" style="mask-type:alpha" maskUnits="userSpaceOnUse" x="102" y="36" width="48" height="49">
<path d="M148.643 58.6723C149.739 59.768 149.739 61.5447 148.643 62.6405L138.201 73.0822L127.759 83.5239C126.664 84.6197 124.887 84.6197 123.791 83.5239L113.349 73.0822L102.908 62.6405C101.812 61.5447 101.812 59.768 102.908 58.6723L113.349 48.2305L123.791 37.7888C124.887 36.693 126.664 36.693 127.759 37.7888L138.201 48.2305L148.643 58.6723Z" fill="#C4C4C4"/>
</mask>
<g mask="url(#mask1_799_142238)">
<path d="M100.924 60.6565L150.627 60.6565L125.775 35.8048L100.924 60.6565Z" fill="#7EF7FF"/>
<path d="M150.627 60.6565L100.924 60.6565L125.775 85.5082L150.627 60.6565Z" fill="#38C9D1"/>
<path d="M100.924 110.36L125.775 85.5082L100.924 60.6565L100.924 110.36Z" fill="#7EF7FF"/>
<path d="M100.924 10.9531L100.924 60.6565L125.775 35.8048L100.924 10.9531Z" fill="#7EF7FF"/>
</g>
</g>
<g filter="url(#filter8_d_799_142238)">
<mask id="mask2_799_142238" style="mask-type:alpha" maskUnits="userSpaceOnUse" x="77" y="61" width="48" height="49">
<path d="M102.955 108.422C101.859 109.518 100.082 109.518 98.9865 108.422L88.5447 97.9804L78.103 87.5387C77.0072 86.4429 77.0072 84.6662 78.103 83.5704L88.5447 73.1287L98.9865 62.687C100.082 61.5912 101.859 61.5912 102.955 62.687L113.396 73.1287L123.838 83.5705C124.934 84.6663 124.934 86.4429 123.838 87.5387L113.396 97.9804L102.955 108.422Z" fill="#C4C4C4"/>
</mask>
<g mask="url(#mask2_799_142238)">
<path d="M100.97 60.7029L100.97 110.406L125.822 85.5546L100.97 60.7029Z" fill="#7EF7FF"/>
<path d="M100.97 110.406L100.97 60.7029L76.1188 85.5546L100.97 110.406Z" fill="#38C9D1"/>
<path d="M51.2671 60.7029L76.1188 85.5546L100.97 60.7029L51.2671 60.7029Z" fill="#7EF7FF"/>
<path d="M150.674 60.7029L100.97 60.7029L125.822 85.5546L150.674 60.7029Z" fill="#7EF7FF"/>
</g>
</g>
<g filter="url(#filter9_d_799_142238)">
<mask id="mask3_799_142238" style="mask-type:alpha" maskUnits="userSpaceOnUse" x="52" y="37" width="48" height="48">
<path d="M53.2048 62.734C52.109 61.6382 52.109 59.8616 53.2048 58.7658L63.6465 48.324L74.0883 37.8823C75.1841 36.7865 76.9607 36.7865 78.0565 37.8823L88.4982 48.324L98.94 58.7658C100.036 59.8616 100.036 61.6382 98.94 62.734L88.4982 73.1757L78.0565 83.6175C76.9607 84.7132 75.1841 84.7132 74.0883 83.6174L63.6465 73.1757L53.2048 62.734Z" fill="#C4C4C4"/>
</mask>
<g mask="url(#mask3_799_142238)">
<path d="M100.924 60.7498L51.2207 60.7498L76.0724 85.6014L100.924 60.7498Z" fill="#7EF7FF"/>
<path d="M51.2207 60.7498L100.924 60.7498L76.0724 35.8981L51.2207 60.7498Z" fill="#38C9D1"/>
<path d="M100.924 11.0464L76.0724 35.8981L100.924 60.7498L100.924 11.0464Z" fill="#7EF7FF"/>
<path d="M100.924 110.453L100.924 60.7498L76.0724 85.6014L100.924 110.453Z" fill="#7EF7FF"/>
</g>
</g>
<g filter="url(#filter10_d_799_142238)">
<ellipse cx="100.924" cy="60.703" rx="41.8397" ry="41.8398" fill="url(#paint0_linear_799_142238)"/>
<circle cx="100.925" cy="60.7019" r="40.0964" fill="url(#paint1_linear_799_142238)"/>
<ellipse cx="100.924" cy="60.7018" rx="33.9948" ry="33.9948" fill="url(#paint2_linear_799_142238)"/>
<g filter="url(#filter11_i_799_142238)">
<circle cx="100.923" cy="60.7046" r="32.2515" fill="url(#paint3_radial_799_142238)"/>
<circle cx="100.923" cy="60.7046" r="32.2515" fill="url(#paint4_radial_799_142238)"/>
</g>
<path d="M100.924 39.2031L115.446 60.7036L100.924 82.2041L86.4023 60.7036L100.924 39.2031Z" fill="#0C24DA" fill-opacity="0.29"/>
<path d="M100.924 42.7891L88.9648 60.7062H95.7986L100.924 52.6435V42.7891Z" fill="#D3FCFF"/>
<path d="M112.883 60.7062L100.924 42.7891V52.6435L106.049 60.7062H112.883Z" fill="#7EF7FF"/>
<path d="M100.924 78.6232L112.883 60.7062H106.049L100.924 68.7688V78.6232Z" fill="#38C9D1"/>
<path d="M88.9648 60.7062L100.924 78.6232V68.7688L95.7986 60.7062H88.9648Z" fill="#7EF7FF"/>
<path d="M106.049 60.7062L100.924 52.6435L95.7986 60.7062L100.924 68.7688L106.049 60.7062Z" fill="white"/>
<path d="M107.301 66.2383H104.98V70H102.262V66.2383H94.4688V64.1523L102.297 52.8203H104.98V63.9531H107.301V66.2383ZM102.262 63.9531V59.6992C102.262 59.3477 102.266 58.9922 102.273 58.6328C102.289 58.2656 102.305 57.9141 102.32 57.5781C102.336 57.2422 102.352 56.9336 102.367 56.6523C102.383 56.3633 102.395 56.125 102.402 55.9375H102.309C102.16 56.25 101.996 56.5703 101.816 56.8984C101.637 57.2188 101.445 57.5312 101.242 57.8359L97.0234 63.9531H102.262Z" fill="black"/>
</g>
<defs>
<filter id="filter0_di_799_142238" x="26.5756" y="61.6087" width="81.1516" height="40.8378" filterUnits="userSpaceOnUse" color-interpolation-filters="sRGB">
<feFlood flood-opacity="0" result="BackgroundImageFix"/>
<feColorMatrix in="SourceAlpha" type="matrix" values="0 0 0 0 0 0 0 0 0 0 0 0 0 0 0 0 0 0 127 0" result="hardAlpha"/>
<feOffset dy="5.61193"/>
<feGaussianBlur stdDeviation="2.80596"/>
<feColorMatrix type="matrix" values="0 0 0 0 0 0 0 0 0 0 0 0 0 0 0 0 0 0 0.08 0"/>
<feBlend mode="normal" in2="BackgroundImageFix" result="effect1_dropShadow_799_142238"/>
<feBlend mode="normal" in="SourceGraphic" in2="effect1_dropShadow_799_142238" result="shape"/>
<feColorMatrix in="SourceAlpha" type="matrix" values="0 0 0 0 0 0 0 0 0 0 0 0 0 0 0 0 0 0 127 0" result="hardAlpha"/>
<feOffset dx="5.61193" dy="-11.2239"/>
<feGaussianBlur stdDeviation="0.701491"/>
<feComposite in2="hardAlpha" operator="arithmetic" k2="-1" k3="1"/>
<feColorMatrix type="matrix" values="0 0 0 0 0 0 0 0 0 0 0 0 0 0 0 0 0 0 0.11 0"/>
<feBlend mode="overlay" in2="shape" result="effect2_innerShadow_799_142238"/>
</filter>
<filter id="filter1_di_799_142238" x="13.3842" y="47.3001" width="81.1516" height="40.8378" filterUnits="userSpaceOnUse" color-interpolation-filters="sRGB">
<feFlood flood-opacity="0" result="BackgroundImageFix"/>
<feColorMatrix in="SourceAlpha" type="matrix" values="0 0 0 0 0 0 0 0 0 0 0 0 0 0 0 0 0 0 127 0" result="hardAlpha"/>
<feOffset dy="5.61193"/>
<feGaussianBlur stdDeviation="2.80596"/>
<feColorMatrix type="matrix" values="0 0 0 0 0 0 0 0 0 0 0 0 0 0 0 0 0 0 0.08 0"/>
<feBlend mode="normal" in2="BackgroundImageFix" result="effect1_dropShadow_799_142238"/>
<feBlend mode="normal" in="SourceGraphic" in2="effect1_dropShadow_799_142238" result="shape"/>
<feColorMatrix in="SourceAlpha" type="matrix" values="0 0 0 0 0 0 0 0 0 0 0 0 0 0 0 0 0 0 127 0" result="hardAlpha"/>
<feOffset dx="5.61193" dy="-11.2239"/>
<feGaussianBlur stdDeviation="0.701491"/>
<feComposite in2="hardAlpha" operator="arithmetic" k2="-1" k3="1"/>
<feColorMatrix type="matrix" values="0 0 0 0 0 0 0 0 0 0 0 0 0 0 0 0 0 0 0.19 0"/>
<feBlend mode="overlay" in2="shape" result="effect2_innerShadow_799_142238"/>
</filter>
<filter id="filter2_di_799_142238" x="0.548229" y="28.9095" width="81.1516" height="40.8378" filterUnits="userSpaceOnUse" color-interpolation-filters="sRGB">
<feFlood flood-opacity="0" result="BackgroundImageFix"/>
<feColorMatrix in="SourceAlpha" type="matrix" values="0 0 0 0 0 0 0 0 0 0 0 0 0 0 0 0 0 0 127 0" result="hardAlpha"/>
<feOffset dy="5.61193"/>
<feGaussianBlur stdDeviation="2.80596"/>
<feColorMatrix type="matrix" values="0 0 0 0 0 0 0 0 0 0 0 0 0 0 0 0 0 0 0.08 0"/>
<feBlend mode="normal" in2="BackgroundImageFix" result="effect1_dropShadow_799_142238"/>
<feBlend mode="normal" in="SourceGraphic" in2="effect1_dropShadow_799_142238" result="shape"/>
<feColorMatrix in="SourceAlpha" type="matrix" values="0 0 0 0 0 0 0 0 0 0 0 0 0 0 0 0 0 0 127 0" result="hardAlpha"/>
<feOffset dx="5.61193" dy="-11.2239"/>
<feGaussianBlur stdDeviation="0.701491"/>
<feComposite in2="hardAlpha" operator="arithmetic" k2="-1" k3="1"/>
<feColorMatrix type="matrix" values="0 0 0 0 0 0 0 0 0 0 0 0 0 0 0 0 0 0 0.42 0"/>
<feBlend mode="overlay" in2="shape" result="effect2_innerShadow_799_142238"/>
</filter>
<filter id="filter3_di_799_142238" x="94.2728" y="61.0267" width="81.1516" height="40.8378" filterUnits="userSpaceOnUse" color-interpolation-filters="sRGB">
<feFlood flood-opacity="0" result="BackgroundImageFix"/>
<feColorMatrix in="SourceAlpha" type="matrix" values="0 0 0 0 0 0 0 0 0 0 0 0 0 0 0 0 0 0 127 0" result="hardAlpha"/>
<feOffset dy="5.61193"/>
<feGaussianBlur stdDeviation="2.80596"/>
<feColorMatrix type="matrix" values="0 0 0 0 0 0 0 0 0 0 0 0 0 0 0 0 0 0 0.08 0"/>
<feBlend mode="normal" in2="BackgroundImageFix" result="effect1_dropShadow_799_142238"/>
<feBlend mode="normal" in="SourceGraphic" in2="effect1_dropShadow_799_142238" result="shape"/>
<feColorMatrix in="SourceAlpha" type="matrix" values="0 0 0 0 0 0 0 0 0 0 0 0 0 0 0 0 0 0 127 0" result="hardAlpha"/>
<feOffset dx="-5.61193" dy="-11.2239"/>
<feGaussianBlur stdDeviation="0.701491"/>
<feComposite in2="hardAlpha" operator="arithmetic" k2="-1" k3="1"/>
<feColorMatrix type="matrix" values="0 0 0 0 0 0 0 0 0 0 0 0 0 0 0 0 0 0 0.11 0"/>
<feBlend mode="overlay" in2="shape" result="effect2_innerShadow_799_142238"/>
</filter>
<filter id="filter4_di_799_142238" x="107.464" y="46.7181" width="81.1516" height="40.8378" filterUnits="userSpaceOnUse" color-interpolation-filters="sRGB">
<feFlood flood-opacity="0" result="BackgroundImageFix"/>
<feColorMatrix in="SourceAlpha" type="matrix" values="0 0 0 0 0 0 0 0 0 0 0 0 0 0 0 0 0 0 127 0" result="hardAlpha"/>
<feOffset dy="5.61193"/>
<feGaussianBlur stdDeviation="2.80596"/>
<feColorMatrix type="matrix" values="0 0 0 0 0 0 0 0 0 0 0 0 0 0 0 0 0 0 0.08 0"/>
<feBlend mode="normal" in2="BackgroundImageFix" result="effect1_dropShadow_799_142238"/>
<feBlend mode="normal" in="SourceGraphic" in2="effect1_dropShadow_799_142238" result="shape"/>
<feColorMatrix in="SourceAlpha" type="matrix" values="0 0 0 0 0 0 0 0 0 0 0 0 0 0 0 0 0 0 127 0" result="hardAlpha"/>
<feOffset dx="-5.61193" dy="-11.2239"/>
<feGaussianBlur stdDeviation="0.701491"/>
<feComposite in2="hardAlpha" operator="arithmetic" k2="-1" k3="1"/>
<feColorMatrix type="matrix" values="0 0 0 0 0 0 0 0 0 0 0 0 0 0 0 0 0 0 0.19 0"/>
<feBlend mode="overlay" in2="shape" result="effect2_innerShadow_799_142238"/>
</filter>
<filter id="filter5_di_799_142238" x="120.3" y="28.3275" width="81.1516" height="40.8378" filterUnits="userSpaceOnUse" color-interpolation-filters="sRGB">
<feFlood flood-opacity="0" result="BackgroundImageFix"/>
<feColorMatrix in="SourceAlpha" type="matrix" values="0 0 0 0 0 0 0 0 0 0 0 0 0 0 0 0 0 0 127 0" result="hardAlpha"/>
<feOffset dy="5.61193"/>
<feGaussianBlur stdDeviation="2.80596"/>
<feColorMatrix type="matrix" values="0 0 0 0 0 0 0 0 0 0 0 0 0 0 0 0 0 0 0.08 0"/>
<feBlend mode="normal" in2="BackgroundImageFix" result="effect1_dropShadow_799_142238"/>
<feBlend mode="normal" in="SourceGraphic" in2="effect1_dropShadow_799_142238" result="shape"/>
<feColorMatrix in="SourceAlpha" type="matrix" values="0 0 0 0 0 0 0 0 0 0 0 0 0 0 0 0 0 0 127 0" result="hardAlpha"/>
<feOffset dx="-5.61193" dy="-11.2239"/>
<feGaussianBlur stdDeviation="0.701491"/>
<feComposite in2="hardAlpha" operator="arithmetic" k2="-1" k3="1"/>
<feColorMatrix type="matrix" values="0 0 0 0 0 0 0 0 0 0 0 0 0 0 0 0 0 0 0.42 0"/>
<feBlend mode="overlay" in2="shape" result="effect2_innerShadow_799_142238"/>
</filter>
<filter id="filter6_d_799_142238" x="65.9656" y="0.940207" width="69.8266" height="69.8266" filterUnits="userSpaceOnUse" color-interpolation-filters="sRGB">
<feFlood flood-opacity="0" result="BackgroundImageFix"/>
<feColorMatrix in="SourceAlpha" type="matrix" values="0 0 0 0 0 0 0 0 0 0 0 0 0 0 0 0 0 0 127 0" result="hardAlpha"/>
<feOffset/>
<feGaussianBlur stdDeviation="5.61193"/>
<feColorMatrix type="matrix" values="0 0 0 0 0 0 0 0 0 0 0 0 0 0 0 0 0 0 0.2 0"/>
<feBlend mode="normal" in2="BackgroundImageFix" result="effect1_dropShadow_799_142238"/>
<feBlend mode="normal" in="SourceGraphic" in2="effect1_dropShadow_799_142238" result="shape"/>
</filter>
<filter id="filter7_d_799_142238" x="90.8621" y="25.7449" width="69.8266" height="69.8266" filterUnits="userSpaceOnUse" color-interpolation-filters="sRGB">
<feFlood flood-opacity="0" result="BackgroundImageFix"/>
<feColorMatrix in="SourceAlpha" type="matrix" values="0 0 0 0 0 0 0 0 0 0 0 0 0 0 0 0 0 0 127 0" result="hardAlpha"/>
<feOffset/>
<feGaussianBlur stdDeviation="5.61193"/>
<feColorMatrix type="matrix" values="0 0 0 0 0 0 0 0 0 0 0 0 0 0 0 0 0 0 0.2 0"/>
<feBlend mode="normal" in2="BackgroundImageFix" result="effect1_dropShadow_799_142238"/>
<feBlend mode="normal" in="SourceGraphic" in2="effect1_dropShadow_799_142238" result="shape"/>
</filter>
<filter id="filter8_d_799_142238" x="66.0574" y="50.6394" width="69.8266" height="69.8266" filterUnits="userSpaceOnUse" color-interpolation-filters="sRGB">
<feFlood flood-opacity="0" result="BackgroundImageFix"/>
<feColorMatrix in="SourceAlpha" type="matrix" values="0 0 0 0 0 0 0 0 0 0 0 0 0 0 0 0 0 0 127 0" result="hardAlpha"/>
<feOffset/>
<feGaussianBlur stdDeviation="5.61193"/>
<feColorMatrix type="matrix" values="0 0 0 0 0 0 0 0 0 0 0 0 0 0 0 0 0 0 0.2 0"/>
<feBlend mode="normal" in2="BackgroundImageFix" result="effect1_dropShadow_799_142238"/>
<feBlend mode="normal" in="SourceGraphic" in2="effect1_dropShadow_799_142238" result="shape"/>
</filter>
<filter id="filter9_d_799_142238" x="41.159" y="25.8347" width="69.8266" height="69.8266" filterUnits="userSpaceOnUse" color-interpolation-filters="sRGB">
<feFlood flood-opacity="0" result="BackgroundImageFix"/>
<feColorMatrix in="SourceAlpha" type="matrix" values="0 0 0 0 0 0 0 0 0 0 0 0 0 0 0 0 0 0 127 0" result="hardAlpha"/>
<feOffset/>
<feGaussianBlur stdDeviation="5.61193"/>
<feColorMatrix type="matrix" values="0 0 0 0 0 0 0 0 0 0 0 0 0 0 0 0 0 0 0.2 0"/>
<feBlend mode="normal" in2="BackgroundImageFix" result="effect1_dropShadow_799_142238"/>
<feBlend mode="normal" in="SourceGraphic" in2="effect1_dropShadow_799_142238" result="shape"/>
</filter>
<filter id="filter10_d_799_142238" x="43.084" y="2.86328" width="115.68" height="115.68" filterUnits="userSpaceOnUse" color-interpolation-filters="sRGB">
<feFlood flood-opacity="0" result="BackgroundImageFix"/>
<feColorMatrix in="SourceAlpha" type="matrix" values="0 0 0 0 0 0 0 0 0 0 0 0 0 0 0 0 0 0 127 0" result="hardAlpha"/>
<feOffset/>
<feGaussianBlur stdDeviation="8"/>
<feColorMatrix type="matrix" values="0 0 0 0 0 0 0 0 0 0 0 0 0 0 0 0 0 0 0.15 0"/>
<feBlend mode="normal" in2="BackgroundImageFix" result="effect1_dropShadow_799_142238"/>
<feBlend mode="normal" in="SourceGraphic" in2="effect1_dropShadow_799_142238" result="shape"/>
</filter>
<filter id="filter11_i_799_142238" x="68.6719" y="28.4531" width="64.5039" height="67.3099" filterUnits="userSpaceOnUse" color-interpolation-filters="sRGB">
<feFlood flood-opacity="0" result="BackgroundImageFix"/>
<feBlend mode="normal" in="SourceGraphic" in2="BackgroundImageFix" result="shape"/>
<feColorMatrix in="SourceAlpha" type="matrix" values="0 0 0 0 0 0 0 0 0 0 0 0 0 0 0 0 0 0 127 0" result="hardAlpha"/>
<feOffset dy="2.80596"/>
<feGaussianBlur stdDeviation="4.20895"/>
<feComposite in2="hardAlpha" operator="arithmetic" k2="-1" k3="1"/>
<feColorMatrix type="matrix" values="0 0 0 0 0 0 0 0 0 0 0 0 0 0 0 0 0 0 0.34 0"/>
<feBlend mode="overlay" in2="shape" result="effect1_innerShadow_799_142238"/>
</filter>
<linearGradient id="paint0_linear_799_142238" x1="100.924" y1="18.8633" x2="100.924" y2="102.543" gradientUnits="userSpaceOnUse">
<stop stop-color="#CECDFF"/>
<stop offset="1" stop-color="#817FEA"/>
</linearGradient>
<linearGradient id="paint1_linear_799_142238" x1="100.925" y1="20.6055" x2="100.925" y2="100.798" gradientUnits="userSpaceOnUse">
<stop stop-color="#B9B8FF"/>
<stop offset="1" stop-color="#9F9DF3"/>
</linearGradient>
<linearGradient id="paint2_linear_799_142238" x1="100.924" y1="26.707" x2="100.924" y2="94.6966" gradientUnits="userSpaceOnUse">
<stop stop-color="#A59DF5"/>
<stop offset="1" stop-color="#C3BDFF"/>
</linearGradient>
<radialGradient id="paint3_radial_799_142238" cx="0" cy="0" r="1" gradientUnits="userSpaceOnUse" gradientTransform="translate(90.7477 45.4772) rotate(53.514) scale(48.5992 61.8471)">
<stop stop-color="#5DC6FB"/>
<stop offset="1" stop-color="#3B39F5"/>
</radialGradient>
<radialGradient id="paint4_radial_799_142238" cx="0" cy="0" r="1" gradientUnits="userSpaceOnUse" gradientTransform="translate(87.8986 42.6281) rotate(51.3402) scale(7.81859 15.6535)">
<stop stop-color="white" stop-opacity="0.6"/>
<stop offset="1" stop-color="white" stop-opacity="0"/>
</radialGradient>
</defs>
</svg>
