<svg width="202" height="123" viewBox="0 0 202 123" fill="none" xmlns="http://www.w3.org/2000/svg">
<g filter="url(#filter0_di_557_34721)">
<path d="M33.0752 66.5209C32.7991 64.6733 34.3716 63.0768 36.2231 63.325L102.512 72.2094C103.998 72.4086 105.065 73.7412 104.934 75.2351L103.664 89.7592C103.524 91.357 102.076 92.5128 100.487 92.2945L37.6781 83.6682C36.4437 83.4987 35.469 82.5354 35.2848 81.3031L33.0752 66.5209Z" fill="#FF7B01"/>
</g>
<g filter="url(#filter1_di_557_34721)">
<path d="M19.5147 51.8124C19.2385 49.9648 20.811 48.3683 22.6626 48.6165L88.9513 57.5009C90.4376 57.7001 91.5045 59.0327 91.3739 60.5266L90.1031 75.0507C89.9634 76.6485 88.5151 77.8043 86.9261 77.586L24.1176 68.9597C22.8832 68.7902 21.9084 67.8269 21.7242 66.5946L19.5147 51.8124Z" fill="#FFA001"/>
</g>
<g filter="url(#filter2_di_557_34721)">
<path d="M6.32134 32.91C6.04518 31.0625 7.61769 29.466 9.46921 29.7141L75.7579 38.5986C77.2442 38.7978 78.3112 40.1304 78.1805 41.6242L76.9098 56.1484C76.77 57.7462 75.3217 58.9019 73.7327 58.6837L10.9242 50.0574C9.6898 49.8878 8.71505 48.9246 8.53085 47.6923L6.32134 32.91Z" fill="#FECC50"/>
</g>
<g filter="url(#filter3_di_557_34721)">
<path d="M168.925 66.5209C169.201 64.6733 167.628 63.0768 165.777 63.325L99.4881 72.2094C98.0019 72.4086 96.9349 73.7412 97.0656 75.2351L98.3363 89.7592C98.4761 91.357 99.9244 92.5128 101.513 92.2945L164.322 83.6682C165.556 83.4987 166.531 82.5354 166.715 81.3031L168.925 66.5209Z" fill="#FF7B01"/>
</g>
<g filter="url(#filter4_di_557_34721)">
<path d="M182.485 51.8124C182.761 49.9648 181.189 48.3683 179.337 48.6165L113.049 57.5009C111.562 57.7001 110.495 59.0327 110.626 60.5266L111.897 75.0507C112.037 76.6485 113.485 77.8043 115.074 77.5861L177.882 68.9597C179.117 68.7902 180.092 67.8269 180.276 66.5946L182.485 51.8124Z" fill="#FFA001"/>
</g>
<g filter="url(#filter5_di_557_34721)">
<path d="M195.679 32.91C195.955 31.0625 194.382 29.466 192.531 29.7141L126.242 38.5986C124.756 38.7978 123.689 40.1304 123.82 41.6242L125.09 56.1484C125.23 57.7462 126.678 58.9019 128.267 58.6837L191.076 50.0574C192.31 49.8878 193.285 48.9246 193.469 47.6923L195.679 32.91Z" fill="#FECC50"/>
</g>
<g filter="url(#filter6_d_557_34721)">
<mask id="mask0_557_34721" style="mask-type:alpha" maskUnits="userSpaceOnUse" x="77" y="11" width="50" height="50">
<path d="M99.6476 12.6028C100.743 11.507 102.52 11.507 103.616 12.6028L114.405 23.3916L125.193 34.1804C126.289 35.2762 126.289 37.0528 125.193 38.1486L114.405 48.9374L103.616 59.7262C102.52 60.822 100.743 60.822 99.6476 59.7262L88.8588 48.9374L78.0701 38.1486C76.9743 37.0528 76.9743 35.2762 78.0701 34.1804L88.8588 23.3916L99.6476 12.6028Z" fill="#C4C4C4"/>
</mask>
<g mask="url(#mask0_557_34721)">
<path d="M101.631 61.7103V10.6187L76.0849 36.1645L101.631 61.7103Z" fill="#FFD0F5"/>
<path d="M101.631 10.6187V61.7103L127.177 36.1645L101.631 10.6187Z" fill="#FF97F1"/>
<path d="M152.722 61.7103L127.177 36.1645L101.631 61.7103H152.722Z" fill="#FFD0F5"/>
<path d="M50.5391 61.7103H101.631L76.0849 36.1645L50.5391 61.7103Z" fill="#FFD0F5"/>
</g>
</g>
<g filter="url(#filter7_d_557_34721)">
<mask id="mask1_557_34721" style="mask-type:alpha" maskUnits="userSpaceOnUse" x="102" y="37" width="50" height="50">
<path d="M150.787 59.6794C151.883 60.7752 151.883 62.5518 150.787 63.6476L139.999 74.4364L129.21 85.2252C128.114 86.321 126.337 86.321 125.242 85.2252L114.453 74.4364L103.664 63.6476C102.568 62.5518 102.568 60.7752 103.664 59.6794L114.453 48.8906L125.242 38.1018C126.337 37.006 128.114 37.006 129.21 38.1018L139.999 48.8906L150.787 59.6794Z" fill="#C4C4C4"/>
</mask>
<g mask="url(#mask1_557_34721)">
<path d="M101.68 61.6634L152.771 61.6634L127.226 36.1176L101.68 61.6634Z" fill="#FFD0F5"/>
<path d="M152.771 61.6634L101.68 61.6634L127.226 87.2092L152.771 61.6634Z" fill="#FF97F1"/>
<path d="M101.68 112.755L127.226 87.2092L101.68 61.6634L101.68 112.755Z" fill="#FFD0F5"/>
<path d="M101.68 10.5718L101.68 61.6634L127.226 36.1176L101.68 10.5718Z" fill="#FFD0F5"/>
</g>
</g>
<g filter="url(#filter8_d_557_34721)">
<mask id="mask2_557_34721" style="mask-type:alpha" maskUnits="userSpaceOnUse" x="77" y="62" width="50" height="50">
<path d="M103.71 110.818C102.614 111.914 100.837 111.914 99.7415 110.818L88.9528 100.029L78.164 89.2405C77.0682 88.1447 77.0682 86.3681 78.164 85.2723L88.9528 74.4835L99.7416 63.6947C100.837 62.5989 102.614 62.5989 103.71 63.6947L114.499 74.4835L125.287 85.2723C126.383 86.3681 126.383 88.1447 125.287 89.2405L114.499 100.029L103.71 110.818Z" fill="#C4C4C4"/>
</mask>
<g mask="url(#mask2_557_34721)">
<path d="M101.725 61.7106L101.725 112.802L127.271 87.2564L101.725 61.7106Z" fill="#FFD0F5"/>
<path d="M101.725 112.802L101.725 61.7106L76.1789 87.2564L101.725 112.802Z" fill="#FF97F1"/>
<path d="M50.6331 61.7106L76.1789 87.2564L101.725 61.7106L50.6331 61.7106Z" fill="#FFD0F5"/>
<path d="M152.816 61.7106L101.725 61.7106L127.271 87.2564L152.816 61.7106Z" fill="#FFD0F5"/>
</g>
</g>
<g filter="url(#filter9_d_557_34721)">
<mask id="mask3_557_34721" style="mask-type:alpha" maskUnits="userSpaceOnUse" x="51" y="37" width="50" height="50">
<path d="M52.572 63.7415C51.4762 62.6457 51.4762 60.8691 52.572 59.7733L63.3608 48.9845L74.1496 38.1957C75.2454 37.0999 77.022 37.0999 78.1178 38.1957L88.9066 48.9845L99.6954 59.7733C100.791 60.8691 100.791 62.6457 99.6954 63.7415L88.9066 74.5303L78.1178 85.3191C77.022 86.4149 75.2454 86.4149 74.1496 85.3191L63.3608 74.5303L52.572 63.7415Z" fill="#C4C4C4"/>
</mask>
<g mask="url(#mask3_557_34721)">
<path d="M101.68 61.7575L50.5879 61.7575L76.1337 87.3033L101.68 61.7575Z" fill="#FFD0F5"/>
<path d="M50.5879 61.7575L101.68 61.7575L76.1337 36.2117L50.5879 61.7575Z" fill="#FF97F1"/>
<path d="M101.68 10.6658L76.1337 36.2117L101.68 61.7575L101.68 10.6658Z" fill="#FFD0F5"/>
<path d="M101.68 112.849L101.68 61.7575L76.1337 87.3033L101.68 112.849Z" fill="#FFD0F5"/>
</g>
</g>
<g filter="url(#filter10_d_557_34721)">
<ellipse cx="101.678" cy="61.711" rx="43.0084" ry="43.0084" fill="url(#paint0_linear_557_34721)"/>
<ellipse cx="101.679" cy="61.711" rx="41.2164" ry="41.2164" fill="url(#paint1_linear_557_34721)"/>
<circle cx="101.679" cy="61.7119" r="34.9443" fill="url(#paint2_linear_557_34721)"/>
<g filter="url(#filter11_i_557_34721)">
<ellipse cx="101.678" cy="61.7119" rx="33.1523" ry="33.1523" fill="url(#paint3_radial_557_34721)"/>
<ellipse cx="101.678" cy="61.7119" rx="33.1523" ry="33.1523" fill="url(#paint4_radial_557_34721)"/>
</g>
<path d="M100.851 40.8378C101.247 40.2507 102.111 40.2507 102.508 40.8378L116.229 61.1522C116.457 61.4904 116.457 61.9334 116.229 62.2716L102.508 82.586C102.111 83.173 101.247 83.173 100.851 82.586L87.13 62.2716C86.9016 61.9334 86.9016 61.4904 87.13 61.1522L100.851 40.8378Z" fill="#7B33D1" fill-opacity="0.49"/>
<path d="M101.678 43.2949L89.3848 61.7125H96.4094L101.678 53.4246V43.2949Z" fill="url(#paint5_linear_557_34721)"/>
<path d="M113.971 61.7125L101.678 43.2949V53.4246L106.946 61.7125H113.971Z" fill="url(#paint6_linear_557_34721)"/>
<path d="M101.678 80.13L113.971 61.7125H106.946L101.678 70.0003V80.13Z" fill="url(#paint7_linear_557_34721)"/>
<path d="M89.3848 61.7125L101.678 80.13V70.0003L96.4094 61.7125H89.3848Z" fill="url(#paint8_linear_557_34721)"/>
<path d="M106.946 61.7125L101.678 53.4246L96.4094 61.7125L101.678 70.0003L106.946 61.7125Z" fill="white"/>
<path d="M107.311 56.5425C107.311 57.3159 107.154 57.9878 106.842 58.5581C106.529 59.1284 106.1 59.5972 105.553 59.9644C105.014 60.3237 104.389 60.5815 103.678 60.7378V60.8198C105.045 60.9917 106.076 61.4214 106.771 62.1089C107.475 62.7964 107.826 63.7065 107.826 64.8394C107.826 65.8315 107.588 66.7183 107.111 67.4995C106.635 68.2729 105.904 68.8823 104.92 69.3276C103.936 69.7729 102.67 69.9956 101.123 69.9956C100.193 69.9956 99.3301 69.9214 98.5332 69.7729C97.7441 69.6245 96.9941 69.3862 96.2832 69.0581V66.6089C97.0098 66.9683 97.7832 67.2456 98.6035 67.4409C99.4238 67.6362 100.201 67.7339 100.936 67.7339C102.365 67.7339 103.385 67.4683 103.994 66.937C104.604 66.3979 104.908 65.6558 104.908 64.7104C104.908 64.1011 104.748 63.6011 104.428 63.2104C104.115 62.8198 103.627 62.5269 102.963 62.3315C102.307 62.1362 101.459 62.0386 100.42 62.0386H98.9082V59.8237H100.432C101.424 59.8237 102.221 59.7065 102.822 59.4722C103.424 59.23 103.857 58.8979 104.123 58.4761C104.396 58.0542 104.533 57.562 104.533 56.9995C104.533 56.2651 104.295 55.6948 103.818 55.2886C103.342 54.8745 102.635 54.6675 101.697 54.6675C101.119 54.6675 100.592 54.7339 100.115 54.8667C99.6465 54.9995 99.2129 55.1675 98.8145 55.3706C98.416 55.5737 98.0371 55.7925 97.6777 56.0269L96.3535 54.1167C97.002 53.6323 97.7754 53.2222 98.6738 52.8862C99.5723 52.5503 100.619 52.3823 101.814 52.3823C103.572 52.3823 104.928 52.7612 105.881 53.519C106.834 54.269 107.311 55.2769 107.311 56.5425Z" fill="black"/>
</g>
<defs>
<filter id="filter0_di_557_34721" x="27.431" y="61.8963" width="83.1262" height="41.6483" filterUnits="userSpaceOnUse" color-interpolation-filters="sRGB">
<feFlood flood-opacity="0" result="BackgroundImageFix"/>
<feColorMatrix in="SourceAlpha" type="matrix" values="0 0 0 0 0 0 0 0 0 0 0 0 0 0 0 0 0 0 127 0" result="hardAlpha"/>
<feOffset dy="5.61193"/>
<feGaussianBlur stdDeviation="2.80596"/>
<feColorMatrix type="matrix" values="0 0 0 0 0 0 0 0 0 0 0 0 0 0 0 0 0 0 0.08 0"/>
<feBlend mode="normal" in2="BackgroundImageFix" result="effect1_dropShadow_557_34721"/>
<feBlend mode="normal" in="SourceGraphic" in2="effect1_dropShadow_557_34721" result="shape"/>
<feColorMatrix in="SourceAlpha" type="matrix" values="0 0 0 0 0 0 0 0 0 0 0 0 0 0 0 0 0 0 127 0" result="hardAlpha"/>
<feOffset dx="5.61193" dy="-11.2239"/>
<feGaussianBlur stdDeviation="0.701491"/>
<feComposite in2="hardAlpha" operator="arithmetic" k2="-1" k3="1"/>
<feColorMatrix type="matrix" values="0 0 0 0 0 0 0 0 0 0 0 0 0 0 0 0 0 0 0.11 0"/>
<feBlend mode="overlay" in2="shape" result="effect2_innerShadow_557_34721"/>
</filter>
<filter id="filter1_di_557_34721" x="13.8705" y="47.1878" width="83.1262" height="41.6483" filterUnits="userSpaceOnUse" color-interpolation-filters="sRGB">
<feFlood flood-opacity="0" result="BackgroundImageFix"/>
<feColorMatrix in="SourceAlpha" type="matrix" values="0 0 0 0 0 0 0 0 0 0 0 0 0 0 0 0 0 0 127 0" result="hardAlpha"/>
<feOffset dy="5.61193"/>
<feGaussianBlur stdDeviation="2.80596"/>
<feColorMatrix type="matrix" values="0 0 0 0 0 0 0 0 0 0 0 0 0 0 0 0 0 0 0.08 0"/>
<feBlend mode="normal" in2="BackgroundImageFix" result="effect1_dropShadow_557_34721"/>
<feBlend mode="normal" in="SourceGraphic" in2="effect1_dropShadow_557_34721" result="shape"/>
<feColorMatrix in="SourceAlpha" type="matrix" values="0 0 0 0 0 0 0 0 0 0 0 0 0 0 0 0 0 0 127 0" result="hardAlpha"/>
<feOffset dx="5.61193" dy="-11.2239"/>
<feGaussianBlur stdDeviation="0.701491"/>
<feComposite in2="hardAlpha" operator="arithmetic" k2="-1" k3="1"/>
<feColorMatrix type="matrix" values="0 0 0 0 0 0 0 0 0 0 0 0 0 0 0 0 0 0 0.19 0"/>
<feBlend mode="overlay" in2="shape" result="effect2_innerShadow_557_34721"/>
</filter>
<filter id="filter2_di_557_34721" x="0.677135" y="28.2855" width="83.1262" height="41.6483" filterUnits="userSpaceOnUse" color-interpolation-filters="sRGB">
<feFlood flood-opacity="0" result="BackgroundImageFix"/>
<feColorMatrix in="SourceAlpha" type="matrix" values="0 0 0 0 0 0 0 0 0 0 0 0 0 0 0 0 0 0 127 0" result="hardAlpha"/>
<feOffset dy="5.61193"/>
<feGaussianBlur stdDeviation="2.80596"/>
<feColorMatrix type="matrix" values="0 0 0 0 0 0 0 0 0 0 0 0 0 0 0 0 0 0 0.08 0"/>
<feBlend mode="normal" in2="BackgroundImageFix" result="effect1_dropShadow_557_34721"/>
<feBlend mode="normal" in="SourceGraphic" in2="effect1_dropShadow_557_34721" result="shape"/>
<feColorMatrix in="SourceAlpha" type="matrix" values="0 0 0 0 0 0 0 0 0 0 0 0 0 0 0 0 0 0 127 0" result="hardAlpha"/>
<feOffset dx="5.61193" dy="-11.2239"/>
<feGaussianBlur stdDeviation="0.701491"/>
<feComposite in2="hardAlpha" operator="arithmetic" k2="-1" k3="1"/>
<feColorMatrix type="matrix" values="0 0 0 0 0 0 0 0 0 0 0 0 0 0 0 0 0 0 0.42 0"/>
<feBlend mode="overlay" in2="shape" result="effect2_innerShadow_557_34721"/>
</filter>
<filter id="filter3_di_557_34721" x="91.4428" y="61.8963" width="83.1262" height="41.6483" filterUnits="userSpaceOnUse" color-interpolation-filters="sRGB">
<feFlood flood-opacity="0" result="BackgroundImageFix"/>
<feColorMatrix in="SourceAlpha" type="matrix" values="0 0 0 0 0 0 0 0 0 0 0 0 0 0 0 0 0 0 127 0" result="hardAlpha"/>
<feOffset dy="5.61193"/>
<feGaussianBlur stdDeviation="2.80596"/>
<feColorMatrix type="matrix" values="0 0 0 0 0 0 0 0 0 0 0 0 0 0 0 0 0 0 0.08 0"/>
<feBlend mode="normal" in2="BackgroundImageFix" result="effect1_dropShadow_557_34721"/>
<feBlend mode="normal" in="SourceGraphic" in2="effect1_dropShadow_557_34721" result="shape"/>
<feColorMatrix in="SourceAlpha" type="matrix" values="0 0 0 0 0 0 0 0 0 0 0 0 0 0 0 0 0 0 127 0" result="hardAlpha"/>
<feOffset dx="-5.61193" dy="-11.2239"/>
<feGaussianBlur stdDeviation="0.701491"/>
<feComposite in2="hardAlpha" operator="arithmetic" k2="-1" k3="1"/>
<feColorMatrix type="matrix" values="0 0 0 0 0 0 0 0 0 0 0 0 0 0 0 0 0 0 0.11 0"/>
<feBlend mode="overlay" in2="shape" result="effect2_innerShadow_557_34721"/>
</filter>
<filter id="filter4_di_557_34721" x="105.003" y="47.1878" width="83.1262" height="41.6483" filterUnits="userSpaceOnUse" color-interpolation-filters="sRGB">
<feFlood flood-opacity="0" result="BackgroundImageFix"/>
<feColorMatrix in="SourceAlpha" type="matrix" values="0 0 0 0 0 0 0 0 0 0 0 0 0 0 0 0 0 0 127 0" result="hardAlpha"/>
<feOffset dy="5.61193"/>
<feGaussianBlur stdDeviation="2.80596"/>
<feColorMatrix type="matrix" values="0 0 0 0 0 0 0 0 0 0 0 0 0 0 0 0 0 0 0.08 0"/>
<feBlend mode="normal" in2="BackgroundImageFix" result="effect1_dropShadow_557_34721"/>
<feBlend mode="normal" in="SourceGraphic" in2="effect1_dropShadow_557_34721" result="shape"/>
<feColorMatrix in="SourceAlpha" type="matrix" values="0 0 0 0 0 0 0 0 0 0 0 0 0 0 0 0 0 0 127 0" result="hardAlpha"/>
<feOffset dx="-5.61193" dy="-11.2239"/>
<feGaussianBlur stdDeviation="0.701491"/>
<feComposite in2="hardAlpha" operator="arithmetic" k2="-1" k3="1"/>
<feColorMatrix type="matrix" values="0 0 0 0 0 0 0 0 0 0 0 0 0 0 0 0 0 0 0.19 0"/>
<feBlend mode="overlay" in2="shape" result="effect2_innerShadow_557_34721"/>
</filter>
<filter id="filter5_di_557_34721" x="118.197" y="28.2855" width="83.1262" height="41.6483" filterUnits="userSpaceOnUse" color-interpolation-filters="sRGB">
<feFlood flood-opacity="0" result="BackgroundImageFix"/>
<feColorMatrix in="SourceAlpha" type="matrix" values="0 0 0 0 0 0 0 0 0 0 0 0 0 0 0 0 0 0 127 0" result="hardAlpha"/>
<feOffset dy="5.61193"/>
<feGaussianBlur stdDeviation="2.80596"/>
<feColorMatrix type="matrix" values="0 0 0 0 0 0 0 0 0 0 0 0 0 0 0 0 0 0 0.08 0"/>
<feBlend mode="normal" in2="BackgroundImageFix" result="effect1_dropShadow_557_34721"/>
<feBlend mode="normal" in="SourceGraphic" in2="effect1_dropShadow_557_34721" result="shape"/>
<feColorMatrix in="SourceAlpha" type="matrix" values="0 0 0 0 0 0 0 0 0 0 0 0 0 0 0 0 0 0 127 0" result="hardAlpha"/>
<feOffset dx="-5.61193" dy="-11.2239"/>
<feGaussianBlur stdDeviation="0.701491"/>
<feComposite in2="hardAlpha" operator="arithmetic" k2="-1" k3="1"/>
<feColorMatrix type="matrix" values="0 0 0 0 0 0 0 0 0 0 0 0 0 0 0 0 0 0 0.42 0"/>
<feBlend mode="overlay" in2="shape" result="effect2_innerShadow_557_34721"/>
</filter>
<filter id="filter6_d_557_34721" x="66.0242" y="0.556907" width="71.2153" height="71.2148" filterUnits="userSpaceOnUse" color-interpolation-filters="sRGB">
<feFlood flood-opacity="0" result="BackgroundImageFix"/>
<feColorMatrix in="SourceAlpha" type="matrix" values="0 0 0 0 0 0 0 0 0 0 0 0 0 0 0 0 0 0 127 0" result="hardAlpha"/>
<feOffset/>
<feGaussianBlur stdDeviation="5.61193"/>
<feColorMatrix type="matrix" values="0 0 0 0 0 0 0 0 0 0 0 0 0 0 0 0 0 0 0.2 0"/>
<feBlend mode="normal" in2="BackgroundImageFix" result="effect1_dropShadow_557_34721"/>
<feBlend mode="normal" in="SourceGraphic" in2="effect1_dropShadow_557_34721" result="shape"/>
</filter>
<filter id="filter7_d_557_34721" x="91.6179" y="26.0559" width="71.2153" height="71.2148" filterUnits="userSpaceOnUse" color-interpolation-filters="sRGB">
<feFlood flood-opacity="0" result="BackgroundImageFix"/>
<feColorMatrix in="SourceAlpha" type="matrix" values="0 0 0 0 0 0 0 0 0 0 0 0 0 0 0 0 0 0 127 0" result="hardAlpha"/>
<feOffset/>
<feGaussianBlur stdDeviation="5.61193"/>
<feColorMatrix type="matrix" values="0 0 0 0 0 0 0 0 0 0 0 0 0 0 0 0 0 0 0.2 0"/>
<feBlend mode="normal" in2="BackgroundImageFix" result="effect1_dropShadow_557_34721"/>
<feBlend mode="normal" in="SourceGraphic" in2="effect1_dropShadow_557_34721" result="shape"/>
</filter>
<filter id="filter8_d_557_34721" x="66.1179" y="51.6492" width="71.2153" height="71.2148" filterUnits="userSpaceOnUse" color-interpolation-filters="sRGB">
<feFlood flood-opacity="0" result="BackgroundImageFix"/>
<feColorMatrix in="SourceAlpha" type="matrix" values="0 0 0 0 0 0 0 0 0 0 0 0 0 0 0 0 0 0 127 0" result="hardAlpha"/>
<feOffset/>
<feGaussianBlur stdDeviation="5.61193"/>
<feColorMatrix type="matrix" values="0 0 0 0 0 0 0 0 0 0 0 0 0 0 0 0 0 0 0.2 0"/>
<feBlend mode="normal" in2="BackgroundImageFix" result="effect1_dropShadow_557_34721"/>
<feBlend mode="normal" in="SourceGraphic" in2="effect1_dropShadow_557_34721" result="shape"/>
</filter>
<filter id="filter9_d_557_34721" x="40.5261" y="26.1502" width="71.2153" height="71.2148" filterUnits="userSpaceOnUse" color-interpolation-filters="sRGB">
<feFlood flood-opacity="0" result="BackgroundImageFix"/>
<feColorMatrix in="SourceAlpha" type="matrix" values="0 0 0 0 0 0 0 0 0 0 0 0 0 0 0 0 0 0 127 0" result="hardAlpha"/>
<feOffset/>
<feGaussianBlur stdDeviation="5.61193"/>
<feColorMatrix type="matrix" values="0 0 0 0 0 0 0 0 0 0 0 0 0 0 0 0 0 0 0.2 0"/>
<feBlend mode="normal" in2="BackgroundImageFix" result="effect1_dropShadow_557_34721"/>
<feBlend mode="normal" in="SourceGraphic" in2="effect1_dropShadow_557_34721" result="shape"/>
</filter>
<filter id="filter10_d_557_34721" x="42.6699" y="2.70264" width="118.018" height="118.017" filterUnits="userSpaceOnUse" color-interpolation-filters="sRGB">
<feFlood flood-opacity="0" result="BackgroundImageFix"/>
<feColorMatrix in="SourceAlpha" type="matrix" values="0 0 0 0 0 0 0 0 0 0 0 0 0 0 0 0 0 0 127 0" result="hardAlpha"/>
<feOffset/>
<feGaussianBlur stdDeviation="8"/>
<feColorMatrix type="matrix" values="0 0 0 0 0 0 0 0 0 0 0 0 0 0 0 0 0 0 0.15 0"/>
<feBlend mode="normal" in2="BackgroundImageFix" result="effect1_dropShadow_557_34721"/>
<feBlend mode="normal" in="SourceGraphic" in2="effect1_dropShadow_557_34721" result="shape"/>
</filter>
<filter id="filter11_i_557_34721" x="68.5254" y="28.5596" width="66.3047" height="68.3047" filterUnits="userSpaceOnUse" color-interpolation-filters="sRGB">
<feFlood flood-opacity="0" result="BackgroundImageFix"/>
<feBlend mode="normal" in="SourceGraphic" in2="BackgroundImageFix" result="shape"/>
<feColorMatrix in="SourceAlpha" type="matrix" values="0 0 0 0 0 0 0 0 0 0 0 0 0 0 0 0 0 0 127 0" result="hardAlpha"/>
<feOffset dy="2"/>
<feGaussianBlur stdDeviation="5"/>
<feComposite in2="hardAlpha" operator="arithmetic" k2="-1" k3="1"/>
<feColorMatrix type="matrix" values="0 0 0 0 0 0 0 0 0 0 0 0 0 0 0 0 0 0 0.8 0"/>
<feBlend mode="overlay" in2="shape" result="effect1_innerShadow_557_34721"/>
</filter>
<linearGradient id="paint0_linear_557_34721" x1="101.678" y1="18.7026" x2="101.678" y2="104.719" gradientUnits="userSpaceOnUse">
<stop stop-color="#FFEB3A"/>
<stop offset="1" stop-color="#FA7002"/>
</linearGradient>
<linearGradient id="paint1_linear_557_34721" x1="101.679" y1="20.4946" x2="101.679" y2="102.927" gradientUnits="userSpaceOnUse">
<stop stop-color="#FFDE66"/>
<stop offset="1" stop-color="#FB9811"/>
</linearGradient>
<linearGradient id="paint2_linear_557_34721" x1="101.679" y1="26.7676" x2="101.679" y2="96.6562" gradientUnits="userSpaceOnUse">
<stop stop-color="#FFAD31"/>
<stop offset="1" stop-color="#FFD446"/>
</linearGradient>
<radialGradient id="paint3_radial_557_34721" cx="0" cy="0" r="1" gradientUnits="userSpaceOnUse" gradientTransform="translate(91.2178 46.0592) rotate(53.514) scale(49.9567 63.5746)">
<stop stop-color="#ED7CFF"/>
<stop offset="1" stop-color="#6E31E2"/>
</radialGradient>
<radialGradient id="paint4_radial_557_34721" cx="0" cy="0" r="1" gradientUnits="userSpaceOnUse" gradientTransform="translate(88.2891 43.1304) rotate(51.3402) scale(8.03698 16.0907)">
<stop stop-color="white" stop-opacity="0.6"/>
<stop offset="1" stop-color="white" stop-opacity="0"/>
</radialGradient>
<linearGradient id="paint5_linear_557_34721" x1="93.6615" y1="54.972" x2="98.2084" y2="58.2645" gradientUnits="userSpaceOnUse">
<stop stop-color="#FFD2F6"/>
<stop offset="1" stop-color="#FFEEFC"/>
</linearGradient>
<linearGradient id="paint6_linear_557_34721" x1="104.251" y1="55.8099" x2="111.793" y2="52.7548" gradientUnits="userSpaceOnUse">
<stop stop-color="#FFC2F1"/>
<stop offset="1" stop-color="#FFCDF4"/>
</linearGradient>
<linearGradient id="paint7_linear_557_34721" x1="103.369" y1="65.8642" x2="106.913" y2="71.8938" gradientUnits="userSpaceOnUse">
<stop stop-color="#FF88EF"/>
<stop offset="1" stop-color="#E962D6"/>
</linearGradient>
<linearGradient id="paint8_linear_557_34721" x1="98.6621" y1="64.1884" x2="98.9273" y2="74.2435" gradientUnits="userSpaceOnUse">
<stop stop-color="#FFCDF4"/>
<stop offset="1" stop-color="#FF97E8"/>
</linearGradient>
</defs>
</svg>
