<svg width="24" height="25" viewBox="0 0 24 25" fill="none" xmlns="http://www.w3.org/2000/svg">
<g id="vuesax/bold/like">
<g id="like">
<path id="Vector" d="M8.39062 19.1977V9.03774C8.39062 8.63774 8.51062 8.24774 8.73062 7.91774L11.4606 3.85774C11.8906 3.20774 12.9606 2.74774 13.8706 3.08774C14.8506 3.41774 15.5006 4.51774 15.2906 5.49774L14.7706 8.76774C14.7306 9.06774 14.8106 9.33774 14.9806 9.54774C15.1506 9.73774 15.4006 9.85774 15.6706 9.85774H19.7806C20.5706 9.85774 21.2506 10.1777 21.6506 10.7377C22.0306 11.2777 22.1006 11.9777 21.8506 12.6877L19.3906 20.1777C19.0806 21.4177 17.7306 22.4277 16.3906 22.4277H12.4906C11.8206 22.4277 10.8806 22.1977 10.4506 21.7677L9.17062 20.7777C8.68062 20.4077 8.39062 19.8177 8.39062 19.1977Z" fill="#1935CA"/>
<path id="Vector_2" d="M5.21 7.08594H4.18C2.63 7.08594 2 7.68594 2 9.16594V19.2259C2 20.7059 2.63 21.3059 4.18 21.3059H5.21C6.76 21.3059 7.39 20.7059 7.39 19.2259V9.16594C7.39 7.68594 6.76 7.08594 5.21 7.08594Z" fill="#1935CA"/>
</g>
</g>
</svg>
