<svg width="24" height="25" viewBox="0 0 24 25" fill="none" xmlns="http://www.w3.org/2000/svg">
<g id="vuesax/linear/like">
<g id="like">
<path id="Vector" d="M7.48047 19.0575L10.5805 21.4575C10.9805 21.8575 11.8805 22.0575 12.4805 22.0575H16.2805C17.4805 22.0575 18.7805 21.1575 19.0805 19.9575L21.4805 12.6575C21.9805 11.2575 21.0805 10.0575 19.5805 10.0575H15.5805C14.9805 10.0575 14.4805 9.55749 14.5805 8.85749L15.0805 5.65749C15.2805 4.75749 14.6805 3.75749 13.7805 3.45749C12.9805 3.15749 11.9805 3.55749 11.5805 4.15749L7.48047 10.2575" stroke="#292D32" stroke-width="1.5" stroke-miterlimit="10"/>
<path id="Vector_2" d="M2.37891 19.0555V9.25547C2.37891 7.85547 2.97891 7.35547 4.37891 7.35547H5.37891C6.77891 7.35547 7.37891 7.85547 7.37891 9.25547V19.0555C7.37891 20.4555 6.77891 20.9555 5.37891 20.9555H4.37891C2.97891 20.9555 2.37891 20.4555 2.37891 19.0555Z" stroke="#292D32" stroke-width="1.5" stroke-linecap="round" stroke-linejoin="round"/>
</g>
</g>
</svg>
