<svg width="24" height="25" viewBox="0 0 24 25" fill="none" xmlns="http://www.w3.org/2000/svg">
<g id="vuesax/linear/document-sketch">
<g id="document-sketch">
<path id="Vector" d="M22 10.5V15.5C22 20.5 20 22.5 15 22.5H9C4 22.5 2 20.5 2 15.5V9.5C2 4.5 4 2.5 9 2.5H14" stroke="#292D32" stroke-width="1.5" stroke-linecap="round" stroke-linejoin="round"/>
<path id="Vector_2" d="M22 10.5H18C15 10.5 14 9.5 14 6.5V2.5L22 10.5Z" stroke="#292D32" stroke-width="1.5" stroke-linecap="round" stroke-linejoin="round"/>
<path id="Vector_3" fill-rule="evenodd" clip-rule="evenodd" d="M8.31975 12.5H10.9698C11.2398 12.5 11.5798 12.68 11.7198 12.9L12.8498 14.6C13.0798 14.94 13.0298 15.45 12.7398 15.74L10.2798 18.2C9.92975 18.55 9.34975 18.55 8.99975 18.2L6.53975 15.74C6.24975 15.45 6.19975 14.94 6.42975 14.6L7.55975 12.9C7.71975 12.68 8.05975 12.5 8.31975 12.5Z" stroke="#292D32" stroke-width="1.5" stroke-miterlimit="10" stroke-linecap="round" stroke-linejoin="round"/>
</g>
</g>
</svg>
