<svg width="180" height="98" viewBox="0 0 180 98" fill="none" xmlns="http://www.w3.org/2000/svg">
<path fill-rule="evenodd" clip-rule="evenodd" d="M100.741 79.1435H52.8541C50.8197 79.1435 49.1705 76.8188 49.1705 73.951C49.1705 71.0833 50.8197 68.7586 52.8541 68.7586H32.3311C30.2967 68.7586 28.6475 66.4338 28.6475 63.5661C28.6475 60.6984 30.2967 58.3736 32.3311 58.3736H53.3804C55.4148 58.3736 57.064 56.0489 57.064 53.1811C57.064 50.3134 55.4148 47.9887 53.3804 47.9887H40.2246C38.1902 47.9887 36.5409 45.6639 36.5409 42.7962C36.5409 39.9285 38.1902 37.6037 40.2246 37.6037H61.2738C59.2394 37.6037 57.5902 35.279 57.5902 32.4112C57.5902 29.5435 59.2394 27.2188 61.2738 27.2188H91.269C93.3034 27.2188 94.9527 29.5435 94.9527 32.4112C94.9527 35.279 93.3034 37.6037 91.269 37.6037H124.948C126.982 37.6037 128.631 39.9285 128.631 42.7962C128.631 45.6639 126.982 47.9887 124.948 47.9887H136.525C138.559 47.9887 140.209 50.3134 140.209 53.1811C140.209 56.0489 138.559 58.3736 136.525 58.3736H126.527C124.492 58.3736 122.843 60.6984 122.843 63.5661C122.843 66.4338 124.492 68.7586 126.527 68.7586H129.684C131.718 68.7586 133.368 71.0833 133.368 73.951C133.368 76.8188 131.718 79.1435 129.684 79.1435H102.32C102.049 79.1435 101.785 79.1023 101.531 79.024C101.276 79.1023 101.012 79.1435 100.741 79.1435Z" fill="#F3F7FF"/>
<ellipse cx="171.243" cy="87.5695" rx="8.24727" ry="8.25702" fill="#E7F6FF"/>
<path d="M16.1617 96.5156H41.4386M0.996094 96.5156H9.09264M169.476 96.5156H172.86M137.514 96.5156H163.938" stroke="#75A4FE" stroke-width="1.28527" stroke-linecap="round" stroke-linejoin="round"/>
<path d="M109.834 6.56758L96.7566 21.257M79.0839 1.49219V21.257M48.4512 6.56758L61.5285 21.257" stroke="#75A4FE" stroke-width="1.28527" stroke-linecap="round" stroke-linejoin="round"/>
<path d="M68.7529 80.5619L76.1507 86.2959C77.1052 87.2516 79.2529 87.7294 80.6847 87.7294H89.7529C92.6166 87.7294 95.7188 85.5792 96.4347 82.7122L102.162 65.2711C103.355 61.9263 101.207 59.0592 97.6279 59.0592H88.0825C86.6507 59.0592 85.4575 57.8646 85.6961 56.1922L86.8893 48.5468C87.3666 46.3966 85.9347 44.0074 83.787 43.2906C81.8779 42.5739 79.4916 43.5295 78.537 44.963L68.7529 59.5371" stroke="#75A4FE" stroke-width="1.28527" stroke-miterlimit="10"/>
<path d="M56.582 80.5628V57.1488C56.582 53.804 58.0138 52.6094 61.3548 52.6094H63.7411C67.082 52.6094 68.5138 53.804 68.5138 57.1488V80.5628C68.5138 83.9077 67.082 85.1023 63.7411 85.1023H61.3548C58.0138 85.1023 56.582 83.9077 56.582 80.5628Z" stroke="#75A4FE" stroke-width="1.28527" stroke-linecap="round" stroke-linejoin="round"/>
</svg>
