<svg width="16" height="16" viewBox="0 0 16 16" fill="none" xmlns="http://www.w3.org/2000/svg">
<g id="vuesax/bold/enjin-coin-(enj)">
<g id="enjin-coin-(enj)">
<path id="Vector" d="M8.00065 1.33203C4.32065 1.33203 1.33398 4.3187 1.33398 7.9987C1.33398 11.6787 4.32065 14.6654 8.00065 14.6654C11.6807 14.6654 14.6673 11.6787 14.6673 7.9987C14.6673 4.3187 11.6807 1.33203 8.00065 1.33203ZM10.5007 7.4987C10.774 7.4987 11.0007 7.72536 11.0007 7.9987C11.0007 8.27203 10.774 8.4987 10.5007 8.4987H5.66732V8.66536C5.66732 9.49203 6.34065 10.1654 7.16732 10.1654H10.5007C10.774 10.1654 11.0007 10.392 11.0007 10.6654C11.0007 10.9387 10.774 11.1654 10.5007 11.1654H7.16732C5.78732 11.1654 4.66732 10.0454 4.66732 8.66536V7.33203C4.66732 5.95203 5.78732 4.83203 7.16732 4.83203H10.5007C10.774 4.83203 11.0007 5.0587 11.0007 5.33203C11.0007 5.60536 10.774 5.83203 10.5007 5.83203H7.16732C6.34065 5.83203 5.66732 6.50536 5.66732 7.33203V7.4987H10.5007Z" fill="url(#paint0_linear_3369_5682)"/>
</g>
</g>
<defs>
<linearGradient id="paint0_linear_3369_5682" x1="8.00065" y1="1.33203" x2="8.00065" y2="14.6654" gradientUnits="userSpaceOnUse">
<stop stop-color="#95ECFB"/>
<stop offset="0.132812" stop-color="#1935CA"/>
<stop offset="0.476562" stop-color="#70CCFF"/>
<stop offset="0.820312" stop-color="#1935CA"/>
<stop offset="1" stop-color="#70CCFF"/>
</linearGradient>
</defs>
</svg>
