<svg width="48" height="48" viewBox="0 0 48 48" fill="none" xmlns="http://www.w3.org/2000/svg">
<circle cx="24" cy="24" r="24" fill="#1935CA"/>
<g clip-path="url(#clip0_601_24)">
<path d="M22.5469 20.375L16.6875 23.5L14.3438 30.5312L18.6406 33.2656H30.3594L34.6563 30.5312L32.3125 23.3879L26.4531 20.375H22.5469Z" fill="#1935CA"/>
<path d="M28.1133 17.6407L27.0657 13.4502C27.0023 13.1967 26.856 12.9716 26.65 12.8108C26.444 12.6499 26.1901 12.5626 25.9288 12.5626H23.0712C22.8099 12.5626 22.556 12.6499 22.35 12.8108C22.144 12.9716 21.9977 13.1967 21.9343 13.4502L20.8867 17.6407H28.1133Z" fill="#1935CA"/>
<path d="M21.375 17.6406H27.625V19.5938C27.625 20.4226 27.2958 21.2174 26.7097 21.8035C26.1237 22.3895 25.3288 22.7188 24.5 22.7188C23.6712 22.7188 22.8763 22.3895 22.2903 21.8035C21.7042 21.2174 21.375 20.4226 21.375 19.5938V17.6406Z" fill="#1935CA"/>
<path d="M30.3594 25.8438H18.6406V34.4375H30.3594V25.8438Z" fill="#1935CA"/>
<path d="M24.5002 29.3636C24.295 29.3666 24.0991 29.4501 23.9549 29.5963C23.8108 29.7425 23.73 29.9396 23.73 30.1449C23.73 30.3502 23.8108 30.5473 23.9549 30.6935C24.0991 30.8397 24.295 30.9232 24.5003 30.9261C24.7056 30.9232 24.9015 30.8396 25.0456 30.6934C25.1897 30.5472 25.2705 30.3502 25.2705 30.1449C25.2705 29.9396 25.1897 29.7425 25.0456 29.5963C24.9014 29.4501 24.7055 29.3665 24.5002 29.3636V29.3636Z" fill="white"/>
<path fill-rule="evenodd" clip-rule="evenodd" d="M23.0667 10V10.2333V11.8667H23.7667V15.6118C21.8227 15.7332 20.2667 17.3475 20.2667 19.316V21.2H19.3333C19.1372 21.2 18.9554 21.2614 18.8047 21.3659L15.3548 19.4491C15.3613 19.411 15.3667 19.3732 15.3667 19.3333C15.3667 19.0315 15.1702 18.7735 14.9 18.6762V16.0667H15.6V14.2H13.7333V14.4333V16.0667H14.4333V18.6762C14.1631 18.7735 13.9667 19.0315 13.9667 19.3333C13.9667 19.7172 14.2828 20.0333 14.6667 20.0333C14.8425 20.0333 15.0025 19.9644 15.126 19.8556L18.4966 21.7286C18.4367 21.8516 18.4 21.9881 18.4 22.1333V25.6333H11.8667V24.9333H10V25.1667V26.8H11.8667V26.1H18.4V26.8V27.726L15.127 29.5453C15.0032 29.4358 14.8431 29.3667 14.6667 29.3667C14.2828 29.3667 13.9667 29.6828 13.9667 30.0667C13.9667 30.3685 14.1631 30.6256 14.4333 30.7229V33.3333H13.7333V33.5667V35.2H15.6V33.3333H14.9V30.7229C15.1702 30.6256 15.3667 30.3685 15.3667 30.0667C15.3667 30.0274 15.3612 29.9894 15.3548 29.9518L18.4 28.2602V30.0667V30.5333C18.4 31.0464 18.8203 31.4667 19.3333 31.4667H23.7667V36.1333H23.0667V36.3667V38H24.9333V36.1333H24.2333V31.4667H28.6667C29.1797 31.4667 29.6 31.0464 29.6 30.5333V28.2602L32.6452 29.9518C32.6388 29.9894 32.6333 30.0274 32.6333 30.0667C32.6333 30.3685 32.8298 30.6256 33.1 30.7229V33.3333H32.4V33.5667V35.2H34.2667V33.3333H33.5667V30.7229C33.8369 30.6256 34.0333 30.3685 34.0333 30.0667C34.0333 29.6828 33.7172 29.3667 33.3333 29.3667C33.1573 29.3667 32.9975 29.4354 32.874 29.5444L29.6 27.727V26.1H36.1333V26.8H38V24.9333H36.1333V25.1667V25.6333H29.6V22.1333C29.6 21.9881 29.5633 21.8516 29.5034 21.7286L32.8749 19.8556C32.9984 19.9642 33.1577 20.0333 33.3333 20.0333C33.7172 20.0333 34.0333 19.7172 34.0333 19.3333C34.0333 19.0315 33.8369 18.7735 33.5667 18.6762V16.0667H34.2667V14.2H32.4V14.4333V16.0667H33.1V18.6762C32.8298 18.7735 32.6333 19.0315 32.6333 19.3333C32.6333 19.3732 32.6387 19.411 32.6452 19.4491L29.1953 21.3659C29.0446 21.2614 28.8628 21.2 28.6667 21.2H22.1306V19.3197C22.1306 18.2792 22.9431 17.4667 23.9991 17.4667C25.0518 17.4667 25.8618 18.2746 25.8667 19.3105V19.3333C25.8667 19.8464 26.287 20.2667 26.8 20.2667C27.313 20.2667 27.7333 19.8464 27.7333 19.3333V19.2641C27.7336 19.246 27.7318 19.2279 27.7279 19.2103C27.6729 17.2902 26.1421 15.731 24.2333 15.6118V11.8667H24.9333V10H23.0667ZM23.5333 10.4667H24.4667V11.4H23.5333V10.4667ZM14.2 14.6667H15.1333V15.6H14.2V14.6667ZM32.8667 14.6667H33.8V15.6H32.8667V14.6667ZM24 16.0667C25.7995 16.0667 27.2667 17.5241 27.2667 19.316V19.3333C27.2667 19.5959 27.0626 19.8 26.8 19.8C26.5374 19.8 26.3333 19.5959 26.3333 19.3333V19.3197H26.3342C26.3342 19.3135 26.3334 19.3076 26.3333 19.3014V19.2641C26.3336 19.2475 26.332 19.231 26.3288 19.2148C26.2741 17.9768 25.2628 17 23.9991 17C22.6997 17 21.6639 18.0321 21.6639 19.3197V21.2H20.7333V19.316C20.7333 17.5241 22.2005 16.0667 24 16.0667ZM14.6667 19.1C14.7983 19.1 14.9 19.2017 14.9 19.3333C14.9 19.465 14.7983 19.5667 14.6667 19.5667C14.535 19.5667 14.4333 19.465 14.4333 19.3333C14.4333 19.2017 14.535 19.1 14.6667 19.1ZM33.3333 19.1C33.465 19.1 33.5667 19.2017 33.5667 19.3333C33.5667 19.465 33.465 19.5667 33.3333 19.5667C33.2017 19.5667 33.1 19.465 33.1 19.3333C33.1 19.2017 33.2017 19.1 33.3333 19.1ZM19.3333 21.6667H28.6667C28.9292 21.6667 29.1333 21.8708 29.1333 22.1333V26.8H18.8667V22.1333C18.8667 21.8708 19.0708 21.6667 19.3333 21.6667ZM24 22.6C23.3584 22.6 22.8333 23.1251 22.8333 23.7667C22.8336 24.1259 23.0228 24.4399 23.3 24.659V26.3324H24.7V24.6581C24.977 24.4393 25.166 24.1255 25.1667 23.7667C25.1667 23.1251 24.6416 22.6 24 22.6ZM24 23.0667C24.3894 23.0667 24.7 23.3773 24.7 23.7667C24.6996 24.0167 24.5665 24.2469 24.35 24.3719L24.2333 24.4393V25.8667H23.7667V24.4402L23.65 24.3728C23.4333 24.2476 23.3002 24.0169 23.3 23.7667C23.3 23.3773 23.6106 23.0667 24 23.0667ZM10.4667 25.4H11.4V25.6333V26.1V26.3333H10.4667V25.4ZM36.6 25.4H37.5333V26.3333H36.6V25.4ZM18.8667 27.2667H29.1333V29.6H18.8667V27.2667ZM19.5667 27.7333V27.9667V29.1333H20.9667V27.7333H19.5667ZM21.4333 27.7333V27.9667V29.1333H22.8333V27.7333H21.4333ZM23.3 27.7333V27.9667V29.1333H24.7V27.7333H23.3ZM25.1667 27.7333V27.9667V29.1333H26.5667V27.7333H25.1667ZM27.0333 27.7333V27.9667V29.1333H28.4333V27.7333H27.0333ZM20.0333 28.2H20.5V28.6667H20.0333V28.2ZM21.9 28.2H22.3667V28.6667H21.9V28.2ZM23.7667 28.2H24.2333V28.6667H23.7667V28.2ZM25.6333 28.2H26.1V28.6667H25.6333V28.2ZM27.5 28.2H27.9667V28.6667H27.5V28.2ZM14.6667 29.8333C14.7983 29.8333 14.9 29.9351 14.9 30.0667C14.9 30.1983 14.7983 30.3 14.6667 30.3C14.535 30.3 14.4333 30.1983 14.4333 30.0667C14.4333 29.9351 14.535 29.8333 14.6667 29.8333ZM33.3333 29.8333C33.465 29.8333 33.5667 29.9351 33.5667 30.0667C33.5667 30.1983 33.465 30.3 33.3333 30.3C33.2017 30.3 33.1 30.1983 33.1 30.0667C33.1 29.9351 33.2017 29.8333 33.3333 29.8333ZM18.8667 30.0667H29.1333V30.5333C29.1333 30.7959 28.9292 31 28.6667 31H19.3333C19.0708 31 18.8667 30.7959 18.8667 30.5333V30.0667ZM14.2 33.8H15.1333V34.7333H14.2V33.8ZM32.8667 33.8H33.8V34.7333H32.8667V33.8ZM23.5333 36.6H24.4667V37.5333H23.5333V36.6Z" fill="white"/>
<g clip-path="url(#clip1_601_24)">
<path d="M22.4375 19.9L17.75 22.4L15.875 28.025L19.3125 30.2125H28.6875L32.125 28.025L30.25 22.3103L25.5625 19.9H22.4375Z" fill="#1935CA"/>
<path d="M26.8906 17.7126L26.0525 14.3602C26.0018 14.1574 25.8848 13.9773 25.72 13.8486C25.5552 13.72 25.3521 13.6501 25.143 13.6501H22.857C22.6479 13.6501 22.4448 13.72 22.28 13.8486C22.1152 13.9773 21.9982 14.1574 21.9475 14.3602L21.1094 17.7126H26.8906Z" fill="#1935CA"/>
<path d="M21.5 17.7125H26.5V19.275C26.5 19.9381 26.2366 20.574 25.7678 21.0428C25.2989 21.5116 24.663 21.775 24 21.775C23.337 21.775 22.7011 21.5116 22.2322 21.0428C21.7634 20.574 21.5 19.9381 21.5 19.275V17.7125Z" fill="#1935CA"/>
<path d="M28.6875 24.275H19.3125V31.15H28.6875V24.275Z" fill="#1935CA"/>
<path d="M26.4097 17.3409H26.0895H21.9092H21.589L21.6666 17.0303L22.3104 14.4552C22.3105 14.455 22.3105 14.4549 22.3105 14.4548L26.4097 17.3409ZM26.4097 17.3409L26.332 17.0303L25.6879 14.4552C25.6879 14.4551 25.6879 14.455 25.6879 14.4549L26.4097 17.3409ZM18.6385 30.7784H19.497L18.7728 30.3175L15.8792 28.4761L15.7449 28.687L15.8784 28.4756C15.7479 28.3932 15.6492 28.2691 15.5984 28.1233C15.5476 27.9776 15.5476 27.819 15.5985 27.6733L15.5986 27.6733L15.5998 27.6698L17.3526 22.405C17.3526 22.4048 17.3527 22.4046 17.3528 22.4044C17.4091 22.2388 17.525 22.1001 17.6781 22.0155L21.0754 20.2052L21.2557 20.1091L21.1975 19.9132C21.145 19.7371 21.1274 19.471 21.1245 19.1687C21.1233 19.0513 21.1245 18.9244 21.1257 18.8C21.1273 18.6286 21.1289 18.4621 21.1242 18.3319L21.1155 18.0909H20.8743H19.6264C19.5285 18.0891 19.4351 18.049 19.3663 17.9792C19.2971 17.9091 19.2583 17.8145 19.2583 17.716C19.2583 17.6174 19.2971 17.5228 19.3663 17.4527C19.4351 17.3829 19.5284 17.3428 19.6264 17.3409H20.6207H20.8159L20.8632 17.1516L21.5829 14.2727L21.5829 14.2724C21.6536 13.9884 21.8174 13.7362 22.0481 13.556C22.2788 13.3758 22.5632 13.2781 22.8559 13.2784H22.8561L25.1422 13.2784L25.1426 13.2784C25.4353 13.278 25.7198 13.3757 25.9505 13.5559C26.1812 13.7361 26.3449 13.9885 26.4154 14.2726L26.4155 14.273L27.1354 17.1516L27.1828 17.3409H27.378H28.3743C28.4738 17.3409 28.5692 17.3805 28.6395 17.4508C28.7098 17.5211 28.7493 17.6165 28.7493 17.7159C28.7493 17.8154 28.7098 17.9108 28.6395 17.9811C28.5692 18.0514 28.4738 18.0909 28.3743 18.0909H27.1243H26.8612L26.8747 18.3538C26.9017 18.8796 26.8763 19.4068 26.7988 19.9276L26.7724 20.1048L26.9318 20.1867L30.3051 21.9199L30.306 21.9204C30.3864 21.9613 30.458 22.0177 30.5165 22.0864C30.575 22.1551 30.6194 22.2347 30.647 22.3206L30.6475 22.3221L32.4051 27.6787C32.4052 27.6789 32.4052 27.6791 32.4053 27.6793C32.4519 27.8248 32.4492 27.9816 32.3978 28.1255C32.3463 28.2693 32.2489 28.3922 32.1207 28.4751C32.1205 28.4753 32.1203 28.4754 32.12 28.4756L29.2259 30.3175L28.5017 30.7784H29.3601H30.2473C30.3452 30.7803 30.4385 30.8204 30.5072 30.8902C30.5764 30.9604 30.6151 31.0549 30.6151 31.1534C30.6151 31.2519 30.5764 31.3465 30.5072 31.4167C30.4385 31.4865 30.3451 31.5266 30.2472 31.5284H17.7515C17.6535 31.5266 17.5601 31.4865 17.4913 31.4167C17.4221 31.3466 17.3833 31.252 17.3833 31.1535C17.3833 31.0549 17.4221 30.9603 17.4913 30.8902C17.56 30.8204 17.6534 30.7803 17.7513 30.7784H18.6385ZM19.6868 30.5284V30.7784H19.9368H28.0618H28.3118V30.5284V24.9034V24.6534H28.0618H19.9368H19.6868V24.9034V30.5284ZM21.8743 18.3409V19.0284H21.8663L21.8745 19.2863C21.963 22.0863 26.0352 22.0873 26.1242 19.2864L26.1243 19.2864V19.2784V18.3409V18.0909H25.8743H22.1243H21.8743V18.3409ZM25.1421 14.0284H22.8563H25.1421ZM18.1451 22.6163L18.057 22.6633L18.0254 22.758L16.3851 27.6846L16.3235 27.8697L16.4881 27.9745L18.5526 29.2882L18.9368 29.5327V29.0773V24.2785C18.9368 24.179 18.9764 24.0836 19.0467 24.0133C19.117 23.943 19.2124 23.9034 19.3118 23.9034H28.6868C28.7863 23.9034 28.8817 23.943 28.952 24.0133C29.0223 24.0836 29.0618 24.179 29.0618 24.2784V29.0773V29.5327L29.4461 29.2882L31.5139 27.9723L31.6778 27.8681L31.6173 27.6835L29.9739 22.6739L29.9419 22.5763L29.8506 22.5294L26.6443 20.882L26.4541 20.7843L26.3281 20.957C26.0615 21.3223 25.7127 21.6198 25.3099 21.8254C24.9071 22.0309 24.4616 22.1389 24.0094 22.1404C23.5571 22.142 23.1109 22.0371 22.7067 21.8343C22.3025 21.6315 21.9517 21.3365 21.6826 20.973L21.5543 20.7998L21.3641 20.9012L18.1451 22.6163Z" fill="white" stroke="#1935CA" stroke-width="0.5"/>
<path d="M24 27.0909C23.8358 27.0933 23.6791 27.1601 23.5637 27.2771C23.4484 27.3941 23.3838 27.5517 23.3838 27.716C23.3838 27.8802 23.4484 28.0378 23.5638 28.1548C23.6791 28.2718 23.8358 28.3386 24 28.3409C24.1643 28.3386 24.321 28.2717 24.4363 28.1548C24.5516 28.0378 24.6162 27.8802 24.6162 27.7159C24.6162 27.5517 24.5516 27.394 24.4363 27.2771C24.3209 27.1601 24.1642 27.0933 24 27.0909V27.0909Z" fill="white"/>
</g>
</g>
<defs>
<clipPath id="clip0_601_24">
<rect width="28" height="28" fill="white" transform="translate(10 10)"/>
</clipPath>
<clipPath id="clip1_601_24">
<rect width="20" height="20" fill="white" transform="translate(14 12.4)"/>
</clipPath>
</defs>
</svg>
