<svg width="25" height="24" viewBox="0 0 25 24" fill="none" xmlns="http://www.w3.org/2000/svg">
<g id="vuesax/outline/video">
<g id="video">
<path id="Vector" d="M13.38 20.8606H7.31C3.76 20.8606 2.5 18.3706 2.5 16.0506V7.95062C2.5 4.49062 3.85 3.14062 7.31 3.14062H13.38C16.84 3.14062 18.19 4.49062 18.19 7.95062V16.0506C18.19 19.5106 16.84 20.8606 13.38 20.8606ZM7.31 4.66062C4.7 4.66062 4.02 5.34062 4.02 7.95062V16.0506C4.02 17.2806 4.45 19.3406 7.31 19.3406H13.38C15.99 19.3406 16.67 18.6606 16.67 16.0506V7.95062C16.67 5.34062 15.99 4.66062 13.38 4.66062H7.31Z" fill="#292D32"/>
<path id="Vector_2" d="M21.2797 18.1105C20.8497 18.1105 20.2997 17.9705 19.6697 17.5305L16.9997 15.6605C16.7997 15.5205 16.6797 15.2905 16.6797 15.0405V8.96048C16.6797 8.71048 16.7997 8.48048 16.9997 8.34048L19.6697 6.47048C20.8597 5.64048 21.7297 5.88048 22.1397 6.09048C22.5497 6.31048 23.2497 6.88048 23.2497 8.33048V15.6605C23.2497 17.1105 22.5497 17.6905 22.1397 17.9005C21.9497 18.0105 21.6497 18.1105 21.2797 18.1105ZM18.1897 14.6405L20.5397 16.2805C20.9897 16.5905 21.3097 16.6205 21.4397 16.5505C21.5797 16.4805 21.7297 16.2005 21.7297 15.6605V8.34048C21.7297 7.79048 21.5697 7.52048 21.4397 7.45048C21.3097 7.38048 20.9897 7.41048 20.5397 7.72048L18.1897 9.36048V14.6405Z" fill="#292D32"/>
<path id="Vector_3" d="M12 11.75C10.76 11.75 9.75 10.74 9.75 9.5C9.75 8.26 10.76 7.25 12 7.25C13.24 7.25 14.25 8.26 14.25 9.5C14.25 10.74 13.24 11.75 12 11.75ZM12 8.75C11.59 8.75 11.25 9.09 11.25 9.5C11.25 9.91 11.59 10.25 12 10.25C12.41 10.25 12.75 9.91 12.75 9.5C12.75 9.09 12.41 8.75 12 8.75Z" fill="#292D32"/>
</g>
</g>
</svg>
