<svg width="24" height="24" viewBox="0 0 24 24" fill="none" xmlns="http://www.w3.org/2000/svg">
<g id="Mask group">
<mask id="mask0_3118_31197" style="mask-type:luminance" maskUnits="userSpaceOnUse" x="0" y="0" width="24" height="24">
<g id="Group">
<path id="Vector" d="M23.3327 0.666016H0.666016V23.3327H23.3327V0.666016Z" fill="white"/>
</g>
</mask>
<g mask="url(#mask0_3118_31197)">
<g id="Group_2">
<g id="Group_3">
<path id="Vector_2" d="M11.9995 3.58008C9.49584 3.58008 7.4662 5.60972 7.4662 8.11341V8.61256C7.0068 8.68963 6.65668 9.08921 6.65668 9.57055V10.7039C6.65668 11.1938 7.01935 11.5991 7.49089 11.6657C7.65822 13.269 8.6613 14.6238 10.0567 15.2867V16.7753H9.73287C6.51388 16.7753 3.9043 19.3849 3.9043 22.6039V23.3325H20.0948V22.6039C20.0948 19.3849 17.4852 16.7753 14.2662 16.7753H13.9424V15.2867C15.3378 14.6238 16.3409 13.269 16.5082 11.6657C16.9797 11.5991 17.3424 11.1938 17.3424 10.7039V9.57055C17.3424 9.08921 16.9923 8.68963 16.5329 8.61256V8.11341C16.5329 5.60972 14.5032 3.58008 11.9995 3.58008Z" fill="#FD9841"/>
<path id="Vector_3" d="M10.0566 15.2861V15.9338C10.6637 16.2219 11.3275 16.3709 11.9995 16.37C12.6715 16.3709 13.3353 16.2219 13.9424 15.9338V15.2861C13.3353 15.5743 12.6715 15.7233 11.9995 15.7224C11.3275 15.7233 10.6637 15.5743 10.0566 15.2861Z" fill="black" fill-opacity="0.1"/>
</g>
<g id="Group_4">
<path id="Vector_4" d="M9.43934 16.7876C9.59153 16.5558 9.80192 16.348 10.0567 16.1748V17.4139C10.0567 17.8852 10.3787 18.3024 10.8725 18.5567L10.8662 18.5618L10.9398 18.7937C11.2537 18.9551 11.615 19.0471 11.9995 19.0471C12.3841 19.0471 12.7454 18.9551 13.0593 18.7937L13.1329 18.5618L13.1266 18.5567C13.6204 18.3024 13.9424 17.8852 13.9424 17.4139V16.2321C14.1597 16.3923 14.3409 16.5786 14.4764 16.7841C17.5981 16.8948 20.0948 19.4603 20.0948 22.609V23.3333H3.9043V22.609C3.9043 19.4883 6.35667 16.9405 9.43934 16.7876Z" fill="#E5E5E5"/>
<path id="Vector_5" d="M10.0565 16.175C9.50869 16.5475 9.16602 17.079 9.16602 17.669C9.16602 18.2679 9.51913 18.8066 10.0814 19.1799L10.5763 18.7901L10.947 18.8169L10.866 18.5618L10.8723 18.5568C10.3785 18.3025 10.0565 17.8853 10.0565 17.4139V16.1748V16.175ZM13.9422 17.4139C13.9422 17.8853 13.6202 18.3025 13.1264 18.5568L13.1327 18.5618L13.0517 18.8168L13.4224 18.7901L13.8798 19.1504C14.4168 18.7785 14.7517 18.2524 14.7517 17.6689C14.7517 17.1087 14.4427 16.601 13.9422 16.2322V17.4139Z" fill="white" fill-opacity="0.75"/>
</g>
<g id="Group_5">
<path id="Vector_6" fill-rule="evenodd" clip-rule="evenodd" d="M10.4713 12.7387C10.557 13.5071 11.2086 14.1045 11.9999 14.1045C12.7935 14.1045 13.4468 13.5033 13.5292 12.7315C13.5359 12.6694 13.4665 12.5664 13.3795 12.5664H10.6308C10.5434 12.5664 10.4628 12.6618 10.4713 12.7387Z" fill="black" fill-opacity="0.7"/>
<path id="Vector_7" d="M13.2617 12.5662H10.7383C10.844 12.94 11.1876 13.2139 11.5952 13.2139C11.741 13.2139 11.8786 13.1788 12 13.1167C12.1214 13.1788 12.2591 13.2139 12.4048 13.2139C12.8124 13.2139 13.156 12.94 13.2617 12.5662Z" fill="#FF4F6D"/>
<path id="Vector_8" d="M13.0162 13.72C12.9763 13.7069 12.9337 13.6997 12.8894 13.6997H11.1894C11.1263 13.6996 11.0642 13.7143 11.0078 13.7426C11.2849 13.9768 11.6361 14.105 11.9989 14.1045C12.3889 14.1045 12.7451 13.9593 13.0162 13.72Z" fill="white"/>
</g>
<g id="Group_6">
<path id="Vector_9" fill-rule="evenodd" clip-rule="evenodd" d="M11.0273 11.1895C11.0273 11.5471 11.4623 11.8371 11.9988 11.8371C12.5352 11.8371 12.9702 11.5471 12.9702 11.1895" fill="black" fill-opacity="0.16"/>
</g>
<g id="Group_7">
<path id="Vector_10" d="M11.0284 9.73294C11.0284 10.3589 10.521 10.8663 9.89505 10.8663C9.26913 10.8663 8.76172 10.3589 8.76172 9.73294C8.76172 9.10702 9.26913 8.59961 9.89505 8.59961C10.521 8.59961 11.0284 9.10702 11.0284 9.73294ZM15.2379 9.73294C15.2379 10.3589 14.7305 10.8663 14.1046 10.8663C13.4787 10.8663 12.9712 10.3589 12.9712 9.73294C12.9712 9.10702 13.4787 8.59961 14.1046 8.59961C14.7305 8.59961 15.2379 9.10702 15.2379 9.73294Z" fill="white"/>
<path id="Vector_11" d="M10.3816 9.73181C10.3816 9.86063 10.3304 9.98417 10.2393 10.0753C10.1482 10.1663 10.0247 10.2175 9.89587 10.2175C9.76705 10.2175 9.64351 10.1663 9.55242 10.0753C9.46133 9.98417 9.41016 9.86063 9.41016 9.73181C9.41016 9.60299 9.46133 9.47945 9.55242 9.38836C9.64351 9.29727 9.76705 9.24609 9.89587 9.24609C10.0247 9.24609 10.1482 9.29727 10.2393 9.38836C10.3304 9.47945 10.3816 9.60299 10.3816 9.73181ZM14.5911 9.73181C14.5911 9.86063 14.5399 9.98417 14.4488 10.0753C14.3578 10.1663 14.2342 10.2175 14.1054 10.2175C13.9766 10.2175 13.853 10.1663 13.7619 10.0753C13.6709 9.98417 13.6197 9.86063 13.6197 9.73181C13.6197 9.60299 13.6709 9.47945 13.7619 9.38836C13.853 9.29727 13.9766 9.24609 14.1054 9.24609C14.2342 9.24609 14.3578 9.29727 14.4488 9.38836C14.5399 9.47945 14.5911 9.60299 14.5911 9.73181Z" fill="black" fill-opacity="0.7"/>
</g>
<g id="Group_8">
<path id="Vector_12" fill-rule="evenodd" clip-rule="evenodd" d="M10.4103 7.86131C10.2508 8.09648 9.96134 8.23693 9.70294 8.32145C9.38375 8.42587 8.20111 8.59507 8.47959 9.24009C8.48047 9.24228 8.48198 9.24416 8.48393 9.24549C8.48588 9.24682 8.48818 9.24754 8.49054 9.24756C8.49291 9.24758 8.49522 9.24689 8.49719 9.24559C8.49916 9.24429 8.5007 9.24243 8.50161 9.24026C8.59495 9.02614 9.91544 8.82554 10.0375 8.7785C10.3974 8.64016 10.717 8.33407 10.7792 7.92502C10.8077 7.73746 10.7276 7.43534 10.6539 7.31383C10.645 7.29926 10.6236 7.30282 10.6191 7.31942C10.5899 7.42717 10.505 7.72183 10.4103 7.86131ZM13.5885 7.86131C13.748 8.09648 14.0375 8.23693 14.2959 8.32145C14.6151 8.42587 15.7976 8.59498 15.5192 9.24009C15.5183 9.24228 15.5168 9.24416 15.5149 9.24549C15.5129 9.24682 15.5106 9.24754 15.5083 9.24756C15.5059 9.24758 15.5036 9.24689 15.5016 9.24559C15.4996 9.24429 15.4981 9.24243 15.4972 9.24026C15.4039 9.02614 14.0834 8.82554 13.9613 8.7785C13.6014 8.64016 13.2818 8.33407 13.2196 7.92502C13.1911 7.73746 13.2712 7.43534 13.3449 7.31383C13.3538 7.29926 13.3752 7.30282 13.3797 7.31942C13.4089 7.42717 13.4938 7.72183 13.5885 7.86131Z" fill="black" fill-opacity="0.6"/>
</g>
<g id="Group_9">
<path id="Vector_13" d="M16.4774 11.8994C19.6812 11.1299 21.8754 9.56054 21.8754 7.74955C21.8754 5.84677 19.453 4.21064 15.9824 3.48887L15.957 3.37294C15.6313 1.88698 14.3152 0.828125 12.794 0.828125H11.2854C9.76422 0.828125 8.4481 1.88698 8.12243 3.37294L8.10081 3.47146C4.58497 4.18409 2.12305 5.83131 2.12305 7.74955C2.12305 9.56054 4.31726 11.1299 7.52111 11.8994C7.50468 11.7948 7.49191 11.6896 7.48282 11.584C7.015 11.514 6.65638 11.1106 6.65638 10.6234V9.57098C6.65638 9.08964 7.0065 8.69006 7.4659 8.61299V8.11384C7.46507 7.48643 7.59492 6.86573 7.84719 6.29128C8.54362 5.0217 15.3535 4.9567 16.1571 6.30447C16.4056 6.87529 16.5334 7.49129 16.5326 8.11384V8.61299C16.992 8.69006 17.3421 9.08964 17.3421 9.57098V10.6234C17.3421 11.1106 16.9834 11.514 16.5157 11.584C16.5066 11.6896 16.4938 11.7948 16.4774 11.8994Z" fill="#B1E2FF"/>
<path id="Vector_14" d="M16.5329 8.17375C16.8443 7.91025 17.0186 7.61543 17.0186 7.30408C17.0186 6.81197 16.583 6.36099 15.8589 6.01014C15.9922 6.09935 16.0937 6.19738 16.1574 6.30424C16.4058 6.87506 16.5337 7.49106 16.5329 8.11361V8.17375ZM13.9637 5.44113C13.3604 5.33751 12.6966 5.28027 11.9995 5.28027C11.2725 5.28027 10.5816 5.34261 9.95782 5.45473C11.1855 5.27623 12.7195 5.26829 13.9637 5.44113ZM8.08838 6.03564C7.39527 6.38268 6.98047 6.82387 6.98047 7.30408C6.98047 7.61543 7.15476 7.91025 7.46618 8.17375V8.11361C7.46535 7.4862 7.5952 6.8655 7.84747 6.29104C7.89766 6.19957 7.97942 6.11449 8.08838 6.03564Z" fill="black" fill-opacity="0.5"/>
</g>
</g>
</g>
</g>
</svg>
