<svg width="219" height="163" viewBox="0 0 219 163" fill="none" xmlns="http://www.w3.org/2000/svg">
<path d="M218.5 142.746H0.5V142.855H218.5V142.746Z" fill="#EBEBEB"/>
<path d="M196.656 149.762H182.216V149.871H196.656V149.762Z" fill="#EBEBEB"/>
<path d="M144.912 150.947H141.123V151.056H144.912V150.947Z" fill="#EBEBEB"/>
<path d="M181.78 145.715H173.413V145.824H181.78V145.715Z" fill="#EBEBEB"/>
<path d="M42.2034 146.447H23.3726V146.556H42.2034V146.447Z" fill="#EBEBEB"/>
<path d="M48.848 146.447H46.0881V146.556H48.848V146.447Z" fill="#EBEBEB"/>
<path d="M98.6655 148.287H57.821V148.396H98.6655V148.287Z" fill="#EBEBEB"/>
<path d="M103.832 123.301H19.6449C18.9854 123.3 18.3532 123.037 17.8873 122.57C17.4214 122.103 17.1597 121.471 17.1597 120.811V2.46776C17.1654 1.81203 17.4296 1.18504 17.895 0.722983C18.3603 0.260928 18.9891 0.00112331 19.6449 0H103.832C104.492 0 105.126 0.262292 105.592 0.729175C106.059 1.19606 106.322 1.82929 106.322 2.48956V120.811C106.322 121.472 106.059 122.105 105.592 122.572C105.126 123.039 104.492 123.301 103.832 123.301ZM19.6449 0.0872003C19.0143 0.0883553 18.4099 0.339672 17.9644 0.785989C17.5189 1.23231 17.2687 1.83715 17.2687 2.46776V120.811C17.2687 121.442 17.5189 122.047 17.9644 122.493C18.4099 122.939 19.0143 123.191 19.6449 123.192H103.832C104.463 123.191 105.068 122.939 105.514 122.493C105.96 122.047 106.212 121.442 106.213 120.811V2.46776C106.212 1.83675 105.96 1.23191 105.514 0.785723C105.068 0.339531 104.463 0.0883529 103.832 0.0872003H19.6449Z" fill="#EBEBEB"/>
<path d="M198.143 123.301H113.951C113.292 123.3 112.659 123.037 112.192 122.57C111.726 122.104 111.463 121.471 111.462 120.811V2.46776C111.469 1.81163 111.734 1.18465 112.2 0.72271C112.666 0.260775 113.295 0.00111105 113.951 0H198.143C198.798 0.00226916 199.426 0.262581 199.89 0.724513C200.355 1.18645 200.618 1.81278 200.624 2.46776V120.811C200.624 121.47 200.363 122.102 199.898 122.569C199.433 123.035 198.802 123.298 198.143 123.301ZM113.951 0.0872003C113.32 0.0883529 112.716 0.339531 112.269 0.785723C111.823 1.23191 111.572 1.83675 111.571 2.46776V120.811C111.572 121.442 111.823 122.047 112.269 122.493C112.716 122.939 113.32 123.191 113.951 123.192H198.143C198.774 123.191 199.379 122.939 199.825 122.493C200.271 122.047 200.522 121.442 200.524 120.811V2.46776C200.522 1.83675 200.271 1.23191 199.825 0.785723C199.379 0.339531 198.774 0.0883529 198.143 0.0872003H113.951Z" fill="#EBEBEB"/>
<path d="M87.3643 110.652H83.6888H81.2646L88.0575 116.277H89.3045H90.4163L88.8292 113.866L93.4596 116.277H94.5757H95.8924L87.3643 110.652Z" fill="#E0E0E0"/>
<path d="M39.1951 116.277H41.6279L47.03 113.465L44.6712 116.277H47.03L53.8229 110.652H47.7232L39.1951 116.277Z" fill="#E0E0E0"/>
<path d="M45.7787 116.277L51.3987 110.652H47.7232L39.1951 116.277H40.5118L47.03 112.693L44.6712 116.277H45.7787Z" fill="#F0F0F0"/>
<path d="M26.7734 116.277V142.952H108.925V116.277H26.7734ZM107.582 126.741H41.628V118.021H107.582V126.741Z" fill="#E0E0E0"/>
<path d="M39.8315 116.277V142.952H108.924V116.277H39.8315ZM107.582 126.741H41.6279V118.021H107.582V126.741Z" fill="#EBEBEB"/>
<path d="M107.582 118.008H95.5566V126.723H107.582V118.008Z" fill="#E0E0E0"/>
<path d="M59.0418 122.363H41.6279V126.723H59.0418V122.363Z" fill="#E0E0E0"/>
<path d="M71.3371 124.133H60.1362V126.723H71.3371V124.133Z" fill="#E0E0E0"/>
<path d="M87.1332 121.426H73.9268V126.723H87.1332V121.426Z" fill="#E0E0E0"/>
<path d="M54.7384 128.619L54.4202 129.661H50.1343L49.816 128.619H41.6279V140.195H62.9265V128.619H54.7384Z" fill="#E0E0E0"/>
<path d="M77.0356 128.619L76.7173 129.661H72.4358L72.1175 128.619H63.925V140.195H85.228V128.619H77.0356Z" fill="#E0E0E0"/>
<path d="M99.3368 128.619L99.0186 129.661H94.737L94.4144 128.619H86.2263V140.195H107.525V128.619H99.3368Z" fill="#E0E0E0"/>
<path d="M94.4537 75.3457H37.8653C37.0152 75.3457 36.3262 76.0348 36.3262 76.8848V109.859C36.3262 110.709 37.0152 111.399 37.8653 111.399H94.4537C95.3037 111.399 95.9928 110.709 95.9928 109.859V76.8848C95.9928 76.0348 95.3037 75.3457 94.4537 75.3457Z" fill="#E0E0E0"/>
<path d="M164.855 35.5578C169.276 34.4398 171.954 29.9491 170.836 25.5276C169.718 21.106 165.228 18.428 160.806 19.546C156.385 20.664 153.707 25.1547 154.825 29.5762C155.943 33.9977 160.433 36.6758 164.855 35.5578Z" fill="#E0E0E0"/>
<path d="M169.653 29.1509C170.543 25.3777 168.206 21.597 164.433 20.7065C160.66 19.816 156.879 22.1528 155.989 25.9259C155.098 29.6991 157.435 33.4797 161.208 34.3703C164.982 35.2608 168.762 32.924 169.653 29.1509Z" fill="#F0F0F0"/>
<path d="M162.5 22.7285V27.6335L159.248 25.7936" fill="#F0F0F0"/>
<path d="M162.5 28.0694C162.424 28.0699 162.349 28.0504 162.282 28.0127L159.03 26.1597C158.93 26.1022 158.857 26.0076 158.827 25.8965C158.797 25.7854 158.812 25.6669 158.868 25.5667C158.925 25.4663 159.019 25.3924 159.131 25.3614C159.242 25.3303 159.361 25.3446 159.461 25.4011L162.077 26.8747V22.7153C162.077 22.5997 162.123 22.4888 162.205 22.407C162.287 22.3252 162.398 22.2793 162.513 22.2793C162.629 22.2793 162.74 22.3252 162.822 22.407C162.903 22.4888 162.949 22.5997 162.949 22.7153V27.6203C162.949 27.7359 162.903 27.8468 162.822 27.9286C162.74 28.0104 162.629 28.0563 162.513 28.0563L162.5 28.0694Z" fill="#E0E0E0"/>
<path d="M50.3654 27.5725C50.3654 27.5725 49.9643 24.9565 51.8827 23.2604C53.8011 21.5644 53.6267 20.5747 53.0817 20.4439C52.5367 20.3131 52.031 21.996 51.1895 22.4582C51.1895 22.4582 51.159 20.0602 52.0179 19.1751C52.8768 18.29 53.3259 16.0141 52.5062 15.9749C51.6865 15.9356 51.608 17.3265 51.4424 18.3118C51.2105 19.1569 50.8471 19.9603 50.3654 20.6924C50.3654 20.6924 50.1867 18.5429 49.633 17.6404C49.0792 16.7379 50.5573 14.7366 49.9861 13.8515C49.415 12.9665 48.4078 14.6538 48.4906 16.546C48.5735 18.4383 49.8422 20.47 49.5458 22.4407C49.5458 22.4407 48.9877 21.0543 48.4863 20.9278C47.9849 20.8014 47.4835 19.8814 47.1434 19.5413C46.8033 19.2013 46.3891 20.3785 47.1434 21.4728C47.8977 22.5672 49.8422 25.4971 49.5458 27.8646L50.3654 27.5725Z" fill="#E6E6E6"/>
<path d="M51.5122 26.3789L52.1356 30.3029C52.1818 30.5887 52.1652 30.8811 52.0872 31.1598C52.0091 31.4385 51.8713 31.697 51.6834 31.9172C51.4956 32.1374 51.2621 32.3142 50.9991 32.4352C50.7362 32.5562 50.45 32.6186 50.1606 32.6181H49.4935C49.2039 32.6185 48.9176 32.5561 48.6545 32.4351C48.3914 32.3141 48.1576 32.1374 47.9694 31.9173C47.7812 31.6972 47.643 31.4389 47.5644 31.1601C47.4858 30.8814 47.4686 30.5889 47.514 30.3029L48.1419 26.3789H51.5122Z" fill="#E6E6E6"/>
<path d="M42.0204 33.4551L86.3704 33.4551V31.1748L42.0204 31.1748V33.4551Z" fill="#E0E0E0"/>
<path d="M82.3763 31.1777H84.3296V22.7804H82.3763V31.1777Z" fill="#EBEBEB"/>
<path d="M72.9283 31.1777H74.8816V22.7804H72.9283V31.1777Z" fill="#EBEBEB"/>
<path d="M60.7782 30.8459L62.7031 31.1777L64.1303 22.8981L62.2054 22.5663L60.7782 30.8459Z" fill="#EBEBEB"/>
<path d="M79.9522 31.1777H81.9055V23.8835H79.9522V31.1777Z" fill="#EBEBEB"/>
<path d="M75.4657 31.1777H77.4189V23.8835H75.4657V31.1777Z" fill="#EBEBEB"/>
<path d="M64.1253 31.1777H66.0786V23.8835H64.1253V31.1777Z" fill="#EBEBEB"/>
<path d="M68.7839 30.7501L70.6907 31.1738L72.2732 24.0533L70.3664 23.6295L68.7839 30.7501Z" fill="#EBEBEB"/>
<path d="M78.2648 31.1777H79.2415V22.3618H78.2648V31.1777Z" fill="#EBEBEB"/>
<path d="M66.6454 31.1777H67.6221V22.3618H66.6454V31.1777Z" fill="#EBEBEB"/>
<path d="M86.3702 48.1875H42.0203V50.4678H86.3702V48.1875Z" fill="#E0E0E0"/>
<path d="M46.0141 39.7891H44.0608V48.1908H46.0141V39.7891Z" fill="#EBEBEB"/>
<path d="M55.4621 39.7891H53.5088V48.1908H55.4621V39.7891Z" fill="#EBEBEB"/>
<path d="M66.1878 39.5764L64.2629 39.9082L65.6901 48.1878L67.615 47.856L66.1878 39.5764Z" fill="#EBEBEB"/>
<path d="M48.4381 40.8965H46.4849V48.1908H48.4381V40.8965Z" fill="#EBEBEB"/>
<path d="M52.9291 40.8965H50.9758V48.1908H52.9291V40.8965Z" fill="#EBEBEB"/>
<path d="M64.2607 40.8965H62.3074V48.1908H64.2607V40.8965Z" fill="#EBEBEB"/>
<path d="M58.0313 40.6407L56.1245 41.0645L57.707 48.185L59.6138 47.7612L58.0313 40.6407Z" fill="#EBEBEB"/>
<path d="M50.1256 39.3711H49.1489V48.187H50.1256V39.3711Z" fill="#EBEBEB"/>
<path d="M61.7493 39.3711H60.7727V48.187H61.7493V39.3711Z" fill="#EBEBEB"/>
<path d="M82.1192 41.543H72.5969V48.1135H82.1192V41.543Z" fill="#EBEBEB"/>
<path d="M109.5 162.435C156.188 162.435 194.036 160.226 194.036 157.5C194.036 154.774 156.188 152.564 109.5 152.564C62.8119 152.564 24.9639 154.774 24.9639 157.5C24.9639 160.226 62.8119 162.435 109.5 162.435Z" fill="#F5F5F5"/>
<path d="M39.9802 141.325C39.9802 141.194 39.5442 128.245 37.447 126.218C35.4327 124.264 33.1132 126.148 33.0129 126.218L32.7339 125.882C32.76 125.86 35.4545 123.663 37.7479 125.882C39.9671 128.036 40.3988 140.745 40.4162 141.286L39.9802 141.325Z" fill="#1935CA"/>
<path d="M40.1762 143.88C40.1152 143.243 38.7331 128.297 44.3706 121.822L44.7019 122.11C39.1734 128.436 40.5817 143.679 40.6122 143.832L40.1762 143.88Z" fill="#1935CA"/>
<path d="M40.0587 142.246L39.6227 142.215C39.6227 142.041 40.7257 124.727 36.6143 120.952L36.9107 120.629C41.1705 124.549 40.1066 141.522 40.0587 142.246Z" fill="#1935CA"/>
<path d="M40.6123 142.233H40.1763C40.1763 141.753 40.3114 130.491 43.5291 128.647C43.839 128.447 44.1922 128.324 44.5593 128.288C44.9265 128.253 45.2968 128.305 45.6393 128.442C47.5926 129.253 48.5562 132.71 48.5954 132.854L48.1594 132.972C48.1594 132.937 47.2133 129.571 45.4606 128.847C45.1774 128.733 44.8704 128.689 44.5663 128.72C44.2623 128.751 43.9706 128.856 43.7166 129.026C40.73 130.74 40.6123 142.137 40.6123 142.233Z" fill="#1935CA"/>
<path d="M39.3523 142.241L38.9163 142.215C38.9163 142.128 39.3959 133.36 37.0371 130.278C36.4703 129.545 35.8643 129.192 35.2234 129.24C33.6974 129.345 32.4068 131.594 32.3981 131.616L32.0144 131.402C32.0754 131.302 33.4314 128.926 35.1928 128.786C35.9864 128.73 36.7232 129.135 37.3728 129.999C39.845 133.225 39.3741 141.875 39.3523 142.241Z" fill="#1935CA"/>
<path d="M39.7665 143.444C39.7055 142.572 38.2187 122.516 40.8434 118.949L41.1922 119.211C38.6634 122.633 40.1894 143.191 40.2025 143.409L39.7665 143.444Z" fill="#1935CA"/>
<path d="M46.3152 130.521C46.3152 130.521 44.75 131.101 45.2165 132.465C45.683 133.83 50.6403 136.075 50.6403 136.075C50.6403 136.075 52.7157 134.17 50.8104 131.074C48.905 127.979 46.3588 129.544 46.3152 130.521Z" fill="#1935CA"/>
<path opacity="0.2" d="M46.3152 130.521C46.3152 130.521 44.75 131.101 45.2165 132.465C45.683 133.83 50.6403 136.075 50.6403 136.075C50.6403 136.075 52.7157 134.17 50.8104 131.074C48.905 127.979 46.3588 129.544 46.3152 130.521Z" fill="white"/>
<path d="M39.5004 127.923C39.5004 127.923 41.1703 127.853 41.2444 129.292C41.3186 130.731 37.6474 134.725 37.6474 134.725C37.6474 134.725 34.9966 133.77 35.5634 130.177C36.1302 126.584 39.0819 127.038 39.5004 127.923Z" fill="#1935CA"/>
<path opacity="0.2" d="M39.5004 127.923C39.5004 127.923 41.1703 127.853 41.2444 129.292C41.3186 130.731 37.6474 134.725 37.6474 134.725C37.6474 134.725 34.9966 133.77 35.5634 130.177C36.1302 126.584 39.0819 127.038 39.5004 127.923Z" fill="white"/>
<path d="M38.0834 121.034C38.0834 121.034 39.1996 120.912 39.108 120.236C39.0165 119.56 34.7786 117.812 32.2803 120.633C32.2803 120.633 33.8804 123.384 36.2043 123.419C38.5282 123.454 38.0834 121.034 38.0834 121.034Z" fill="#1935CA"/>
<path opacity="0.2" d="M38.0834 121.034C38.0834 121.034 39.1996 120.912 39.108 120.236C39.0165 119.56 34.7786 117.812 32.2803 120.633C32.2803 120.633 33.8804 123.384 36.2043 123.419C38.5282 123.454 38.0834 121.034 38.0834 121.034Z" fill="white"/>
<path d="M40.1761 119.385C40.1761 119.385 39.169 119.874 38.8681 119.25C38.5673 118.627 41.2618 114.89 44.8762 115.976C44.8762 115.976 44.9721 119.159 43.0276 120.414C41.083 121.67 40.1761 119.385 40.1761 119.385Z" fill="#1935CA"/>
<path opacity="0.2" d="M40.1761 119.385C40.1761 119.385 39.169 119.874 38.8681 119.25C38.5673 118.627 41.2618 114.89 44.8762 115.976C44.8762 115.976 44.9721 119.159 43.0276 120.414C41.083 121.67 40.1761 119.385 40.1761 119.385Z" fill="white"/>
<path d="M34.8876 129.971C34.8876 129.971 35.655 129.352 34.8266 129.047C33.9982 128.741 29.926 128.833 29.8867 132.862C29.8867 132.862 34.626 133.651 35.2103 132.116C35.7945 130.581 34.8876 129.971 34.8876 129.971Z" fill="#1935CA"/>
<path opacity="0.2" d="M34.8876 129.971C34.8876 129.971 35.655 129.352 34.8266 129.047C33.9982 128.741 29.926 128.833 29.8867 132.862C29.8867 132.862 34.626 133.651 35.2103 132.116C35.7945 130.581 34.8876 129.971 34.8876 129.971Z" fill="white"/>
<path d="M44.5363 120.933C44.5363 120.933 43.7646 120.309 44.5973 120.008C45.4301 119.707 49.4936 119.79 49.5372 123.823C49.5372 123.823 44.7979 124.608 44.2093 123.073C43.6207 121.539 44.5363 120.933 44.5363 120.933Z" fill="#1935CA"/>
<path opacity="0.2" d="M44.5363 120.933C44.5363 120.933 43.7646 120.309 44.5973 120.008C45.4301 119.707 49.4936 119.79 49.5372 123.823C49.5372 123.823 44.7979 124.608 44.2093 123.073C43.6207 121.539 44.5363 120.933 44.5363 120.933Z" fill="white"/>
<path d="M42.0469 124.177C42.0469 124.177 41.9771 123.423 42.5875 123.719C43.1979 124.016 45.3169 126.305 43.1194 128.476C43.1194 128.476 40.159 126.296 40.6909 125.141C41.2228 123.985 42.0469 124.177 42.0469 124.177Z" fill="#1935CA"/>
<path opacity="0.2" d="M42.0469 124.177C42.0469 124.177 41.9771 123.423 42.5875 123.719C43.1979 124.016 45.3169 126.305 43.1194 128.476C43.1194 128.476 40.159 126.296 40.6909 125.141C41.2228 123.985 42.0469 124.177 42.0469 124.177Z" fill="white"/>
<path d="M34.1987 125.255C34.1987 125.255 34.6608 124.653 33.985 124.579C33.3092 124.505 30.3008 125.307 31.0202 128.315C31.0202 128.315 34.6914 128.041 34.8483 126.789C35.0053 125.538 34.1987 125.255 34.1987 125.255Z" fill="#1935CA"/>
<path opacity="0.2" d="M34.1987 125.255C34.1987 125.255 34.6608 124.653 33.985 124.579C33.3092 124.505 30.3008 125.307 31.0202 128.315C31.0202 128.315 34.6914 128.041 34.8483 126.789C35.0053 125.538 34.1987 125.255 34.1987 125.255Z" fill="white"/>
<path d="M46.6118 153.403H34.007L32.6467 139.604H47.9678L46.6118 153.403Z" fill="#1935CA"/>
<path opacity="0.5" d="M46.6118 153.403H34.007L32.6467 139.604H47.9678L46.6118 153.403Z" fill="white"/>
<path d="M48.6436 138.082H31.9753V141.125H48.6436V138.082Z" fill="#1935CA"/>
<path opacity="0.2" d="M48.6436 138.082H31.9753V141.125H48.6436V138.082Z" fill="white"/>
<path d="M148.749 153.401L148.775 153.239L149.512 144.615H152.655L150.41 153.401" fill="#263238"/>
<path d="M177.839 153.401L177.813 153.239L177.071 144.615H173.932L176.178 153.401" fill="#263238"/>
<path d="M144.607 153.401L144.633 153.239L146.063 144.615H149.202L146.268 153.401" fill="#263238"/>
<path d="M181.981 153.401L181.95 153.239L180.524 144.615H177.385L180.32 153.401" fill="#263238"/>
<g opacity="0.2">
<path d="M144.607 153.401L144.633 153.239L146.063 144.615H149.202L146.268 153.401" fill="white"/>
<path d="M181.981 153.401L181.95 153.239L180.525 144.615H177.385L180.32 153.401" fill="white"/>
</g>
<path d="M182.216 92.9941H144.376C143.418 92.9941 142.641 93.771 142.641 94.7294V144.804C142.641 145.762 143.418 146.539 144.376 146.539H182.216C183.175 146.539 183.952 145.762 183.952 144.804V94.7294C183.952 93.771 183.175 92.9941 182.216 92.9941Z" fill="#1935CA"/>
<path opacity="0.4" d="M182.216 92.9941H144.376C143.418 92.9941 142.641 93.771 142.641 94.7294V144.804C142.641 145.762 143.418 146.539 144.376 146.539H182.216C183.175 146.539 183.952 145.762 183.952 144.804V94.7294C183.952 93.771 183.175 92.9941 182.216 92.9941Z" fill="white"/>
<path opacity="0.5" d="M182.264 104.67H144.323V123.998H182.264V104.67Z" fill="white"/>
<path opacity="0.5" d="M182.264 125.283H144.323V144.611H182.264V125.283Z" fill="white"/>
<path opacity="0.5" d="M182.264 94.916H144.323V103.379H182.264V94.916Z" fill="white"/>
<path opacity="0.5" d="M166.398 96.3243H160.19C160.003 96.3234 159.821 96.2707 159.663 96.1721C159.506 96.0735 159.378 95.933 159.296 95.7662L158.882 94.916H167.706L167.27 95.7662C167.191 95.9307 167.067 96.0699 166.913 96.1684C166.759 96.2669 166.581 96.3208 166.398 96.3243Z" fill="black"/>
<path opacity="0.5" d="M166.398 106.074H160.19C160.003 106.074 159.821 106.022 159.663 105.923C159.505 105.824 159.377 105.683 159.296 105.516L158.882 104.67H167.706L167.27 105.516C167.191 105.681 167.068 105.821 166.914 105.919C166.76 106.018 166.581 106.071 166.398 106.074Z" fill="black"/>
<path opacity="0.5" d="M166.398 126.691H160.19C160.003 126.692 159.821 126.639 159.663 126.541C159.505 126.442 159.377 126.301 159.296 126.133L158.882 125.283H167.706L167.27 126.133C167.191 126.298 167.068 126.438 166.914 126.537C166.76 126.635 166.581 126.689 166.398 126.691Z" fill="black"/>
<path d="M174.329 87.0859L177.608 92.9937H173.527L174.329 87.0859Z" fill="#1935CA"/>
<path opacity="0.2" d="M174.329 87.0859L177.608 92.9937H173.527L174.329 87.0859Z" fill="black"/>
<path d="M175.423 92.9936H167.706L170.121 82.9961H177.839L175.423 92.9936Z" fill="#1935CA"/>
<path opacity="0.5" d="M168.77 92.1995L170.802 83.7891H176.775L174.743 92.1995H168.77Z" fill="white"/>
<path d="M152.843 88.4414L150.929 92.9932H156.047L152.843 88.4414Z" fill="#1935CA"/>
<path d="M163.294 92.9931H153.493L151.19 85.8906H160.996L163.294 92.9931Z" fill="#1935CA"/>
<path opacity="0.2" d="M163.294 92.9931H153.493L151.19 85.8906H160.996L163.294 92.9931Z" fill="white"/>
<path opacity="0.5" d="M154.033 91.9693L152.394 86.916H160.455L162.09 91.9693H154.033Z" fill="white"/>
<path d="M119.628 39.584H56.9883C54.484 39.584 52.4539 41.6141 52.4539 44.1184V155.311C52.4539 157.816 54.484 159.846 56.9883 159.846H119.628C122.133 159.846 124.163 157.816 124.163 155.311V44.1184C124.163 41.6141 122.133 39.584 119.628 39.584Z" fill="#263238"/>
<path d="M121.743 43.9047V155.294C121.743 155.526 121.697 155.756 121.607 155.971C121.517 156.185 121.385 156.379 121.219 156.541C121.053 156.704 120.856 156.831 120.639 156.917C120.423 157.002 120.192 157.043 119.96 157.038H56.4653C56.254 157.041 56.0443 157.001 55.8487 156.921C55.6531 156.841 55.4757 156.723 55.3271 156.572C55.1785 156.422 55.0618 156.243 54.9839 156.047C54.906 155.851 54.8686 155.64 54.8739 155.429V43.7608C54.8657 43.5742 54.8947 43.3878 54.959 43.2124C55.0233 43.0371 55.1218 42.8762 55.2487 42.7392C55.3756 42.6021 55.5285 42.4916 55.6984 42.414C55.8683 42.3364 56.0519 42.2933 56.2386 42.2871H72.1133C72.3346 42.2916 72.5495 42.3615 72.7311 42.488C72.9127 42.6144 73.0527 42.7918 73.1336 42.9978L73.792 44.6197C73.8725 44.8255 74.0126 45.0026 74.1944 45.1284C74.3761 45.2542 74.5912 45.323 74.8122 45.326H101.844C102.064 45.3249 102.279 45.2579 102.461 45.1335C102.643 45.0092 102.783 44.8333 102.864 44.6284L103.523 43.0021C103.603 42.7954 103.743 42.617 103.924 42.4898C104.106 42.3625 104.321 42.2919 104.543 42.2871H120.191C120.61 42.2996 121.007 42.4761 121.298 42.7786C121.588 43.0811 121.748 43.4855 121.743 43.9047Z" fill="#1935CA"/>
<path opacity="0.3" d="M121.743 43.9047V155.294C121.743 155.526 121.697 155.756 121.607 155.971C121.517 156.185 121.385 156.379 121.219 156.541C121.053 156.704 120.856 156.831 120.639 156.917C120.423 157.002 120.192 157.043 119.96 157.038H56.4653C56.254 157.041 56.0443 157.001 55.8487 156.921C55.6531 156.841 55.4757 156.723 55.3271 156.572C55.1785 156.422 55.0618 156.243 54.9839 156.047C54.906 155.851 54.8686 155.64 54.8739 155.429V43.7608C54.8657 43.5742 54.8947 43.3878 54.959 43.2124C55.0233 43.0371 55.1218 42.8762 55.2487 42.7392C55.3756 42.6021 55.5285 42.4916 55.6984 42.414C55.8683 42.3364 56.0519 42.2933 56.2386 42.2871H72.1133C72.3346 42.2916 72.5495 42.3615 72.7311 42.488C72.9127 42.6144 73.0527 42.7918 73.1336 42.9978L73.792 44.6197C73.8725 44.8255 74.0126 45.0026 74.1944 45.1284C74.3761 45.2542 74.5912 45.323 74.8122 45.326H101.844C102.064 45.3249 102.279 45.2579 102.461 45.1335C102.643 45.0092 102.783 44.8333 102.864 44.6284L103.523 43.0021C103.603 42.7954 103.743 42.617 103.924 42.4898C104.106 42.3625 104.321 42.2919 104.543 42.2871H120.191C120.61 42.2996 121.007 42.4761 121.298 42.7786C121.588 43.0811 121.748 43.4855 121.743 43.9047Z" fill="black"/>
<path opacity="0.6" d="M121.743 49.791H54.8738V148.855H121.743V49.791Z" fill="white"/>
<path opacity="0.6" d="M62.2468 47.127H63.0708V46.0239H62.2468V47.127Z" fill="white"/>
<path opacity="0.6" d="M60.8993 47.127H61.7234V45.6576H60.8993V47.127Z" fill="white"/>
<path opacity="0.6" d="M59.5522 47.127H60.3762V45.2914H59.5522V47.127Z" fill="white"/>
<path opacity="0.6" d="M58.2048 47.127H59.0288V44.9252H58.2048V47.127Z" fill="white"/>
<path opacity="0.6" d="M114.174 45.623H113.686V46.7261H114.174V45.623Z" fill="white"/>
<path opacity="0.6" d="M114.51 47.127H118.412V45.2216H114.51V47.127Z" fill="white"/>
<path opacity="0.6" d="M88.2974 42.4434C88.2974 42.6254 88.2435 42.8032 88.1424 42.9545C88.0413 43.1058 87.8976 43.2237 87.7295 43.2933C87.5614 43.363 87.3765 43.3812 87.198 43.3457C87.0196 43.3102 86.8556 43.2226 86.727 43.0939C86.5983 42.9653 86.5107 42.8013 86.4752 42.6229C86.4397 42.4444 86.4579 42.2595 86.5275 42.0914C86.5972 41.9233 86.7151 41.7796 86.8664 41.6785C87.0177 41.5774 87.1955 41.5234 87.3775 41.5234C87.4985 41.5229 87.6183 41.5463 87.7302 41.5923C87.8421 41.6383 87.9437 41.7061 88.0293 41.7916C88.1148 41.8772 88.1826 41.9788 88.2286 42.0907C88.2746 42.2025 88.298 42.3224 88.2974 42.4434Z" fill="white"/>
<path opacity="0.6" d="M90.155 42.4441C90.155 42.5605 90.1205 42.6743 90.0558 42.7711C89.9911 42.8679 89.8992 42.9433 89.7916 42.9879C89.6841 43.0324 89.5657 43.0441 89.4516 43.0214C89.3374 42.9986 89.2325 42.9426 89.1502 42.8603C89.0679 42.778 89.0118 42.6731 88.9891 42.5589C88.9664 42.4447 88.978 42.3264 89.0226 42.2188C89.0671 42.1113 89.1426 42.0193 89.2394 41.9547C89.3362 41.89 89.45 41.8555 89.5664 41.8555C89.7225 41.8555 89.8722 41.9175 89.9826 42.0279C90.093 42.1382 90.155 42.288 90.155 42.4441Z" fill="white"/>
<path d="M121.743 49.791H54.8738V61.2273H121.743V49.791Z" fill="#1935CA"/>
<path d="M118.905 56.4442V55.5722H118.129C118.079 55.3506 117.99 55.1395 117.867 54.9487L118.417 54.3994L117.784 53.7672L117.235 54.3165C117.044 54.1954 116.833 54.1084 116.612 54.0593V53.2832H115.74V54.0636C115.519 54.1136 115.308 54.2006 115.116 54.3209L114.567 53.7715L113.948 54.395L114.497 54.9444C114.374 55.1352 114.285 55.3462 114.235 55.5678H113.459V56.4398H114.235C114.286 56.6598 114.375 56.8693 114.497 57.059L113.948 57.6083L114.567 58.2318L115.116 57.6824C115.309 57.8023 115.519 57.8906 115.74 57.944V58.7158H116.612V57.944C116.832 57.8914 117.043 57.8031 117.235 57.6824L117.784 58.2318L118.403 57.6083L117.854 57.059C117.977 56.8693 118.065 56.6598 118.116 56.4398L118.905 56.4442ZM116.184 56.8148C116.023 56.8148 115.865 56.7669 115.731 56.6771C115.597 56.5873 115.492 56.4597 115.431 56.3105C115.369 56.1612 115.353 55.9971 115.385 55.8388C115.417 55.6805 115.495 55.5353 115.609 55.4214C115.724 55.3076 115.869 55.2303 116.028 55.1993C116.186 55.1683 116.35 55.1851 116.499 55.2475C116.648 55.3099 116.775 55.415 116.864 55.5497C116.953 55.6843 117 55.8424 117 56.0038C117 56.1107 116.978 56.2165 116.937 56.3152C116.896 56.4139 116.836 56.5035 116.76 56.5788C116.685 56.6542 116.595 56.7138 116.496 56.7543C116.397 56.7948 116.291 56.8154 116.184 56.8148Z" fill="white"/>
<path d="M60.6552 53.6016L57.7122 56.3963H58.6234V58.4019H62.6869V56.3963H63.5938L60.6552 53.6016Z" fill="white"/>
<path opacity="0.4" d="M100.732 80.4286C100.735 82.8869 100.008 85.2908 98.6443 87.3361C97.2803 89.3814 95.3402 90.9761 93.0697 91.9184C90.7991 92.8608 88.3 93.1085 85.8886 92.6302C83.4772 92.1518 81.2619 90.969 79.523 89.2312C77.784 87.4935 76.5996 85.279 76.1196 82.868C75.6395 80.4569 75.8855 77.9577 76.8262 75.6864C77.767 73.4152 79.3604 71.474 81.4047 70.1086C83.449 68.7432 85.8524 68.0148 88.3107 68.0156C89.942 68.0128 91.5579 68.3318 93.0657 68.9545C94.5735 69.5772 95.9436 70.4913 97.0975 71.6444C98.2514 72.7975 99.1664 74.1669 99.7902 75.6743C100.414 77.1816 100.734 78.7973 100.732 80.4286Z" fill="black"/>
<path opacity="0.8" d="M97.7021 88.5642C96.5356 89.9105 95.0933 90.9903 93.4729 91.7304C91.8525 92.4705 90.092 92.8535 88.3106 92.8535C86.5293 92.8535 84.7687 92.4705 83.1483 91.7304C81.528 90.9903 80.0857 89.9105 78.9192 88.5642C79.3691 86.9508 80.2268 85.4804 81.4096 84.2945C82.5924 83.1087 84.0606 82.2472 85.6728 81.7931C84.8107 81.2261 84.1545 80.3961 83.8016 79.4264C83.4487 78.4568 83.418 77.3991 83.714 76.4106C84.0099 75.4221 84.6168 74.5554 85.4445 73.9392C86.2722 73.323 87.2766 72.9902 88.3085 72.9902C89.3403 72.9902 90.3447 73.323 91.1724 73.9392C92.0001 74.5554 92.607 75.4221 92.9029 76.4106C93.1989 77.3991 93.1682 78.4568 92.8153 79.4264C92.4624 80.3961 91.8062 81.2261 90.9441 81.7931C92.5565 82.2477 94.025 83.1093 95.2084 84.295C96.3919 85.4808 97.2506 86.9509 97.7021 88.5642Z" fill="white"/>
<g opacity="0.5">
<path d="M64.9843 100.228V100.454H63.6545V98.623H64.9625V98.8498H63.9336V99.4078H64.8535V99.6302H63.9336V100.223L64.9843 100.228Z" fill="black"/>
<path d="M65.2285 99.625H65.9348V99.843H65.2285V99.625Z" fill="black"/>
<path d="M68.6206 99.6558V100.454H68.3721V99.6863C68.3721 99.4116 68.2413 99.2808 68.0145 99.2808C67.9539 99.2749 67.8927 99.2828 67.8356 99.3041C67.7784 99.3253 67.7269 99.3593 67.6849 99.4034C67.6429 99.4475 67.6114 99.5007 67.593 99.5587C67.5746 99.6168 67.5696 99.6783 67.5785 99.7386V100.454H67.33V99.6863C67.33 99.4116 67.1992 99.2808 66.9681 99.2808C66.9075 99.2749 66.8463 99.2828 66.7892 99.3041C66.732 99.3253 66.6805 99.3593 66.6385 99.4034C66.5965 99.4475 66.565 99.5007 66.5466 99.5587C66.5282 99.6168 66.5232 99.6783 66.5321 99.7386V100.454H66.3359V99.0672H66.5757V99.2765C66.6298 99.2024 66.7018 99.1432 66.7848 99.1043C66.8679 99.0655 66.9595 99.0482 67.051 99.0541C67.1477 99.047 67.2444 99.0674 67.3301 99.1129C67.4157 99.1584 67.4867 99.2272 67.5349 99.3113C67.5954 99.2278 67.6757 99.1606 67.7685 99.1157C67.8613 99.0708 67.9638 99.0497 68.0669 99.0541C68.1448 99.0502 68.2226 99.0635 68.2949 99.0931C68.3671 99.1227 68.4319 99.1677 68.4847 99.2252C68.5376 99.2826 68.5771 99.3509 68.6006 99.4254C68.6241 99.4998 68.6309 99.5784 68.6206 99.6558Z" fill="black"/>
<path d="M70.1859 99.6168V100.454H69.9461V100.279C69.8952 100.346 69.8289 100.399 69.7529 100.434C69.6769 100.469 69.5936 100.485 69.5101 100.48C69.1962 100.48 68.9956 100.31 68.9956 100.07C68.9956 99.8304 69.1395 99.6647 69.5537 99.6647H69.9504V99.6168C69.9504 99.4031 69.8284 99.281 69.5798 99.281C69.422 99.2804 69.2685 99.3325 69.1438 99.4293L69.0392 99.2418C69.2037 99.119 69.4052 99.0559 69.6104 99.063C69.9679 99.0543 70.1859 99.2375 70.1859 99.6168ZM69.933 100.031V99.8435H69.545C69.2964 99.8435 69.2267 99.9438 69.2267 100.061C69.2267 100.179 69.34 100.284 69.5319 100.284C69.6168 100.289 69.7013 100.268 69.7733 100.222C69.8453 100.177 69.9011 100.11 69.933 100.031Z" fill="black"/>
<path d="M70.6045 98.6403C70.6045 98.6182 70.6089 98.5963 70.6175 98.5759C70.6261 98.5555 70.6387 98.5371 70.6546 98.5216C70.6704 98.5062 70.6892 98.4941 70.7098 98.486C70.7304 98.478 70.7524 98.4741 70.7745 98.4747C70.8071 98.4755 70.8387 98.486 70.8654 98.5047C70.892 98.5234 70.9126 98.5496 70.9245 98.5799C70.9363 98.6103 70.939 98.6434 70.9321 98.6753C70.9252 98.7071 70.9091 98.7362 70.8858 98.759C70.8625 98.7817 70.8329 98.797 70.8009 98.8031C70.7689 98.8091 70.7358 98.8056 70.7058 98.793C70.6758 98.7803 70.6502 98.7591 70.6321 98.7319C70.6141 98.7048 70.6045 98.6729 70.6045 98.6403ZM70.6525 99.0763H70.901V100.463H70.6525V99.0763Z" fill="black"/>
<path d="M71.3804 98.5352H71.6289V100.475H71.3804V98.5352Z" fill="black"/>
</g>
<g opacity="0.8">
<path d="M109.958 109.518H66.6588C65.7893 109.518 64.9553 109.173 64.3404 108.558C63.7256 107.943 63.3801 107.109 63.3801 106.24C63.3801 105.37 63.7256 104.536 64.3404 103.921C64.9553 103.306 65.7893 102.961 66.6588 102.961H109.958C110.828 102.961 111.662 103.306 112.276 103.921C112.891 104.536 113.237 105.37 113.237 106.24C113.237 107.109 112.891 107.943 112.276 108.558C111.662 109.173 110.828 109.518 109.958 109.518Z" fill="white"/>
</g>
<g opacity="0.5">
<path d="M65.1332 115.397C65.1332 115.794 64.8455 116.033 64.3702 116.033H63.9342V116.587H63.6726V114.756H64.3876C64.8454 114.756 65.1332 114.996 65.1332 115.397ZM64.8716 115.397C64.8716 115.135 64.6972 114.983 64.3615 114.983H63.9255V115.807H64.3615C64.6972 115.807 64.8716 115.654 64.8716 115.397Z" fill="black"/>
<path d="M66.5678 115.75V116.587H66.3367V116.412C66.2861 116.479 66.2198 116.532 66.1438 116.567C66.0677 116.602 65.9843 116.618 65.9007 116.613C65.5868 116.613 65.3862 116.443 65.3862 116.203C65.3862 115.963 65.5301 115.798 65.9443 115.798H66.3367V115.75C66.3367 115.536 66.2146 115.414 65.9661 115.414C65.8083 115.413 65.6548 115.465 65.5301 115.562L65.4255 115.375C65.5916 115.252 65.7945 115.189 66.001 115.196C66.3367 115.187 66.5678 115.37 66.5678 115.75ZM66.3149 116.164V115.976H65.9269C65.6783 115.976 65.6086 116.077 65.6086 116.194C65.6086 116.312 65.7263 116.417 65.9138 116.417C66.0024 116.428 66.0921 116.409 66.1687 116.363C66.2453 116.317 66.3044 116.247 66.3367 116.164H66.3149Z" fill="black"/>
<path d="M66.8599 116.439L66.9645 116.243C67.1081 116.337 67.2765 116.387 67.4485 116.387C67.6795 116.387 67.7798 116.317 67.7798 116.199C67.7798 115.885 66.9078 116.156 66.9078 115.602C66.9078 115.358 67.1302 115.188 67.4833 115.188C67.6601 115.185 67.8345 115.228 67.9891 115.314L67.8801 115.51C67.7611 115.437 67.6233 115.399 67.4833 115.401C67.261 115.401 67.1563 115.484 67.1563 115.593C67.1563 115.92 68.0283 115.654 68.0283 116.19C68.0283 116.443 67.7973 116.605 67.431 116.605C67.2282 116.609 67.0288 116.551 66.8599 116.439Z" fill="black"/>
<path d="M68.1677 116.439L68.2724 116.243C68.4179 116.337 68.5874 116.387 68.7607 116.387C68.9918 116.387 69.0877 116.317 69.0877 116.199C69.0877 115.885 68.2157 116.156 68.2157 115.602C68.2157 115.358 68.438 115.188 68.7956 115.188C68.9723 115.185 69.1465 115.229 69.3013 115.314L69.1923 115.51C69.0715 115.437 68.9325 115.399 68.7912 115.401C68.5732 115.401 68.4642 115.484 68.4642 115.593C68.4642 115.92 69.3362 115.654 69.3362 116.19C69.3362 116.443 69.1051 116.605 68.7345 116.605C68.5332 116.608 68.3356 116.55 68.1677 116.439Z" fill="black"/>
<path d="M71.7256 115.199L71.2068 116.586H70.967L70.5659 115.539L70.1604 116.59H69.9206L69.3887 115.199H69.6241L70.0296 116.302L70.4656 115.199H70.6967L71.1327 116.307L71.5425 115.199H71.7256Z" fill="black"/>
<path d="M71.8126 115.892C71.8109 115.75 71.8516 115.61 71.9296 115.49C72.0076 115.371 72.1193 115.277 72.2506 115.221C72.3819 115.166 72.5268 115.15 72.667 115.177C72.8071 115.204 72.9361 115.271 73.0376 115.372C73.139 115.472 73.2084 115.6 73.2369 115.74C73.2654 115.88 73.2516 116.025 73.1975 116.157C73.1433 116.289 73.0511 116.402 72.9326 116.481C72.8141 116.56 72.6747 116.603 72.532 116.603C72.4372 116.607 72.3424 116.592 72.2538 116.558C72.1652 116.524 72.0846 116.471 72.017 116.405C71.9494 116.338 71.8964 116.258 71.8612 116.17C71.8261 116.082 71.8095 115.987 71.8126 115.892ZM72.9985 115.892C72.9985 115.831 72.9865 115.77 72.963 115.714C72.9396 115.657 72.9052 115.606 72.8619 115.562C72.8186 115.519 72.7672 115.485 72.7106 115.461C72.654 115.438 72.5933 115.426 72.532 115.426C72.4708 115.426 72.4101 115.438 72.3535 115.461C72.2969 115.485 72.2455 115.519 72.2021 115.562C72.1588 115.606 72.1245 115.657 72.101 115.714C72.0776 115.77 72.0655 115.831 72.0655 115.892C72.0655 115.953 72.0776 116.014 72.101 116.071C72.1245 116.127 72.1588 116.179 72.2021 116.222C72.2455 116.265 72.2969 116.3 72.3535 116.323C72.4101 116.347 72.4708 116.359 72.532 116.359C72.5933 116.359 72.654 116.347 72.7106 116.323C72.7672 116.3 72.8186 116.265 72.8619 116.222C72.9052 116.179 72.9396 116.127 72.963 116.071C72.9865 116.014 72.9985 115.953 72.9985 115.892Z" fill="black"/>
<path d="M74.3459 115.186V115.43H74.2892C74.2289 115.43 74.1692 115.443 74.1139 115.467C74.0586 115.491 74.0089 115.526 73.9679 115.57C73.9269 115.615 73.8956 115.667 73.8758 115.724C73.8561 115.781 73.8484 115.841 73.8532 115.901V116.59H73.6003V115.204H73.8401V115.435C73.8927 115.35 73.968 115.282 74.0574 115.238C74.1468 115.194 74.2468 115.176 74.3459 115.186Z" fill="black"/>
<path d="M75.9505 114.668V116.608H75.7107V116.39C75.6533 116.467 75.578 116.528 75.4914 116.57C75.4047 116.611 75.3094 116.63 75.2137 116.626C75.0353 116.612 74.8689 116.531 74.7475 116.4C74.626 116.268 74.5586 116.096 74.5586 115.917C74.5586 115.738 74.626 115.566 74.7475 115.435C74.8689 115.303 75.0353 115.223 75.2137 115.209C75.3061 115.205 75.3981 115.223 75.4822 115.262C75.5663 115.301 75.6401 115.358 75.6976 115.431V114.668H75.9505ZM75.702 115.915C75.6977 115.824 75.6668 115.736 75.613 115.662C75.5592 115.588 75.4849 115.532 75.3994 115.5C75.3139 115.468 75.2208 115.462 75.1318 115.482C75.0428 115.502 74.9617 115.548 74.8986 115.614C74.8356 115.68 74.7932 115.764 74.7769 115.853C74.7606 115.943 74.7711 116.036 74.8069 116.12C74.8428 116.204 74.9025 116.276 74.9787 116.326C75.0548 116.376 75.1441 116.403 75.2355 116.403C75.302 116.409 75.369 116.399 75.4312 116.375C75.4934 116.351 75.5492 116.312 75.5943 116.263C75.6394 116.214 75.6726 116.155 75.6912 116.091C75.7099 116.026 75.7136 115.959 75.702 115.893V115.915Z" fill="black"/>
</g>
<g opacity="0.8">
<path d="M109.958 125.651H66.6588C65.7893 125.651 64.9553 125.306 64.3404 124.691C63.7256 124.076 63.3801 123.242 63.3801 122.372C63.3801 121.503 63.7256 120.669 64.3404 120.054C64.9553 119.439 65.7893 119.094 66.6588 119.094H109.958C110.828 119.094 111.662 119.439 112.276 120.054C112.891 120.669 113.237 121.503 113.237 122.372C113.237 123.242 112.891 124.076 112.276 124.691C111.662 125.306 110.828 125.651 109.958 125.651Z" fill="white"/>
</g>
<path d="M99.0582 139.167H77.559C77.1284 139.167 76.7021 139.082 76.3043 138.917C75.9065 138.752 75.545 138.511 75.2406 138.207C74.9361 137.902 74.6946 137.541 74.5298 137.143C74.3651 136.745 74.2803 136.319 74.2803 135.888C74.2803 135.458 74.3651 135.031 74.5298 134.633C74.6946 134.236 74.9361 133.874 75.2406 133.57C75.545 133.265 75.9065 133.024 76.3043 132.859C76.7021 132.694 77.1284 132.609 77.559 132.609H99.0582C99.9277 132.609 100.762 132.955 101.377 133.57C101.991 134.185 102.337 135.019 102.337 135.888C102.337 136.758 101.991 137.592 101.377 138.207C100.762 138.821 99.9277 139.167 99.0582 139.167Z" fill="#1935CA"/>
<path d="M83.4306 134.824C83.4166 134.706 83.3601 134.615 83.2609 134.55C83.1617 134.485 83.04 134.452 82.8959 134.452C82.7905 134.452 82.6983 134.469 82.6193 134.503C82.541 134.537 82.4798 134.584 82.4357 134.644C82.3923 134.704 82.3706 134.771 82.3706 134.847C82.3706 134.911 82.3857 134.966 82.4159 135.011C82.4469 135.056 82.4864 135.094 82.5345 135.124C82.5825 135.153 82.6329 135.178 82.6856 135.197C82.7382 135.216 82.7867 135.231 82.8308 135.243L83.0726 135.308C83.1346 135.324 83.2035 135.346 83.2795 135.375C83.3562 135.404 83.4294 135.443 83.4991 135.492C83.5697 135.541 83.6278 135.604 83.6735 135.681C83.7192 135.757 83.7421 135.852 83.7421 135.963C83.7421 136.092 83.7084 136.208 83.6409 136.312C83.5743 136.416 83.4767 136.498 83.348 136.559C83.2202 136.621 83.0648 136.651 82.882 136.651C82.7115 136.651 82.5639 136.624 82.4391 136.569C82.3152 136.514 82.2175 136.437 82.1463 136.339C82.0757 136.24 82.0358 136.126 82.0265 135.996H82.3241C82.3318 136.086 82.3621 136.16 82.4147 136.219C82.4682 136.277 82.5356 136.32 82.617 136.349C82.6991 136.377 82.7874 136.391 82.882 136.391C82.992 136.391 83.0908 136.373 83.1784 136.337C83.2659 136.301 83.3353 136.251 83.3864 136.186C83.4375 136.121 83.4631 136.045 83.4631 135.959C83.4631 135.879 83.441 135.815 83.3969 135.766C83.3527 135.716 83.2946 135.676 83.2225 135.645C83.1505 135.614 83.0726 135.587 82.9889 135.563L82.696 135.48C82.51 135.426 82.3628 135.35 82.2543 135.251C82.1459 135.151 82.0916 135.022 82.0916 134.861C82.0916 134.728 82.1277 134.612 82.1997 134.513C82.2726 134.413 82.3702 134.335 82.4926 134.28C82.6158 134.224 82.7534 134.196 82.9052 134.196C83.0586 134.196 83.195 134.224 83.3143 134.279C83.4337 134.333 83.5282 134.408 83.5979 134.502C83.6684 134.597 83.7056 134.704 83.7095 134.824H83.4306ZM84.1788 136.609V134.824H84.4531V136.609H84.1788ZM84.3183 134.527C84.2648 134.527 84.2187 134.508 84.1799 134.472C84.142 134.436 84.123 134.392 84.123 134.341C84.123 134.289 84.142 134.246 84.1799 134.209C84.2187 134.173 84.2648 134.155 84.3183 134.155C84.3717 134.155 84.4174 134.173 84.4554 134.209C84.4941 134.246 84.5135 134.289 84.5135 134.341C84.5135 134.392 84.4941 134.436 84.4554 134.472C84.4174 134.508 84.3717 134.527 84.3183 134.527ZM85.6761 137.316C85.5436 137.316 85.4297 137.299 85.3344 137.265C85.2391 137.232 85.1596 137.187 85.0961 137.132C85.0333 137.078 84.9834 137.02 84.9462 136.958L85.1647 136.805C85.1895 136.837 85.2209 136.874 85.2588 136.916C85.2968 136.959 85.3487 136.996 85.4146 137.027C85.4812 137.058 85.5684 137.074 85.6761 137.074C85.8202 137.074 85.9391 137.039 86.0329 136.97C86.1267 136.9 86.1735 136.791 86.1735 136.642V136.279H86.1503C86.1301 136.312 86.1015 136.352 86.0643 136.4C86.0279 136.447 85.9752 136.49 85.9062 136.527C85.838 136.563 85.7458 136.581 85.6296 136.581C85.4855 136.581 85.3561 136.547 85.2414 136.479C85.1275 136.411 85.0372 136.312 84.9706 136.182C84.9047 136.051 84.8718 135.893 84.8718 135.707C84.8718 135.525 84.9039 135.365 84.9683 135.23C85.0326 135.093 85.1221 134.988 85.2367 134.914C85.3514 134.838 85.4839 134.801 85.6342 134.801C85.7505 134.801 85.8427 134.82 85.9109 134.859C85.9798 134.897 86.0325 134.94 86.0689 134.989C86.1061 135.037 86.1348 135.077 86.1549 135.108H86.1828V134.824H86.4478V136.661C86.4478 136.814 86.413 136.939 86.3432 137.035C86.2743 137.132 86.1813 137.203 86.0643 137.247C85.9481 137.293 85.8187 137.316 85.6761 137.316ZM85.6668 136.335C85.7768 136.335 85.8698 136.31 85.9457 136.26C86.0217 136.209 86.0794 136.137 86.1189 136.042C86.1584 135.948 86.1782 135.835 86.1782 135.703C86.1782 135.574 86.1588 135.461 86.1201 135.362C86.0813 135.264 86.024 135.187 85.9481 135.131C85.8721 135.075 85.7784 135.047 85.6668 135.047C85.5506 135.047 85.4537 135.077 85.3762 135.136C85.2995 135.194 85.2418 135.274 85.203 135.373C85.1651 135.472 85.1461 135.582 85.1461 135.703C85.1461 135.827 85.1655 135.936 85.2042 136.032C85.2437 136.126 85.3018 136.201 85.3785 136.255C85.456 136.308 85.5521 136.335 85.6668 136.335ZM87.2242 135.535V136.609H86.9499V134.824H87.2149V135.103H87.2382C87.28 135.012 87.3436 134.94 87.4288 134.885C87.514 134.829 87.6241 134.801 87.7589 134.801C87.8798 134.801 87.9855 134.826 88.0762 134.875C88.1668 134.924 88.2374 134.998 88.2877 135.098C88.3381 135.198 88.3633 135.323 88.3633 135.475V136.609H88.089V135.494C88.089 135.353 88.0526 135.244 87.9797 135.166C87.9069 135.087 87.8069 135.047 87.6798 135.047C87.5923 135.047 87.514 135.066 87.4451 135.104C87.3769 135.142 87.323 135.198 87.2835 135.27C87.244 135.343 87.2242 135.432 87.2242 135.535ZM89.785 136.609V134.824H90.0593V136.609H89.785ZM89.9245 134.527C89.871 134.527 89.8249 134.508 89.7862 134.472C89.7482 134.436 89.7292 134.392 89.7292 134.341C89.7292 134.289 89.7482 134.246 89.7862 134.209C89.8249 134.173 89.871 134.155 89.9245 134.155C89.978 134.155 90.0237 134.173 90.0616 134.209C90.1004 134.246 90.1198 134.289 90.1198 134.341C90.1198 134.392 90.1004 134.436 90.0616 134.472C90.0237 134.508 89.978 134.527 89.9245 134.527ZM90.836 135.535V136.609H90.5617V134.824H90.8267V135.103H90.85C90.8918 135.012 90.9553 134.94 91.0406 134.885C91.1258 134.829 91.2358 134.801 91.3707 134.801C91.4915 134.801 91.5973 134.826 91.688 134.875C91.7786 134.924 91.8491 134.998 91.8995 135.098C91.9499 135.198 91.975 135.323 91.975 135.475V136.609H91.7007V135.494C91.7007 135.353 91.6643 135.244 91.5915 135.166C91.5187 135.087 91.4187 135.047 91.2916 135.047C91.2041 135.047 91.1258 135.066 91.0568 135.104C90.9887 135.142 90.9348 135.198 90.8953 135.27C90.8558 135.343 90.836 135.432 90.836 135.535Z" fill="white"/>
<path d="M166.223 56.6443L147.502 56.4699C147.075 56.4642 146.667 56.2893 146.369 55.9836C146.071 55.6779 145.906 55.2664 145.91 54.8393L146.089 49.1931C146.091 48.9818 146.135 48.773 146.218 48.5787C146.301 48.3844 146.422 48.2083 146.573 48.0605C146.724 47.9127 146.902 47.7962 147.098 47.7174C147.294 47.6387 147.504 47.5994 147.715 47.6017L166.463 47.7804C166.89 47.7862 167.298 47.9611 167.596 48.2667C167.894 48.5724 168.059 48.984 168.055 49.4111L167.876 55.0573C167.874 55.2706 167.829 55.4813 167.744 55.6772C167.66 55.873 167.537 56.05 167.383 56.1977C167.229 56.3455 167.047 56.4611 166.848 56.5378C166.649 56.6145 166.437 56.6507 166.223 56.6443Z" fill="#1935CA"/>
<path d="M156.588 55.2185C156.588 55.2185 154.216 60.4505 149.028 62.0506C149.028 62.0506 151.905 60.4374 151.757 54.9395L156.588 55.2185Z" fill="#1935CA"/>
<path d="M150.767 52.0571L151.203 52.3012L151.003 52.6369L150.567 52.3666V52.8637H150.183V52.3666L149.747 52.6369L149.551 52.3012L149.987 52.0571L149.551 51.8129L149.747 51.4772L150.183 51.7475V51.2461H150.567V51.7475L151.003 51.4772L151.203 51.8129L150.767 52.0571Z" fill="white"/>
<path d="M153.444 52.0572L153.88 52.3014L153.68 52.6371L153.244 52.3668V52.8638H152.86V52.3668L152.424 52.6371L152.228 52.3188L152.664 52.0746L152.228 51.8305L152.429 51.4948L152.865 51.7651V51.2637H153.248V51.7651L153.684 51.4948L153.885 51.8305L153.444 52.0572Z" fill="white"/>
<path d="M156.126 52.0571L156.562 52.3012L156.361 52.6369L155.925 52.3666V52.8637H155.537V52.3666L155.101 52.6369L154.905 52.3012L155.341 52.0571L154.905 51.8129L155.101 51.4772L155.537 51.7475V51.2461H155.925V51.7475L156.361 51.4772L156.562 51.8129L156.126 52.0571Z" fill="white"/>
<path d="M158.803 52.0571L159.239 52.3012L159.038 52.6369L158.602 52.3666V52.8637H158.219V52.3666L157.783 52.6369L157.586 52.3012L158.022 52.0571L157.586 51.8129L157.783 51.4772L158.219 51.7475V51.2461H158.602V51.7475L159.038 51.4772L159.239 51.8129L158.803 52.0571Z" fill="white"/>
<path d="M161.48 52.0571L161.916 52.3012L161.715 52.6369L161.279 52.3666V52.8637H160.896V52.3666L160.46 52.6369L160.259 52.3012L160.695 52.0571L160.259 51.8129L160.46 51.4772L160.896 51.7475V51.2461H161.279V51.7475L161.715 51.4772L161.916 51.8129L161.48 52.0571Z" fill="white"/>
<path d="M164.161 52.0571L164.597 52.3012L164.397 52.6369L163.961 52.3666V52.8637H163.564V52.3666L163.128 52.6369L162.932 52.3012L163.368 52.0571L162.932 51.8129L163.128 51.4772L163.564 51.7475V51.2461H163.952V51.7475L164.388 51.4772L164.589 51.8129L164.161 52.0571Z" fill="white"/>
<path d="M136.593 65.8359C139.087 66.224 141.507 73.9063 142.558 74.5559C143.608 75.2056 142.706 67.3619 142.706 67.3619L144.703 67.096C144.703 67.096 147.066 78.9203 143.617 78.8331C141.001 78.7677 137.862 74.3772 137.077 72.1405L136.593 65.8359Z" fill="#EBB376"/>
<path opacity="0.1" d="M143.617 78.803C142.026 78.7638 140.243 77.1288 138.917 75.3499C138.159 74.3617 137.546 73.271 137.095 72.1104L136.837 68.884L136.593 65.832C139.087 66.2201 141.507 73.9024 142.558 74.552C143.608 75.2017 142.706 67.358 142.706 67.358L144.703 67.0921C144.703 67.0921 147.066 78.8902 143.617 78.803Z" fill="black"/>
<path opacity="0.2" d="M138.917 75.3506C138.159 74.3625 137.546 73.2718 137.095 72.1112L136.837 68.8848C136.837 68.8848 139.558 71.6228 138.917 75.3506Z" fill="black"/>
<path d="M127.411 49.9494C127.411 49.9494 122.968 49.8971 123.182 56.0055C123.395 62.1138 127.668 62.1967 126.234 63.9625C127.508 64.5028 128.878 64.7813 130.262 64.7813C131.647 64.7813 133.017 64.5028 134.291 63.9625C134.291 63.9625 133.502 63.6529 133.877 62.5324C134.252 61.4119 136.31 59.8074 136.493 57.4443C136.676 55.0812 132.006 49.339 127.411 49.9494Z" fill="#263238"/>
<path d="M131.802 61.6422C131.802 61.6422 137.47 60.5914 136.524 55.2025C135.747 50.7858 133.685 49.3688 131.802 48.7366C130.99 48.4633 130.112 48.4628 129.3 48.7352C128.489 49.0075 127.789 49.5378 127.306 50.2452C127.306 50.2452 123.461 49.1552 124.128 55.4772C124.795 61.7992 128.972 64.5285 131.802 61.6422Z" fill="#263238"/>
<path d="M142.135 151.942L139.615 150.651L140.53 146.884L141.376 143.436L144.55 144.473L143.273 148.428L142.135 151.942Z" fill="#EBB376"/>
<path d="M138.913 150.058C139.061 149.779 142.445 151.741 142.445 151.741C142.445 151.741 143.504 154.998 145.348 156.537C147.193 158.076 145.401 158.739 143.068 157.579L137.295 154.702C135.66 153.869 137.378 152.971 138.913 150.058Z" fill="#263238"/>
<path d="M143.591 153.398C143.225 153.102 142.895 152.762 142.61 152.387C142.608 152.377 142.608 152.367 142.61 152.356C142.608 152.343 142.608 152.33 142.61 152.317C142.608 152.309 142.608 152.3 142.61 152.291C142.614 152.275 142.623 152.261 142.636 152.252C142.667 152.221 143.364 151.554 143.944 151.593C144.03 151.599 144.113 151.623 144.188 151.664C144.263 151.704 144.329 151.761 144.38 151.829C144.435 151.88 144.473 151.947 144.488 152.02C144.503 152.094 144.494 152.17 144.463 152.239C144.358 152.418 144.027 152.474 143.661 152.487C143.948 152.573 144.204 152.738 144.402 152.962C144.435 153.009 144.458 153.063 144.47 153.119C144.481 153.175 144.48 153.233 144.467 153.289C144.419 153.525 144.293 153.599 144.197 153.621C144.086 153.628 143.975 153.611 143.871 153.573C143.767 153.535 143.671 153.475 143.591 153.398ZM142.959 152.487C143.364 152.962 143.909 153.477 144.14 153.42C144.162 153.42 144.223 153.42 144.254 153.25C144.26 153.22 144.26 153.189 144.253 153.159C144.247 153.129 144.233 153.1 144.215 153.076C144.036 152.806 143.391 152.601 142.959 152.487ZM144.119 151.872C144.056 151.827 143.982 151.802 143.905 151.798C143.543 151.837 143.202 151.989 142.933 152.234C143.547 152.295 144.184 152.269 144.271 152.117C144.297 152.069 144.241 151.986 144.201 151.938C144.177 151.912 144.149 151.89 144.119 151.872Z" fill="#1935CA"/>
<path opacity="0.2" d="M143.242 148.506L140.504 146.959L141.359 143.471L144.546 144.491L143.242 148.506Z" fill="black"/>
<path d="M137.688 155.09H134.806L133.982 151.384L133.232 147.987L136.602 147.473L137.177 151.506L137.688 155.09Z" fill="#EBB376"/>
<path d="M133.855 154.977C133.855 154.658 137.779 154.907 137.779 154.907C137.779 154.907 140.182 157.348 142.514 157.898C144.847 158.447 143.543 159.847 140.936 159.847H134.47C132.608 159.847 133.777 158.268 133.855 154.977Z" fill="#263238"/>
<path d="M139.815 155.906C139.252 155.836 138.705 155.669 138.198 155.414L138.163 155.387V155.366C138.154 155.339 138.154 155.31 138.163 155.283C138.163 155.248 138.507 154.337 139.035 154.114C139.114 154.078 139.2 154.059 139.288 154.059C139.375 154.059 139.461 154.078 139.541 154.114C139.719 154.202 139.802 154.311 139.798 154.446C139.798 154.651 139.506 154.856 139.187 155.026C139.481 154.973 139.784 155.006 140.059 155.121C140.11 155.149 140.154 155.186 140.19 155.231C140.226 155.276 140.253 155.328 140.269 155.383C140.301 155.457 140.309 155.538 140.292 155.617C140.274 155.695 140.233 155.766 140.173 155.819C140.067 155.889 139.941 155.92 139.815 155.906ZM138.555 155.348C139.131 155.588 139.863 155.806 140.029 155.653C140.029 155.653 140.094 155.601 140.055 155.448C140.048 155.419 140.034 155.392 140.016 155.369C139.997 155.345 139.973 155.326 139.946 155.313C139.663 155.148 138.996 155.248 138.555 155.348ZM139.253 154.271C139.199 154.272 139.145 154.284 139.096 154.306C138.79 154.508 138.555 154.801 138.424 155.143C139.004 154.925 139.562 154.62 139.571 154.446C139.571 154.389 139.488 154.341 139.436 154.315C139.379 154.286 139.316 154.271 139.253 154.271Z" fill="#1935CA"/>
<path opacity="0.2" d="M137.186 151.589L133.99 151.458L133.236 148.022L136.606 147.49L137.186 151.589Z" fill="black"/>
<path d="M123.635 87.2619L130.712 86.1283L137.125 84.8203L138.869 95.2843C138.869 95.2843 147.899 108.364 150.087 117.363C152.276 126.362 144.066 147.238 144.066 147.238L140.295 145.568C140.295 145.568 142.911 125.49 142.85 123.079C142.811 121.51 137.661 114.272 134.06 109.393C133.955 110.618 135.124 122.831 135.124 122.831L137.666 149.601H132.913C116.572 98.8552 123.635 87.2619 123.635 87.2619Z" fill="#263238"/>
<path opacity="0.6" d="M132.913 149.584H137.648L135.106 122.813C135.106 122.813 133.947 110.518 134.043 109.376C134.753 110.339 135.525 111.39 136.305 112.476C139.475 116.884 142.802 121.797 142.845 123.057C142.907 125.473 140.291 145.551 140.291 145.551L144.062 147.22C144.062 147.22 152.272 126.336 150.083 117.341C147.894 108.347 138.865 95.2667 138.865 95.2667L137.121 84.8027L130.707 86.1107L123.631 87.2443C123.631 87.2443 116.572 98.855 132.913 149.584Z" fill="white"/>
<path d="M140.081 143.863L145.649 145.782L144.406 147.691L139.833 146.056L140.081 143.863Z" fill="#1935CA"/>
<path d="M132.233 148.942L138.189 148.127L137.893 150.351L132.975 150.97L132.233 148.942Z" fill="#1935CA"/>
<path opacity="0.2" d="M134.043 109.376C134.753 110.339 135.525 111.39 136.305 112.476C135.058 106.014 133.589 99.7227 133.589 99.7227C133.403 102.947 133.555 106.183 134.043 109.376Z" fill="black"/>
<path d="M136.999 85.2305L124.089 86.1243C124.089 86.1243 123.914 79.2094 122.885 75.6124C122.746 75.1284 122.593 74.6226 122.423 74.082C122.183 73.3234 121.909 72.508 121.595 71.6186C121.521 71.4093 121.333 70.8861 121.106 70.2801C120.927 69.7964 120.891 69.2711 121.003 68.7676C121.116 68.264 121.371 67.8036 121.739 67.4417C122.097 67.0832 122.551 66.8363 123.047 66.731C123.997 66.5218 124.934 66.3256 125.445 66.2471C127.379 65.9403 129.33 65.7553 131.287 65.6934C132.944 65.6934 134.775 65.7893 135.821 65.8634L136.728 65.9332C136.728 65.9332 137.138 66.0247 137.4 68.4271C137.635 70.6856 137.522 77.0163 136.999 85.2305Z" fill="#1935CA"/>
<path d="M130.864 68.4518C127.607 67.8632 126.692 66.4157 126.692 66.4157C128.872 64.5583 127.319 61.0703 127.319 61.0703L131.243 62.0077C131.123 62.5519 131.043 63.1042 131.004 63.6601C130.851 66.0538 131.932 66.1323 131.932 66.1323C132.53 67.4446 130.864 68.4518 130.864 68.4518Z" fill="#EBB376"/>
<path opacity="0.2" d="M131.213 61.9862C131.093 62.5304 131.012 63.0827 130.973 63.6387C129.094 63.1024 127.306 61.0488 127.306 61.0488L131.213 61.9862Z" fill="black"/>
<path d="M130.925 50.8029C134.348 51.1124 135.285 53.0439 135.22 56.5973C135.137 61.0358 133.877 64.0834 129.678 62.7536C123.975 60.9529 125.236 50.2928 130.925 50.8029Z" fill="#EBB376"/>
<path d="M133.044 56.2051C133.273 56.7426 133.566 57.2505 133.916 57.718C133.803 57.8497 133.655 57.9478 133.49 58.0016C133.325 58.0554 133.148 58.0629 132.979 58.0232L133.044 56.2051Z" fill="#D58745"/>
<path d="M130.951 55.7397C130.951 56.0187 130.764 56.2367 130.576 56.228C130.389 56.2193 130.254 55.9751 130.271 55.6917C130.289 55.4083 130.459 55.1947 130.646 55.2034C130.834 55.2121 130.969 55.4563 130.951 55.7397Z" fill="#263238"/>
<path d="M130.563 55.2103L131.196 55.0098C131.196 55.0098 130.864 55.5068 130.563 55.2103Z" fill="#263238"/>
<path d="M134.461 55.9138C134.439 56.1928 134.274 56.4108 134.086 56.3978C133.899 56.3847 133.759 56.1492 133.781 55.8658C133.803 55.5824 133.964 55.3644 134.156 55.3775C134.348 55.3906 134.479 55.6304 134.461 55.9138Z" fill="#263238"/>
<path d="M134.073 55.3724L134.705 55.1719C134.705 55.1719 134.352 55.682 134.073 55.3724Z" fill="#263238"/>
<path d="M129.596 53.9127C129.555 53.9116 129.517 53.8961 129.487 53.8691C129.458 53.8384 129.442 53.7979 129.442 53.7558C129.442 53.7136 129.458 53.6731 129.487 53.6424C129.714 53.4444 129.985 53.302 130.277 53.2263C130.569 53.1507 130.874 53.1439 131.169 53.2064C131.19 53.211 131.209 53.2195 131.226 53.2315C131.243 53.2435 131.258 53.2588 131.269 53.2764C131.28 53.294 131.287 53.3136 131.291 53.3342C131.294 53.3547 131.294 53.3757 131.289 53.3961C131.285 53.4164 131.276 53.4356 131.264 53.4526C131.252 53.4697 131.237 53.4842 131.219 53.4953C131.202 53.5064 131.182 53.514 131.162 53.5175C131.141 53.5211 131.12 53.5205 131.1 53.516C130.858 53.4644 130.608 53.4683 130.367 53.5272C130.127 53.586 129.904 53.6985 129.713 53.856C129.699 53.8734 129.681 53.8874 129.661 53.8972C129.64 53.907 129.618 53.9123 129.596 53.9127Z" fill="#263238"/>
<path d="M134.971 54.0125C134.935 54.0116 134.9 53.9994 134.871 53.9776C134.713 53.8277 134.523 53.716 134.315 53.651C134.107 53.586 133.887 53.5695 133.672 53.6027C133.632 53.6121 133.589 53.6056 133.553 53.5844C133.518 53.5633 133.491 53.5293 133.48 53.4893C133.47 53.4494 133.475 53.4069 133.495 53.371C133.516 53.3351 133.549 53.3087 133.589 53.2975C133.853 53.2514 134.124 53.2667 134.381 53.3424C134.638 53.418 134.875 53.5518 135.072 53.7335C135.088 53.7466 135.101 53.7627 135.111 53.781C135.121 53.7993 135.127 53.8194 135.129 53.8401C135.131 53.8608 135.129 53.8817 135.123 53.9015C135.117 53.9214 135.107 53.9399 135.093 53.9558C135.079 53.974 135.06 53.9885 135.039 53.9984C135.018 54.0082 134.995 54.013 134.971 54.0125Z" fill="#263238"/>
<path d="M126.661 56.2438C126.661 56.2438 128.514 53.5711 128.466 51.378C128.466 51.378 135.503 49.198 135.22 56.1348C135.22 56.1348 136.432 50.0787 130.559 49.4117C124.686 48.7446 123.932 57.3643 126.744 60.2027C126.744 60.1983 125.51 57.9093 126.661 56.2438Z" fill="#263238"/>
<path d="M127.154 57.0114C127.155 56.8139 127.118 56.6179 127.044 56.4348C126.97 56.2516 126.861 56.0848 126.722 55.9439C126.584 55.8031 126.419 55.6908 126.237 55.6136C126.055 55.5365 125.86 55.4959 125.663 55.4941C124.59 55.5159 123.888 57.648 126.482 58.411C126.853 58.52 127.101 58.1668 127.154 57.0114Z" fill="#EBB376"/>
<path d="M132.647 59.62C132.229 59.6406 131.816 59.524 131.471 59.2878C131.125 59.0517 130.866 58.709 130.733 58.312C130.727 58.2928 130.725 58.2726 130.727 58.2526C130.729 58.2325 130.734 58.213 130.744 58.1952C130.753 58.1774 130.766 58.1616 130.781 58.1487C130.797 58.1358 130.815 58.1261 130.834 58.1202C130.853 58.1141 130.874 58.112 130.895 58.114C130.915 58.116 130.935 58.122 130.954 58.1317C130.972 58.1415 130.988 58.1547 131.001 58.1707C131.014 58.1866 131.024 58.205 131.03 58.2248C131.146 58.5697 131.375 58.8656 131.679 59.0648C131.983 59.2641 132.346 59.3552 132.709 59.3235C132.749 59.3211 132.79 59.3348 132.821 59.3617C132.852 59.3886 132.871 59.4265 132.874 59.4674C132.877 59.5083 132.863 59.5486 132.836 59.5796C132.809 59.6105 132.771 59.6297 132.73 59.6331L132.647 59.62Z" fill="#263238"/>
<path d="M135.168 55.1671C135.135 55.1669 135.102 55.1562 135.076 55.1366C135.049 55.117 135.029 55.0896 135.019 55.0581C133.685 50.6981 128.575 51.3783 128.527 51.387C128.507 51.3899 128.487 51.3887 128.467 51.3837C128.448 51.3787 128.429 51.3699 128.413 51.3577C128.397 51.3456 128.383 51.3304 128.373 51.3129C128.363 51.2955 128.356 51.2762 128.353 51.2562C128.35 51.2362 128.351 51.2157 128.356 51.1961C128.361 51.1765 128.37 51.1581 128.382 51.1419C128.394 51.1257 128.41 51.1121 128.427 51.1018C128.444 51.0914 128.464 51.0847 128.484 51.0818C128.536 51.0818 133.903 50.3624 135.316 54.9666C135.322 54.986 135.324 55.0065 135.322 55.0267C135.32 55.047 135.314 55.0667 135.304 55.0845C135.294 55.1024 135.281 55.1182 135.265 55.1308C135.249 55.1435 135.231 55.1529 135.211 55.1584L135.168 55.1671Z" fill="#263238"/>
<path d="M144.031 62.5321C144.031 62.5321 145.832 62.5015 145.893 62.8155C145.954 63.1294 145.837 65.7672 145.597 66.1378C145.335 66.4727 145.035 66.7757 144.703 67.0403L144.877 71.7142L143.805 72.0892L142.832 67.812C142.832 67.812 141.729 66.7351 142.052 65.3704C142.375 64.0057 144.031 62.5321 144.031 62.5321Z" fill="#EBB376"/>
<path opacity="0.1" d="M144.031 62.5321C144.031 62.5321 145.832 62.5015 145.893 62.8155C145.954 63.1294 145.837 65.7672 145.597 66.1378C145.335 66.4727 145.035 66.7757 144.703 67.0403L144.877 71.7142L143.805 72.0892L142.832 67.812C142.832 67.812 141.729 66.7351 142.052 65.3704C142.375 64.0057 144.031 62.5321 144.031 62.5321Z" fill="black"/>
<path d="M140.975 64.834C140.974 64.8731 140.981 64.9121 140.995 64.9483C141.01 64.9845 141.033 65.0171 141.061 65.0439C141.09 65.0708 141.124 65.0912 141.161 65.1039C141.198 65.1165 141.237 65.1212 141.276 65.1174L144.328 64.882C144.413 64.8738 144.492 64.8354 144.551 64.7738C144.611 64.7122 144.646 64.6315 144.651 64.5462L144.869 58.4422C144.871 58.4005 144.865 58.3587 144.851 58.3194C144.836 58.2801 144.814 58.2441 144.786 58.2136C144.757 58.183 144.723 58.1585 144.685 58.1416C144.646 58.1247 144.605 58.1158 144.563 58.1152L141.511 58.3507C141.423 58.3683 141.343 58.4154 141.284 58.4842C141.225 58.5531 141.192 58.6397 141.189 58.73L140.975 64.834Z" fill="#263238"/>
<path opacity="0.5" d="M141.529 58.6677L141.328 64.824C141.322 64.8605 141.325 64.8978 141.336 64.9329C141.348 64.9681 141.367 65.0001 141.393 65.0264C141.419 65.0527 141.45 65.0726 141.485 65.0844C141.52 65.0962 141.558 65.0996 141.594 65.0944L144.188 64.8938C144.363 64.8938 144.677 64.7586 144.681 64.5842L144.899 58.4105C144.899 58.2361 144.598 58.1227 144.424 58.1358L141.808 58.3364C141.728 58.3452 141.654 58.3845 141.602 58.4462C141.55 58.5079 141.524 58.5872 141.529 58.6677Z" fill="white"/>
<path d="M137.862 69.4647L139.026 66.7484C139.026 66.7484 139.406 63.1078 139.589 62.7154C139.772 62.323 142.737 62.4712 143.077 62.4494C143.417 62.4276 143.338 66.0595 143.029 66.4432C142.719 66.8269 141.507 67.1321 141.507 67.1321L139.645 70.7422L137.862 69.4647Z" fill="#EBB376"/>
<path d="M134.583 67.9896C134.269 69.2365 133.062 70.1957 130.563 70.1696C129.147 70.1455 127.774 69.6756 126.639 68.8267C125.737 68.1632 124.955 67.349 124.329 66.42C124.69 66.3546 125.057 66.2979 125.423 66.2412C127.357 65.9344 129.308 65.7495 131.265 65.6875C132.299 65.6875 133.393 65.718 134.317 65.766C134.642 66.4597 134.735 67.239 134.583 67.9896Z" fill="#EBB376"/>
<path d="M124.054 85.1473L123.513 87.5104L137.448 86.7779L137.047 84.4453L124.054 85.1473Z" fill="#263238"/>
<path d="M131.972 87.1665C131.843 87.1671 131.718 87.1197 131.622 87.0335C131.526 86.9472 131.466 86.8283 131.453 86.7L131.291 85.1914C131.279 85.0483 131.323 84.9058 131.414 84.7946C131.459 84.7407 131.515 84.6966 131.578 84.6651C131.641 84.6336 131.709 84.6154 131.78 84.6115L133.812 84.472C133.948 84.4623 134.083 84.5067 134.188 84.5956C134.292 84.6844 134.357 84.8107 134.37 84.9473L134.509 86.434C134.522 86.5737 134.48 86.7129 134.391 86.8221C134.347 86.8755 134.292 86.9193 134.229 86.9508C134.167 86.9822 134.099 87.0008 134.03 87.0052L132.015 87.1665H131.972ZM131.727 85.1434L131.884 86.652C131.888 86.6747 131.899 86.6954 131.917 86.7099C131.935 86.7245 131.957 86.7318 131.98 86.7305L133.995 86.5735C134.007 86.572 134.018 86.5682 134.029 86.5622C134.039 86.5562 134.048 86.5482 134.056 86.5386C134.071 86.5205 134.079 86.4971 134.078 86.4732L133.934 84.9865C133.933 84.9752 133.93 84.9642 133.925 84.954C133.92 84.9439 133.913 84.9348 133.905 84.9275C133.896 84.9201 133.886 84.9146 133.875 84.9113C133.865 84.9079 133.853 84.9068 133.842 84.908L131.81 85.0475C131.798 85.047 131.785 85.0495 131.774 85.0548C131.763 85.0601 131.753 85.0681 131.745 85.0781C131.74 85.0884 131.738 85.0995 131.738 85.1108C131.738 85.122 131.74 85.1331 131.745 85.1434H131.727Z" fill="white"/>
<path d="M133.916 85.893H133.166C133.108 85.893 133.053 85.8701 133.012 85.8292C132.971 85.7883 132.948 85.7328 132.948 85.675C132.949 85.6176 132.973 85.5628 133.013 85.5221C133.054 85.4815 133.109 85.4581 133.166 85.457H133.916C133.974 85.4581 134.028 85.4815 134.069 85.5221C134.11 85.5628 134.133 85.6176 134.134 85.675C134.134 85.7328 134.111 85.7883 134.07 85.8292C134.029 85.8701 133.974 85.893 133.916 85.893Z" fill="white"/>
<path opacity="0.2" d="M125.976 75.1455C124.743 75.5815 123.36 74.8185 122.423 74.0817C122.183 73.3231 121.909 72.5077 121.595 71.6183C121.521 71.409 121.333 70.8858 121.106 70.2798C120.927 69.796 120.891 69.2708 121.003 68.7673C121.116 68.2637 121.371 67.8033 121.739 67.4414C124.11 69.6781 127.625 74.5831 125.976 75.1455Z" fill="black"/>
<path d="M121.708 67.1455C121.956 66.9461 122.241 66.7997 122.548 66.7156C122.854 66.6314 123.175 66.6112 123.489 66.6561C123.804 66.7011 124.105 66.8104 124.376 66.9771C124.646 67.1437 124.88 67.3643 125.061 67.6251C126.975 70.3675 130.189 74.9281 130.577 75.1504C131.13 75.4731 135.307 71.6232 139.031 66.74L141.311 67.612C141.311 67.612 135.421 79.7241 131.239 79.7764C128.104 79.8156 123.391 73.4587 121.251 70.2628C120.92 69.781 120.784 69.1924 120.869 68.6145C120.954 68.0366 121.254 67.512 121.708 67.1455Z" fill="#EBB376"/>
<path opacity="0.2" d="M125.977 89.4453C125.977 89.4453 124.913 92.336 122.284 93.3693V94.407C122.284 94.407 126.138 92.7676 126.679 90.047L125.977 89.4453Z" fill="black"/>
<path opacity="0.2" d="M122.986 104.672L126.679 103.979L127.559 111.399L124.023 111.914L123.513 107.083L126.705 106.629L126.522 104.798L126.469 106.424L122.881 107L122.986 104.672Z" fill="black"/>
</svg>
