<svg width="25" height="24" viewBox="0 0 25 24" fill="none" xmlns="http://www.w3.org/2000/svg">
<g id="vuesax/linear/devices">
<g id="devices">
<path id="Vector" d="M17.5099 12.7298C18.1009 12.7298 18.5799 12.2507 18.5799 11.6598C18.5799 11.0688 18.1009 10.5898 17.5099 10.5898C16.919 10.5898 16.4399 11.0688 16.4399 11.6598C16.4399 12.2507 16.919 12.7298 17.5099 12.7298Z" stroke="#292D32" stroke-width="1.5" stroke-linecap="round" stroke-linejoin="round"/>
<path id="Vector_2" d="M20.5 6V7.78998C20.25 7.75998 19.96 7.73999 19.65 7.73999H15.37C13.23 7.73999 12.52 8.45003 12.52 10.59V15.7H6.5C3.3 15.7 2.5 14.9 2.5 11.7V6C2.5 2.8 3.3 2 6.5 2H16.5C19.7 2 20.5 2.8 20.5 6Z" stroke="#292D32" stroke-width="1.5" stroke-linecap="round" stroke-linejoin="round"/>
<path id="Vector_3" d="M9.5 15.6992V19.9992" stroke="#292D32" stroke-width="1.5" stroke-linecap="round" stroke-linejoin="round"/>
<path id="Vector_4" d="M2.5 11.9004H12.5" stroke="#292D32" stroke-width="1.5" stroke-linecap="round" stroke-linejoin="round"/>
<path id="Vector_5" d="M6.4502 20H12.5002" stroke="#292D32" stroke-width="1.5" stroke-linecap="round" stroke-linejoin="round"/>
<g id="Group">
<path id="Vector_6" d="M17.5099 12.7298C18.1009 12.7298 18.5799 12.2507 18.5799 11.6598C18.5799 11.0688 18.1009 10.5898 17.5099 10.5898C16.919 10.5898 16.4399 11.0688 16.4399 11.6598C16.4399 12.2507 16.919 12.7298 17.5099 12.7298Z" stroke="#292D32" stroke-width="1.5" stroke-miterlimit="10" stroke-linecap="round" stroke-linejoin="round"/>
<path id="Vector_7" d="M20.5 7.79022C20.25 7.76022 19.96 7.74023 19.65 7.74023H15.37C13.23 7.74023 12.52 8.45027 12.52 10.5903V19.1503C12.52 21.2903 13.23 22.0002 15.37 22.0002H19.65C21.79 22.0002 22.5 21.2903 22.5 19.1503V10.5903C22.5 8.76027 21.98 7.98022 20.5 7.79022ZM17.51 10.5903C18.1 10.5903 18.58 11.0702 18.58 11.6602C18.58 12.2502 18.1 12.7302 17.51 12.7302C16.92 12.7302 16.44 12.2502 16.44 11.6602C16.44 11.0702 16.92 10.5903 17.51 10.5903ZM17.51 19.1503C16.33 19.1503 15.37 18.1903 15.37 17.0103C15.37 16.5203 15.54 16.0603 15.82 15.7003C16.21 15.2003 16.82 14.8702 17.51 14.8702C18.05 14.8702 18.54 15.0703 18.91 15.3903C19.36 15.7903 19.65 16.3703 19.65 17.0103C19.65 18.1903 18.69 19.1503 17.51 19.1503Z" stroke="#292D32" stroke-width="1.5" stroke-miterlimit="10" stroke-linecap="round" stroke-linejoin="round"/>
<path id="Vector_8" d="M19.6501 17.0111C19.6501 18.1911 18.6901 19.1511 17.5101 19.1511C16.3301 19.1511 15.3701 18.1911 15.3701 17.0111C15.3701 16.5211 15.5401 16.0611 15.8201 15.7011C16.2101 15.2011 16.8201 14.8711 17.5101 14.8711C18.0501 14.8711 18.5401 15.0711 18.9101 15.3911C19.3601 15.7911 19.6501 16.3711 19.6501 17.0111Z" stroke="#292D32" stroke-width="1.5" stroke-miterlimit="10" stroke-linecap="round" stroke-linejoin="round"/>
<path id="Vector_9" d="M17.5099 12.7298C18.1009 12.7298 18.5799 12.2507 18.5799 11.6598C18.5799 11.0688 18.1009 10.5898 17.5099 10.5898C16.919 10.5898 16.4399 11.0688 16.4399 11.6598C16.4399 12.2507 16.919 12.7298 17.5099 12.7298Z" stroke="#292D32" stroke-width="1.5" stroke-miterlimit="10" stroke-linecap="round" stroke-linejoin="round"/>
</g>
</g>
</g>
</svg>
